<mxfile host="app.diagrams.net" agent="Mozilla/5.0 (Windows NT 10.0; Win64; x64) AppleWebKit/537.36 (KHTML, like Gecko) Chrome/109.0.0.0 Safari/537.36" version="24.7.16" pages="2">
  <diagram name="BASE_FLOW" id="Mjk_yvF3PFwbqkChKF6E">
    <mxGraphModel dx="1173" dy="645" grid="1" gridSize="10" guides="1" tooltips="1" connect="1" arrows="1" fold="1" page="1" pageScale="1" pageWidth="850" pageHeight="1100" math="0" shadow="0">
      <root>
        <mxCell id="0" />
        <mxCell id="1" parent="0" />
        <mxCell id="Csfla0amXST11k4jDHiI-11" value="" style="edgeStyle=orthogonalEdgeStyle;rounded=0;orthogonalLoop=1;jettySize=auto;html=1;" edge="1" parent="1" source="Csfla0amXST11k4jDHiI-1" target="Csfla0amXST11k4jDHiI-10">
          <mxGeometry relative="1" as="geometry" />
        </mxCell>
        <mxCell id="Csfla0amXST11k4jDHiI-1" value="UI/UX&lt;div&gt;REFERENCE&lt;/div&gt;&lt;div&gt;&lt;br&gt;&lt;/div&gt;&lt;div&gt;FRAMEWORK : ANGULAR&amp;nbsp;&lt;/div&gt;" style="rounded=0;whiteSpace=wrap;html=1;fillColor=#dae8fc;strokeColor=#6c8ebf;" vertex="1" parent="1">
          <mxGeometry x="20" y="82.5" width="160" height="80" as="geometry" />
        </mxCell>
        <mxCell id="Csfla0amXST11k4jDHiI-3" value="" style="edgeStyle=orthogonalEdgeStyle;rounded=0;orthogonalLoop=1;jettySize=auto;html=1;exitX=0.5;exitY=0;exitDx=0;exitDy=0;" edge="1" parent="1" source="Csfla0amXST11k4jDHiI-4" target="Csfla0amXST11k4jDHiI-1">
          <mxGeometry relative="1" as="geometry" />
        </mxCell>
        <mxCell id="Csfla0amXST11k4jDHiI-5" style="edgeStyle=orthogonalEdgeStyle;rounded=0;orthogonalLoop=1;jettySize=auto;html=1;entryX=0.5;entryY=1;entryDx=0;entryDy=0;" edge="1" parent="1" source="Csfla0amXST11k4jDHiI-2" target="Csfla0amXST11k4jDHiI-4">
          <mxGeometry relative="1" as="geometry" />
        </mxCell>
        <mxCell id="Csfla0amXST11k4jDHiI-2" value="REST API&lt;div&gt;ANGULAR&lt;/div&gt;" style="whiteSpace=wrap;html=1;aspect=fixed;fillColor=#dae8fc;strokeColor=#6c8ebf;" vertex="1" parent="1">
          <mxGeometry x="60" y="350" width="80" height="80" as="geometry" />
        </mxCell>
        <mxCell id="Csfla0amXST11k4jDHiI-13" value="" style="edgeStyle=orthogonalEdgeStyle;rounded=0;orthogonalLoop=1;jettySize=auto;html=1;" edge="1" parent="1" source="Csfla0amXST11k4jDHiI-4" target="Csfla0amXST11k4jDHiI-12">
          <mxGeometry relative="1" as="geometry" />
        </mxCell>
        <mxCell id="Csfla0amXST11k4jDHiI-4" value="JSON FORMAT" style="whiteSpace=wrap;html=1;aspect=fixed;fillColor=#dae8fc;strokeColor=#6c8ebf;" vertex="1" parent="1">
          <mxGeometry x="57.5" y="210" width="85" height="85" as="geometry" />
        </mxCell>
        <mxCell id="Csfla0amXST11k4jDHiI-9" style="edgeStyle=orthogonalEdgeStyle;rounded=0;orthogonalLoop=1;jettySize=auto;html=1;" edge="1" parent="1" source="Csfla0amXST11k4jDHiI-8" target="Csfla0amXST11k4jDHiI-2">
          <mxGeometry relative="1" as="geometry" />
        </mxCell>
        <mxCell id="Csfla0amXST11k4jDHiI-8" value="DB" style="rounded=0;whiteSpace=wrap;html=1;fillColor=#d5e8d4;strokeColor=#82b366;" vertex="1" parent="1">
          <mxGeometry x="40" y="500" width="120" height="60" as="geometry" />
        </mxCell>
        <mxCell id="Csfla0amXST11k4jDHiI-10" value="GET DATA FLOW" style="rounded=0;whiteSpace=wrap;html=1;" vertex="1" parent="1">
          <mxGeometry x="40" width="120" height="60" as="geometry" />
        </mxCell>
        <mxCell id="Csfla0amXST11k4jDHiI-12" value="GET CALL()" style="ellipse;shape=cloud;whiteSpace=wrap;html=1;" vertex="1" parent="1">
          <mxGeometry x="170" y="212.5" width="120" height="80" as="geometry" />
        </mxCell>
        <mxCell id="Csfla0amXST11k4jDHiI-24" value="" style="edgeStyle=orthogonalEdgeStyle;rounded=0;orthogonalLoop=1;jettySize=auto;html=1;" edge="1" parent="1" source="Csfla0amXST11k4jDHiI-14" target="Csfla0amXST11k4jDHiI-15">
          <mxGeometry relative="1" as="geometry" />
        </mxCell>
        <mxCell id="Csfla0amXST11k4jDHiI-14" value="SET DATA FLOW" style="rounded=0;whiteSpace=wrap;html=1;" vertex="1" parent="1">
          <mxGeometry x="470" width="120" height="60" as="geometry" />
        </mxCell>
        <mxCell id="Csfla0amXST11k4jDHiI-23" value="" style="edgeStyle=orthogonalEdgeStyle;rounded=0;orthogonalLoop=1;jettySize=auto;html=1;" edge="1" parent="1" source="Csfla0amXST11k4jDHiI-15" target="Csfla0amXST11k4jDHiI-17">
          <mxGeometry relative="1" as="geometry" />
        </mxCell>
        <mxCell id="Csfla0amXST11k4jDHiI-15" value="UI/UX&lt;div&gt;REFERENCE&lt;/div&gt;&lt;div&gt;&lt;br&gt;&lt;/div&gt;&lt;div&gt;FRAMEWORK : ANGULAR&amp;nbsp;&lt;/div&gt;" style="rounded=0;whiteSpace=wrap;html=1;fillColor=#dae8fc;strokeColor=#6c8ebf;" vertex="1" parent="1">
          <mxGeometry x="460" y="100" width="160" height="80" as="geometry" />
        </mxCell>
        <mxCell id="Csfla0amXST11k4jDHiI-21" value="" style="edgeStyle=orthogonalEdgeStyle;rounded=0;orthogonalLoop=1;jettySize=auto;html=1;" edge="1" parent="1" source="Csfla0amXST11k4jDHiI-16" target="Csfla0amXST11k4jDHiI-18">
          <mxGeometry relative="1" as="geometry" />
        </mxCell>
        <mxCell id="Csfla0amXST11k4jDHiI-16" value="REST API&lt;div&gt;ANGULAR&lt;/div&gt;" style="whiteSpace=wrap;html=1;aspect=fixed;fillColor=#dae8fc;strokeColor=#6c8ebf;" vertex="1" parent="1">
          <mxGeometry x="500" y="360" width="80" height="80" as="geometry" />
        </mxCell>
        <mxCell id="Csfla0amXST11k4jDHiI-22" value="" style="edgeStyle=orthogonalEdgeStyle;rounded=0;orthogonalLoop=1;jettySize=auto;html=1;" edge="1" parent="1" source="Csfla0amXST11k4jDHiI-17" target="Csfla0amXST11k4jDHiI-16">
          <mxGeometry relative="1" as="geometry" />
        </mxCell>
        <mxCell id="Csfla0amXST11k4jDHiI-17" value="JSON FORMAT" style="whiteSpace=wrap;html=1;aspect=fixed;fillColor=#dae8fc;strokeColor=#6c8ebf;" vertex="1" parent="1">
          <mxGeometry x="497.5" y="220" width="85" height="85" as="geometry" />
        </mxCell>
        <mxCell id="Csfla0amXST11k4jDHiI-18" value="DB" style="rounded=0;whiteSpace=wrap;html=1;fillColor=#d5e8d4;strokeColor=#82b366;" vertex="1" parent="1">
          <mxGeometry x="480" y="510" width="120" height="60" as="geometry" />
        </mxCell>
        <mxCell id="Csfla0amXST11k4jDHiI-25" value="" style="edgeStyle=orthogonalEdgeStyle;rounded=0;orthogonalLoop=1;jettySize=auto;html=1;" edge="1" parent="1" source="Csfla0amXST11k4jDHiI-19" target="Csfla0amXST11k4jDHiI-17">
          <mxGeometry relative="1" as="geometry" />
        </mxCell>
        <mxCell id="Csfla0amXST11k4jDHiI-19" value="SET&amp;nbsp; CALL()" style="ellipse;shape=cloud;whiteSpace=wrap;html=1;" vertex="1" parent="1">
          <mxGeometry x="610" y="222.5" width="120" height="80" as="geometry" />
        </mxCell>
      </root>
    </mxGraphModel>
  </diagram>
  <diagram id="Yv1EOre-oKbBUZpbDVOi" name="UI/UX FLOW">
    <mxGraphModel dx="1120" dy="427" grid="1" gridSize="10" guides="1" tooltips="1" connect="1" arrows="1" fold="1" page="1" pageScale="1" pageWidth="850" pageHeight="1100" math="0" shadow="0">
      <root>
        <mxCell id="0" />
        <mxCell id="1" parent="0" />
        <mxCell id="7agPJZZmaf8c-N4iAnpe-1" value="UI/ UX&amp;nbsp; DESIGN- LANDING PAGE" style="text;html=1;align=center;verticalAlign=middle;resizable=0;points=[];autosize=1;strokeColor=none;fillColor=none;" vertex="1" parent="1">
          <mxGeometry x="300" width="210" height="30" as="geometry" />
        </mxCell>
        <mxCell id="v1kjHRz2UVswL3TBr61I-1" value="" style="shape=image;verticalLabelPosition=bottom;labelBackgroundColor=default;verticalAlign=top;aspect=fixed;imageAspect=0;image=data:image/png,iVBORw0KGgoAAAANSUhEUgAABPAAAAB6CAYAAAAxp62uAAAgAElEQVR4nOzdd3xW9fn/8dc559539l6EhB1GmGFPFRkOVHBUqXVhcdbaOrvUr11q+7NVW6tWcdGKMgQXIkuGbBmGvRJCBhlk3fs+5/z+uEPYbpKC1/PxQO6c+4zrc+6BvPkM5ZGUgSZCnMNqdD9VYV9rlyGEEEIIIYQQQgjxraitXYAQZ1qC5sCuaK1dhhBCCCGEEEIIIcS3IgGe+EFItDhauwQhhBBCCCGEEEKIb0UCPPGDEKXaiFKtrV2GEEIIIYQQQgghxDcmAZ74wUi0OFu7BCGEEEIIIYQQQohvTAI88YNhVzTiNXtrlyGEEEIIIYQQQgjxjUiAJ35QEi1ONEVp7TKEEEIIIYQQQgghvjYJ8MQPiopCoiZDaYUQQgghhBBCCHH2kABP/ODEaXYciqW1yxBCCCGEEEIIIYT4WiTFaEUmoKpK5MFZzAQwz65GJFocHAw1tnYZQgghhBBCCCGEEF9JArxWpACmaTQ9OsuZnFXNcKtWolUbDUawtUsRQgghhBBCCCGE+FIS4LW6SOqlxsWDprVyLd+MGQph1tdFfjiLwrsjEi0OGoIS4AkhhBBCCCGEEOJ/mwR4rakp9FJsdmJ+/ShaSmrr1vMNhUtLqHv4PjCM1i7lW7EpGgmagxrd39qlCCGEEEIIIYQQQpyWBHitqWnYqRofjxIdDZaz6+VQY2JR4+IxaqqbxgO3dkXfXKLFSb0RJGyenSGkEEIIIYQQQgghzn2yCm0rMeFoD7y4BBSnqzXL+VYUpws1Pr61y/hOFCBRc7R2GUIIIYQQQgghxDkjJ8lgcLZBN2trV3LuOLu6fJ1Djp0yzpKTg9LU+844fBg0DTUmBsPrBcNAdbtBUTBDIYzaw2jJyWCYGJ5GFJsdxW7D8Hiah7IqdkfksaZFfrfZwO9HcToxPI2YgSBaQsLRAsI6elUFamIyitWKGQig2O0QDmPqYRSbHcPvQ7HZMb0eFLsDxWZDsdnQ0tIJ79nd1CgTzLNvMrxYzU69EcRnhFu7lLNSTp8G7rm5iriTvk5MrDjZ+O9kntzQggVZITkElSds7tXHx+i+Ibwbo5ixViUzBTYeaqmaTMYP9ZEbp5PcMcTxcb1G5S4r3lobS5ZbKAy1UE1CCCGEEEIIcUaEufKBInolheFQFi8+4GZJa5d0DpAArxUoHJ9zWbp0BSC8czuN0/6NYrcTffe9NP7rOQgGUZKScU/+CQ1/ehycLixts7GPGk39479FTUjCefEEQls2Eir8Ai01DdvwkYT37sHaqTOBZUuJuuMePC/9E/ctU2n4y59BUXBechm23n0B8M5+G/1AMdjtRN92F96ZM3Bf+2OCmzcS2r4V5+VX4nn+OZyXT6Thb39BsdqIuu0uLLntsHTpSmDFMgBMU0U5G8fRAomakxKjobXLOPvE+7j9xgC7/pDLcwdPeM5q0ivbxw33VDNlXyIvHm6hmobW8kg3Fy8+a2Nj06ZuF1Zzz4+qsAIMtjK4MZrCefF4Praw64wXZHLP70roWB/Lrl0WKrfY2VlowQOAQWa3ICkOk9iCKu47P4anf+1qrlsIIYQQQgghzj4WnryvPVh9PP1CI73yNAZf4iXuyw45FMWL02wt8Pezs5cEeK3APPIfBUxFwZrXDQCjoQFLh464LpuEYrWiOJxE3/8r6h75NeHdu9A6dsJ9zXUcnnoz9mGjsHTsjPu6n+B581VifvkQnjdfxX31dYS2byW8d0/knIcPY1RWABDeuQNbwQAco8dg1NQ016OXlxI19Q706mpQvrwHnX3EKLSkFPSyUiy57bB27d7clrM1vANwqRZiNBv1uqxK+40UeEnZEcv9B4GUIA/fUUWnJJ1QVSxLFljIsDpZsaOGggLg4xaqyavg7ruP+55OZu2MOOasVBncr5ajPbdDoNvYurwlwjsAPxlRsbz/6xg+ACDMHTf72fkfFwu8KhQf+Rq28fDT9RQgAZ4QQgghhBDiHBCyc/BQKRntElm7yyDlNLslDzxA8sE4Ce++ggR4raUpJ7NktUGNiQHAmt+L8P59eGe+heua6zBDIXzvz0WNj0OJikKx2UCzgGmAaWKUl+Gd8R9sfQpOexlLTi7BzzdELmjoYOh435qOlp6BlpoW2ckEFAVLm+yvLDu46jMUmx3XlVcDoKWloyYkYByuQVFMzLNwCO0RiZpTArxvygqhgAIY3PeLCuJWZHLfXJWOl1Zz6yUa0x5QcHVQoQXnPejYaGP/IRsdUyopmFJJwRQLcMLw6Cobc7wtVFC3EPGNFoqO2RTbo5wbChyMXprMnHesrAwBWPA2BkjuBhS2UG1CCCGEEEIIccaoFO5zclWuztvPnm7e/xCPXBDNwY2yRMNXkTvUKo72VLPmdW9+HC7ej2P0WCxtcwiuWYVitWAfeR5Rd9yDolkgFAJdJ7J0rYIan4DhacTWq89pr6SmphHetjUyH54a+eW6fBJGfd3RnZpWkA2s+ax5Hr3IwRqEw5HrKpEdbf0HEn3fQ4R27mg6VsHSJa+5VWdvHzywKiqJFmdrl3F2yvPQyR7LkrkqlcDKubHstNczOK/lS9nVYJCccmwQe/LchrX77C1XEIBfOSGTi2XJvSkUdSrnjqcrua8AQMHjb9myhBBCCCGEEOJM+mCHA2sHH+NPt0M3H5m42SWdGL6SBHit4cgwVUXB0rnL0c2qhveNaYT37cPavWekd1t0TGSxiPQMTJ8Pz5vTcF5zHYrThZaTg2vS1QRWfAqmiZqYBIqC4nSiJSWjREWjJiXjuPhStKRkLHld0Q8exPvWdKxN8+4BWLv2wDtzBnpRUWSxjPpavDOmo0RFYTY24p3+GvZhI1EcdvSDJXhnTMfao+fR45uGAIPyVSNw/+clag5sinwsvrHdFg5rBvFHetpZDdyajcrdrVBLsZs330ni9GtBxLF/RWu/xmFyrjtMQYqDXe/F8/baVi5HCCGEEEIIIc6E5U4OxvrodpoBf4N7+XDts/N2y1Z1VpIhtK3BNCNBm812dBgrYGmbQ9SU2yM/aCquayZHesTpRmThiFumgsUCYR00Ffe1P4GwjrVD58jCFBeMxTQMLDntsLTvGDlP0/G2/F6gKETdNCXSTc6iRZ4Ph3GMPB80FULhyD5T7ogcp4B16p2gqqAbYBpE3/XzyH7q0QDE0iYbLFYIh1BQMM/qfniQaHFSFvK0dhlnl5CTJSvruerJSnqWatgyvFhXpvFiiNP/S8sZtLLQyVXjLSS7Tux9Z8G7MoFp+1uwmAaNYEKY0cCCI9uMIG5SeeEeW9PwWYAwyQkaIVlLRQghhBBCCHGuCNkpLfNQ8PABpumneN4e5ODs1BYv62ykjXRnPdLaRfygKDT3wFOjonFedCmKMzJs0794IQ1/+QP+j94ntHkj1m75BFYso+Gvf8L/4Tz8H7yHbeAQ6u7/GUZDPZa2OdQ99mvU5BQMTyMNf3oM7/TXCW5Yi63fABSHA9/779L496ewdO6KlpiIZ/pr+ObNwTFiFKankfo/Porp86KlZ1L78zuwDxuBb847ND7/DP75HxDevQtrtx745s7CO2sGjpHnc/jnt0Mo2NyLz9R1AsuXQjDQWnf1e2VXNPymTsg0vnrnH7q4EBMHmOxfZGPZF1Fs3G4lzqaxa04iTy5XAZOLrqhH2xDDktIWrKvWir/WQvtejTias2YL3sJMnnvWzt4WLIU6gyEX+7Ctd7HWA6ByYFks/12tceDYt1hKgImjDHb818mWlqxPCCGEEEIIIc4YhVV7HOT38BFXG8eCfyWy8NMYtlSqdOwcJLQljVenWyhv7TLPAtIDr6U1rdgKRIa4xsYefS4YwKitwz3lNjwv/4vw3t2YwQCoGtH33h85RtMw6uoILFqAfeT5mA0NEArhnzsbVJW4p/5G49/+QnD1ShwXjiO4dg1GQwOhbYVYO3bC9HkjxwCmYWI2NGD6A5FFMerqMA0Tw+fDNEzc106m8Z/P4Dh/NKbPd/S4+jpMv6+5bDUuDsXpwmyob5Fb2BISNQce4/SDMEWTtTGsGFPCHQ8bbNymNW9O6e3ljt7gyquhmz+Rp1twiGi3fB8TLq2jU04dVg3Ahrcslp3z45i2NDJHX8ty8Pa7AaY8XMybUUcW/TiBPQQBFwdnp/Jmi9cnhBBCCCGEEGfOdZMqyKxMZn9yOYMH5vLmmwYP31NDqDAB+lRxWUEWG2Vaoa8kAV5LU44meJYueZHFJY5johftB1VFcUVWaTFDIUI7tqPGxqEmJkd2C4XxvTuzeSir6fGgxsWjOBy4broVNToao6EB/eABtOwc9N27jl+g4qvK1CxYe/TENA1Mn+/L97U70LLbYhxqysybFsU4mzlUC3GanVr93OhVeOYovPh4G/aPamBIgZ/j1xXSqPwsjUcWW2jJEauFm50UbnYCaV+5b0vZ+Eksd3xyNKzPSTLIcAFelZVVrVeXEEIIIYQQQpxpHq8FV14DydYjHRpUvH4Dd1YAVCsHW76XxVlJAryWdkwPPGvPXic/ryiEtmxEUVUUa2RFANPvI7BsCVpmFtZuPUBR0Dp1JrR6Ndhtxx3ufetNAss+xT5sBLa+/VBsNqyduxDaVogZCp58vdMw6mo5fO8daPEJaG1zCG378iVhbD17EVq3OtIE86zP7wBI1JzU60GMc6I1Z9aCxdEsWNzaVZw99lepLRpqCiGEEEIIIURrmfNiBtYL/KQ0pDBjuQIoPP14NjeMCcJ2V8vOUX4WkwCvpR1ZplVVsXXvecpdYn71KHUP/YLg+rUo0TGo8QnE/vZxUNXm3nC2fv3x7toBjcfPeO+6ZjJ6WSmgENq2FaOhgcDKZRAOYwZO6E12ZD4+Q4/8OqY+xeVEy8yCYAg1PiGyOq1ugGliGgYnLjdr69WHI8s+nCtxl6YoJFocVIa/vAeiEEIIIYQQQgghTiOk8vaHx4/Xwmth2myJpL4J9at3Ed+nI7GXltkGxWE/eQcTPK/+G8PrRcvIimxqqMcz7SU8L7+A0VAHJqguN86LJzStaAuWLl0J79+Hb/ZM9IMlWPO6ohcXo6VnYB8+ClAI790DgFFTTeM/n8H37mzUxEQCK5bR+PyzqAnxqFHuSJ1WO84JE9HLS9GL9qO1aYtRdYiGZ/8fhHW09MzjylYTElETk87UbWs18ZoDu3LiMGchhBBCCCGEEEKIliOr0LYg88h/FQVbrz7Y+g047nmjsRF0HSwWHOMuxjF0OKbHgxkIRrbrOrYePTHqa7Hm98TWsw9mfT3W7j2wDx6KGQgQ2rgBx5jx2IePRC8uxjFsBM5xl2AGQ6AoqHHxkd5zuo4SFYX72p+g79+HWV+P+4Zb0NIyMGoPozicOMdfhNHogWAQx4hRYBiE9+zGMXoMjtFjUNRj8l9FIby9EL20lOPGCZ8DLIpKg/H1hx8LIYQQQgghhBBCfJ+UR1IGnisjHs8OTbmW68c34hx3cevW8j3zzpqB7523jm44h95ZpaFGGmVVWiGEEEIIIYQQQrQCGXDcGhQVLS3j6M+medKcct+MiR4KoYdDmGZkfjpVtaBqGmrTKreGbmDoYQwjDKaJoqhoFiua1cp36i13TO2WzKzIY/McSu6aJFqcNAYlwBNCCCGEEEIIIUTLkwCvJSlNQ0tVBS01FYCAt5G9G5eTN3jstzrl4fJivvh0HpX7C4lz1OC0BgkbFjwhN95wNBabM7Kj7iPB3Ui03YOmhKn32aiojyMxuxvdh11MQkbOt7r+9tULaNutP87oONSUNFDVyHBfzq2BtHZFI15zcFj3t3YpQgghhBBCCCGE+IGRAK9FNa3warGhJiUDsGXJHPaufoeE9GxScvJQvmZPPE9dNYWfzqFq838ZO0Sn73kWGj0m5VUmTgdkpdWSEKvg8ZooKkS7VaoOG5SUG3h9kJqkEBNVzfrCHXw0bQ4JXa+i24jLiYpP/lrXN02TyuKdbJn/PLWHDjLw0htRk5OPC/DOlfDuiESLg3ojgH4O9jAUQgghhBBCCCHE/y5ZxKKlHJNmWbt2xzHyPMKhICtnv8DUS8vZvGIJO3dUktSmAzaH6/TnAYoK17L8tV9zRZ/VjOyv8MHSMNPnBdi2x0DXTfxBKK0w2HNAJztDQwE+WRmiuNSgqsakqFRn/rIwb38QpNFjctNEC9nuQma+uQR7XBbxqW2+9PreuhpWz30Zb+HzTB7byPylHroMHI3mcBFc/RlmXd3JjT4HKCioKHhkLjwhhBBCCCGEEEK0IOmB11KOGU9q61sAQNDXSEN1Be2zVS4YHGLJmnksnjmboJqExeYGdEzTJKxreIMOar3RmKqFaP9nPHC9nS92mCxYHqBvdwsXn2fhULVJ0UGDg+UGcTEK7dqo1DdGpqWLi1bYW2JQW2ditcDIARZSExXKKk1mfBAkv4vGA9fX8OKMB/hi6UAwdeKcDbhtfqya3jTPnYYe8mIJV3L5AAvnDbRwsEKj4fAhAl4PljgHtj798BUXHdPoc0ucZqfeCOI3wq1dihBCCCGEEEIIIX4gJMBrBUcCvHAwQMDbQIMHfAGTUQOsjOxvJax7ME1P87oWhmHi8cL9T3rp0FblrslOnpse4NLzrAwrsPLS235sVo3eeRYuGKRQ7zHZuE1n+ntByg4ZAGSnq0waZ+OSkRpup0JlrcmmbWEKd+ncfq0d04TZC4I8cZ+T5/+zhk07dB69zUWUW0FVI4UcWa/CojlRFPD6DRq9JgFPA+GQv6lt/fHNmRkpXOFczPBI1BwcNBpbuwwhhBBCCCGEEEL8QEiA11KaFrBQ4+JRExMBME0Dw9DZvgc2FOr8eIINi0XBesKr4g/AC2/56Z+vcdloGxsKdX56jZu4lJ4cauzIU39OQiVIzaHPOVSylqR4laxUk59ebafRa6IoEOVSsFoVYqNVGn0muR360W9oHwzFTlFxNekxu5iavJH1hQF+fJmd+MUhnv9vgJ/f6MBuO7k5ugH/eS9EfIyCaeiYRiQo1HJyUZxOTJ/vnAzvANyqlWjVRoMRbO1ShBBCCCGEEEII8QMgAV5LObIAbWpa8yZVtaBZbazY4MVuV9i2R6dH5+NfklDY5JFnfWSmqEy5ykEobNK7m4UDwVvp0P02ko7dOcHDNbefT8esan51u5M35waYOT8yX9uE863cONHOH5/3sXl3DAuXPoM7OhqA7lmRw7d98iK9uj6Dw2py40Q7/3rLz2+e9vLHX7iwWY+fz253kc6WHTqqCprVjqpF6lY0DTUlFb1of6QHnsG5NhUeEFnQoiEoAZ4QQgghhBBCCCHOPLW1C/jBaBoPq6UdDfCsDhfumER27DMwdHhvcYgTFzh9c14QxYSLR1lRFFi9Kczvnm9D3yHXA+Dz+Vi8cBF1dXW43W6ee/55wobC7qIwP7rYxl8edPLE/U6uv8zGzv06IR3+/tyzREdH09DQwKJPFuL1eAHoO2Qyv3+5PSs/11EUGDfcit2m8NrswHE1mSbMXRjENE227dFxxyQct/CGlpZ+dGf1HEzvAJuikaA5WrsMIYQQQgghhBBC/ABIgNcSjsmwtPSM5sd2VxRp7btS32iyaUeY+ctDbN4ZxjTBMGH+shDTZgbo2kEjN0ujuMzg//7h54qrb8HtdkfOYbfTpm021119Dbt37aJX714UVSRjmgoJsSq9u1ro191CXKyKw6awsziegYMGsW/vPq67+hoy22ThcEaCKKfTydXX/ZTH/+FjX0lkBduenTXemBvk7Y8C6EYkvNu6J8yHS0MU7taprTdJzc3D7o452sZjAjwT4wzf3NaTaHFiVeQjJIQQQgghhBBCiDNL0oczzASO7VanZWQ1P1YUhUETbsERFYPHC4Eg3Pt7H3M+CTL74yBPvOSnX3eNK8fbqG0wuf8JL4bpIicnB4/Hg9/v59ChQ2zetInaujoefvAhdF0nNiaGrXvtx/fmM6Fwr53omBh0XedXDz1EZVUVX2zeTEVFBX6/H4/HQ5vsbBQtivuf8HG4zuCy0TYG9bbw3BsBXnzLz7xFQX72uA9fADxesDujGHT5LSiKcso2npPjZ5soQKLmbO0yhBBCCCGEEEIIcY6TOfDONAUwTxduQXRiKhdc/wAfvfR/hIN+vH6TJ16MrOiaEKdwzw0ObFaFT9eYdOp2HuM6dOSO226norwcq81GXpcu9B80kMf/8HtWr1pFcXEx3btlkZp46KQ64mMMeuVnU15eTn7PfG6d+lPWrlnD9DfeZNu2bQSDQVJSUrh28mSKi/azauMKxg1XuOt6B4W7PLw6+/g53yxWO+ddfx+xyZnHbdcyMo+97DktRrNRbwTwGuHWLkUIIYQQQgghhBDnKOmBd4Y1LT4bYbGipqactE+7PsMYfdNDaBZr5BhFQVHghsvtbNujoyqwYJWNxFiDPp1K6ZqXDUBKSgoP/upX/PfN6dx52+2sXb2GrVs2UFNRyOBeQY7pFIcCDO6lU1e1lY0bVrFh3Xruuv0OXn/1Ne578AFSU1MB6NQxi35dykmICfHxZzZQoHCnzo2T7CgKWCyRzFfVLJz/k/voWDDqpPZo6enn7Aq0pyK98IQQQgghhBBCCHEmSYB3xh1NsiwdO6FoJ3d6VFWNzv0vYPRND6MoKqMvvBC3UwHFJCleJRA0aZPSwIV9VtM5eRGTx+yjTYaTutpaystKGTFqJLfcOoXCwkLuvvuXuG1VbNxuUFF9dP65yhqDz7fqRNtruPuuX7J582ZuuvlmRowaSWVlJbW1tWSkOrjhkoN0SlrIhX1W0T6zAb/fJDNVJRAwiXYrTLj8chRFYdR195I3eByqqp3UHsXlRs3MOmn7ucqpWojV7K1dhhBCCCGEEEIIIc5RMoT2DFNQmiM8a9fuX7pvxb5t9OjRneEjRxCoXciOvTqTxtipqDaYNNZGapKKpkKX3AD/fETjtTlBHnrgl2ianQXhMOFwiItGWrl5kp34OJVDVQZh3UQhMr/ewF4WOrdTMUx4b1GIF194AYvFwsIF87n0PI3rL7eRGOdDVRQ6ttWIcinUNZjkddCYtSDA4N4W8vPzCYdCbNu+nh4jJ5y2Lda8rgRKS76/G/k/LtXiItXi+uodhRBCCCGEEEIIIb4hCfDOsGNHklrzup52v7I9X1Czez3/fvlFZr3zDleOtbFgRQgUcNgVVm8KkZFiA6CiyuDzrWHyOqhcNNJKlEvB67eyu0hj534dfwBsFshKO9rBMistMp42EAS3U+FXtzvpmKPidip4vA72lhis3RymZxcLmakqqgrb9+r0ytNQTBOHVeHC86ysKynm/gcf4OYbb2LXusV07HfyEFqIhJWBhR9H7oHSNJRYCCGEEEIIIYQQQnxjMoS2pVitaKcZVqqHgix87Skuu+xSSkvLsKo1uBwKsdEKB8oMVm4IUV5p4vWbGAZYNBg33Eb/HhZyMjXSk1UqawzA5LYfOSgp109bRtFBnduuc2DRoLzKIC1ZJSdLo193jXHDbdisYBjg85tUVBssWxdm/0GDhDgVw1Bw2w5TXFzMdZMns2zGcwS8Dae8jqV9R45MwneuL2QhhBBCCCGEEEIIcSZJgHemNaVXakwsitV6yl3K9hZiJ8CQoUPJbZdL23Qfn64NkZ6i8t7iIH26WWjXRiUcBlWFpASVOZ8EueEBD9v3hlEUGNTLisOm8IfnveR3OXleuiN6ddF46kUfqgrD+lpRFdi5T+fGBz3MnB8kKT7S+y6sQ3a6Sv98C/OXh0hJUliyJkjbdD+57drRvUcPcrJSKd66/pTXUV1OlKio73z7hBBCCCGEEEIIIX7oJMA74yJjR9XoGDjFAhYAXyx9l5/97G48nkaSkpJom26wZafOgYMGDR6TxDiVYf2sxERF0sBd+3WeeT3AL25y8PaHQWrrI9cYXmBl8w6dnfuNU14HYG+JwWefhxk1IBImHq43eOvDAPdPcfDcm3627QkDEO1WGNrXSnKCgi8Au/cbFO7UyU4LExcby+HDNfzy/vvYsngmpnGK61kskTY33QJThtAKIYQQQgghhBBCfCsS4J1RCke64CnR0SiWkwO82kMl+Mp3M2LkCMrKylAUhcw0CyVlBqs2h1EV2F2k4/VHEjB/wOT+P3tR1cgI1duudbBkTYjaBgNVhcwUlddmByivOjlUO1Rj8MqsYGQxDA2qaw2Wrw8z9RoHNouCpinc/4Sv+VrBkMn2PToKsHpzmIMVBhmpGigKZWVl9OjRA6fppXTX5pObrllQjgR4CijyThNCCCGEEEIIIYT4ViRWOaOOdjtTo6Ii419PUPjpe/Ts1ZP4hATKDpbi8/mw2mzUNZoUlRjUN5p4fCabd0TmtSvcrVNda3L7tXbenBvE5zeZcL6NYAhCYZPoKIW9Bwwm3dnIXY95ePpVP0+/6ufuxz1ccUcju/brJMQpBEMmqgIXj7IRDJm8PDPA7ddGrrvlyLV26TT6TBo8JsWlBvWNYLXa8Pl8lJYcJDo6mmHDh/HFsvcwT+hip2gaqtt9zK2QmfCEEEIIIYQQQgghvg0J8FqIEpfQvKjDEaGAn+Jt65h05SRUVaWiooLPVq5E1aJQVdANOFRt4rArLF0dAqCo1EA3wG6Dx+918vq7AdZ9ESYlQcVqUXjsZy5efzKKUQOtrPtC5633g7z1fpC1m3WG9LHw+pNR/OFeFzarQnysyqZtYV6ZGeCxnzlxuxR0HYrLIr33Fq8OYbcpVFQbGEYkf1Q1N6tXraKiogLTNLnm2mup2LeVgLfx+AarKkp09DEbZAytEEIIIYQQQgghxLchAV4LUY7tjdbE31iH2wpt27aloqKCgwcPsvHzjajWFJITIi9Ng8fE7YT1hToer0kgYNK1g8aazWE2bdP59W1OolwKe4p1fH4TTW1a6CL+5B5vyQkKimKiaeALmOw5oGO1KPz6didbd+us2BCmV56G32/i9Zms3aIT41Y4XBcJ3xLjFDR7CjFSq50AACAASURBVNu3baOsrIySAwewWCy0b5uBp6765DY7Xcf+9P3cSCGEEEIIIYQQQogfGAnwWko4dNKmqgO7GTZ4AG+8/joV5RXs3bsXj6cRzZFNh7YaKSkp1DWY2G0KNXUG78wPYrcpuF3wu7uc7Dug89LbATq0VWmfreF0REKy6CglMu/cMZmZooCuQ2x05CV32hXat9HonKsybVaAbXt0HrnTSUyUgsMB8xYHOVhh4HZCXYNJWloa7dtqaI52NDZ62LtnL1XV1fzzuecYOXI4xYVrTm6zHj6mgO/1bgohhBBCCCGEEEL8YJx6WVTxvTMOHz5p277NK0hQ6nFHuQmHw1SUl1O0v4ha72UM6KmhuHuyccM69pX46drewkszAlw0ysrm7TpFBw1uucpBUanO51t1UpMU2qRrqJHsjjuvs9M7T+P9JSF0Ay4eZWVoX0tzjmaaUFKuU1ZlcsFgKzmZGgfKdNZt0YmLVvhgaYiuHTQOlJuEDDcFffuQl7KQWn86xcXzqKgox+f14na7+XTJUg41GvQefdXRxpkmRn39cT8LIYQQQgghhBBCiG9OeuCdQcd2OjPq68A4ujKsaZoUFa5hxfLldOvWHZTItq1bC9lfEmTIwDxcLiuDhw7nnY+C9O2uEdZh3qIQ/gD89Dceps8LoGkKnXM1MpJV1GMuqGkKwwusZKaqpCWpjOxvxaId3UFRIC1Zo3Ouhs2q8NYHQW79jRePz2Te4hChMPTrYWHm/CD9Bw7B5bQxckRfikqCFG75AtM0MU2Tnj17sWH9eg7s2Eg46D/aPl3HbDhmXjzpgSeEEEIIIYQQQgjxrUiAdwYd2+fMrKvFPGYYraeumrrKMkKhEB06dCAmOpqU1FRqD9eyft06YttOJSHGw7iLLmLtFgOPz8RmPZoBNnrhzXlBps8LsPeATjAcud6RX3WNBu8vDTLnkyDvLwkyd1GQ2nrjuH1CYZN9B3SmvxfgtTkB6hsjFRsGWK0Q1k1WbNC56JKLSYjxk9zxTjasX095eTmpqanExMTQoWMHQqEQ4VCQ6tL9RxscDmPU1zY13pQ1LIQQQgghhBBCCCG+JRlCe4aZRDqfGTU1EAyBzQ5AbcUBLDY7pmGQnpFOYlISgwYP5v1586iuqmbG7M9p2yaZvLwuxMcnsmR1DU6HQjAUScJMEw7XmcxZEOL9JSb5Pdpit/g4VFFOTZ1JTe3xidkfn/fzRyAhViEhViElNY2g4WLT5iJCoZPn53PaFRavChMbG09+jx7UVWxgzrz1VFRUoqoqg4cMITk5GZfLhapZsFjt1FaUkJrTJVJfMIBR07SwhaJIgCeEEEIIIYQQQgjxLUkPvDNMaQqujLpa9EMVzdvrq8oZfPmtOKNiiYmNJS4ujssnXoGiKHh9Pt54fQZd80eRmJREp86dKCk3aPSeOgW78qqr+dfL7/D4U/+huj6WW257gMTERFJSUujdpw+9+/QhJTWV5JQUbvzpL6nzJfLIn1/nXy+/w7WTrzvlOb0+kwNlBu06tCc1LY28/CG89NKrBPx+UBQuvWwCiUlJREVH43C5Oe/6+2g8fKj5+PDePZheLyDZnRBCCCGEEEIIIcR3IT3wWopp4l/4MVHtbgMguU0HXDHxbPj4v5iGQWNjI4MGDSI7O5svtmyhbU4OnyzeTN+B45h6++2s+mwVum6c8tSZWZnExcVxsKQEm83G2HHjyMnJxWa10rV7NwC2FhZimia5ue2YOeNtGurradeuHW3atDnlOcM6KIrC1Ntuw263s/TTjaSmprJt2zbS0lIZPGQI4XCYYDCIoihkdOiO39PQfLz/k/nNjxVJ8IQQQgghhBBCCCG+NQnwWlBg6SLck29AcTpJzu6It/4wqmahrKycNWvWcMXEiYw87zxeeuEFrrrmal564QW6dOnMhMsvZ+jwYXy6ZOkpz7vs02XcPGUKe/fu5dChQ9xy400UFxVhsViw2yNDdv2BAIau06ZNG4qKitizZy/de/RgyWnOCTBg4EBGjBzJRx9+yD+f+weTrrqSt9+awY+uuxZVVVm3di3JyckYJiiqRkrbTkBkuHBow7rv/wYKIYQQQgghhBBC/ADJENoW0LwAq2EQXLe6ebtmsWK1O9m+bRuvTXuVcDjMhMsmAPDJgk9wR0Xx6O8eYe6cd7llyq3NYdyJdmzfzsGSEmqqazBNk7179hAOh/H7/dTV1VFXV0fA7ycUCrF3715M06S6qoqy0lK2FRae8pw2m41bp07lww8+4FcPPoTT5WLxwkWYpsmEyy4D4JV//5sd23dgtTvRLNbmY49towygFUIIIYQQQgghhPhuJMBrAeYxGVbgsxXNj612B87oWDZt2sie3btZ9dln5HXtSnpGOodravB5vdTX13PvPfewZvUqCvoXnPL8hw8f5s9//BM+n+9r1+Tz+fjrX/5KdXX1KZ/v2asXWzZv4u477qSurg6/z0dVVRXJycn06duXnTt28OnST9m0cSMOdwxWu+NoG1etBJqCS1M55fmFEEIIIYQQQgghxNcjAV4LCxVuIbx3DwCqZiEluzNrVq9B13VmvfMOpmHQr18Bpmmi63rzcf987h+Ul1egqqd+yT6eP5933n77a9cx9913mfvuu6d8TlVVDtfU8Mzf/t68Tdd1TNOkX0EkRHzrv/9FN3RWrFhBXGoWFlskwAtt3kh41w4ATj1jnxBCCCGEEEIIIYT4JiTAayHNvfBCIRqe+Sum3w9Ah74jKCstJRgMsnDhIg6WljLyvFEnHa/rOrt37cIwTh+L7d+3r/mxw+EgLS2NmJgY4uPjSU1LO24I7v59+47vGngMwzDYvXs34XD4pOeGjxxBbW0tH33wIZiwc8cO2vcejqIomJ5GGv7xd9B1wESV0bNCCCGEEEIIIYQQ35ksYtFClGNGkhqHKgisWIbj/NGkt+9GUlZ7Kg/sxtPYyK0338xrb7xJdEwMDfX1X+vcNrsNVVHxN4WCl0yYwJSf3kpCfALLly0jOjqa/F49qa6u5rlnnmHB/I8BsFqtqKpKIBD4WtdxuV1ccMFofnnvvVRUVADgjI6nXe+hAPgXL8JsOFqz5HdCCCGEEEIIIYQQ3530wGspJihHIi3TxDf7bfTKQyiqRq8LrkRRVRRVZeeOncya+Q4PPvzQaYfLnkhVVHr17t388x133UnXrl1JS09j+Ijh9O7Tm/T0dLp3787U225r3q97jx5omva1rqEoCr/45S9ZtPATli5egqKqoCj0umASVpuDcMkBfHNngWmioMjcd0IIIYQQQgghhBDfEwnwWpBpKs2jVo2aahqefhLT7yO352DcsYlkde6Nqmr87emnycjIoF379s3H9uyiMX6kFbfz5POqqkrnLp2bf66rrWt+nJySQnJKSvPP9cf06uvUudMpQ0KbFc4bZGVAL40jT+fk5jJg4ED+8PjvUVSVtl0LcETF0nnABZiNjTQ+/SRmY0NTO2X2OyGEEEIIIYQQQojviwR4LezYfml60X68s97BFR3PkIlTiU5MY8LPnsTiiOZnd91N+w4dALA5XGzZCRu3hpl8mZ2bJtnISjt6JqvVisPhwGazAVBY+MXR6ykKyjHjd7ds2RI5p92O0+FsPgYgNVFh4hgrU39kp7hUZ80mA6sjGoAe+flMuelmAmGTC2/6FQmZufQZfRWxiel4ZkxHLyttOot5QiuFEOLby+rbnfF//AUDplzV2qWIVmCLcjHiFzdx4SN3EZOR8tUHCCGEEEIIcY6SOfBagWk2RVyGgX/eHNSYGPIuuhTNaiO7WwHjf/ooM5+6h6VLlmC1WklIz2HEtT9j3jMP8a//1DBprJXHfubixocaUVDQNI36+npGj7mQjz78iNemvcpVV1+Nw+E45pomjY2NvPn662iaxtixY6hvaDhuCO3Pb3JwuM7kiRf9WB1RTLjnUQqXv0/JF5+x/NNPqa2tY/xtj9Khz0gA8gaNwfPWdAKfzD/mOorEd+IrDblzMild2nFo+15WPPsGAIntsym48QrsUW62f7SMHR992spVtozzH76NmIzkUz5XX1rJwj/8s4UranlH3g8n8tXWE5WcSLcJ5+Ov9+CpPMwXcxa0QoU/HLYoF30nT6DD+YNwJcRRs+8Ae5asYcMbp161/Ey4/p1nyB3Wj33L1vH59HkMmvoj7NFurC4n79//RIvVcbbJ6tudXj+6CKvDftJz+5avZ+N/3//er3n7sukk5Gax4pnXWfznF7/RsaMemMKQu35Mzb4S/jHs2q88V5/JE+h04RDi2qRTd7CC/cvXs/6Ndwk2ek97jdyh/bj82d9ij3bz/oNPsfntD79xG7/MmT7/9+HLPtMnvgZCCCGE+N8mAV4rUAGDprniFPDNfhs1Lp4Og0agqCqZnXtx3SMv88m0P1G2p5CK/dtQNQvX/346y2Y8y8z579E2Q0NTFAwTGhsbiXJHkZ6ewfiLLuavTz3F2AtGc+HYsbRr3w5Mk507dzH/ww9xuVz8v7//jdKDBykrKz9uSG3ZIYNn3wjQvvcIRk2+F8PQ2bdxBeFQAFd8GpMe+D0ZHfMB6DzgAvwL5hOY/0HkYBNMxUQ9OtOfEKfVfuSA5r+gHwnwYtJT6HrxebiS4qgvO/SDCfA6jxtGcqfcUz5XuXPfDyLAO/J+OFFDWSWf/2ceB9Z9QfWeYnZ+suJLz9P9stGMeexuAg1e5v7ijxSv2nimSj4n2aJcXP3Kn2g3rF/zyktp3TvSeeww4rLT2b1oFZf+5SHs0S7m//bvLRKmlm7azt5l63DERlE455Mzfr2zWUK7NvS4/EJsUa6TntND4e8c4P3o9SfJGdyHTTM+4IOH/vKdzvVNXfbMb8mfOAZFiwwcSe3agU4XDCate0dm3/lYi9ZyNvmqz7Sp661coRBCCCG+CQnwWkFkkKnS3BXP9Plo/MffiFIU7IOHgqKQmNmOifc9w8LXnmDn2kVsXjSLC258iPN+/Es8ddW8OW8NKAp2p5v2GT62by8kJjae2+64HZ/Px87t23n//ffR9TCgoKkqF19yCV3y8hg3fjy//Pm9HD5cQ8e2YfYfSsZTV8WMD0IkZnXmwpt/hc3pYuWsFzEMnZz8wYyd8hsc7pimBpgEFy3E88qLx42WVUwJ78T370ivi5j0FErWf8Hal2dSuXMfnccOp8vYYTRW1mCEw+QOK+Dw/hLWvjKLhHZtyJ80BqvTwdZ5i1j94ozm8yV3yqXgpolk9e1OXUk5m97+kO0fLG219i147DmccTHEZ6cz+I7JAKx87g0OF5fhq60nJiOFghsmkjusL/76RrbOW9zcGyq5Uy79fnI5mX26oofC7F26hs/+9V+CjV56XXMRuUP7UrlrPzFpyWT0yqN04zaWP/M6eReNpOsl5xHy+dn8zvz/mV4jB9ZsZt1rc5p/Dvn8aBYLMekpNB6qIbFdG/pcdykWh51dC1eyde4i+v3kctoU9ADAHhOFIy4Gi91O/5smkZCTia+2IfI+OVTTHIYe6fG3b/l6DqzdQsGNV2Bx2Dm0bQ/tRw1k1ycrWTdtFn0mT6DrJaNwxESxb9l61k6bSX3pIeDo+zI2M61VeqmdCQU3XEF2/3wCDR6W/e1V1k6bRf6kseQO6UtF4S7yJ47BnRSPxWmn22UXEJuVyopn3yBncB/yrxxLWvdO+Grr2fnx8ubP3PkP30ZUSgKlm7bTbngB0WlJ7FmymhXPvdnccyomI4Whd/2YzD7dqNq1H816/P+a1JdW4K2pJRwInvS+PnLM2ldmUbI+Mn3EkR5HXcaPIOTzs/Pj5aTktSfsD7D2lVmomnbc56Z04zY2vDGXyp37WvaGnyFBj6/5O+SIql37AegyfgTdLxtNQm4WlTv38fmb89i/ckPzfqf7vh1y52QScttgi3KR3rMLYx+/h7WvzGo+zhETzdWv/Omk1/fLvqO+rq6XnkenC4dgGDprX5rB4idepPOFQ+kyfgTbjvnuPlXtx0rIzWLyW0+f9s+FI3We+D37de7bsf6Xvhu+7DO9c/5yOl4wCIhMtzLqgSm0HzmAhvIq1r02mz2LV5/UphPfF0d6zlscdqp3F9N+1IBT3l8hhBBCfD8kwGtVyjHjacHz8guYHg+O0WNAUbDY7Iy+8SHyBo9j/UfT8TXU4oqJ56Lb/o+ZT/4Ma+N+Mjr1ZFT3dSxZvYpNG90898wzfDz/Y9p3aM/YceNITU3FYrVyoLiIyqpKVv57JaWlpSxZvJj0xEbGDbcyd1Mepbu3ELDEcuW9f8XmdBPweajYv53xUx8jJ38QFmvTXHmmiffdWfjnzjouvJOZ78SZcGKvi/T8znS95DwW/v4fxLVJp8ekMaiaFpnnUVFoU9CDLuNHotksaFYrAG369SC1a0fm/vz35F85jgt/dyfu5AT0YIj0Hp3ocP4gPnv+Pyz6w/Ot0sZdCyK9yvKvHMeRVW4OF5ex+e0PyR3aj5/MfJaEdm3QQyFUVaPdsAKyB/Rk0R+fZ+Lzj5LarWPzubL759PpwqG8OvFOsgf0JP/KcZiGEVk1Gsjs040eE8dij3I139O2g3qTkJPJkidfauGWnywcCJ4UJo56YAo9Jo2hZl8JC//wT6xTnORPHEPO4N5Y7HaG3XMDrsQ4di/8jNwhfbHYbVjsNrpNOJ+gx0tDeeVxx8PRHn96KExdSQVdLz6P6LQkTNPE0HXKt+zgR68/ScfzBwNgGDqZfbrRcfRgZv70txTceAV9r78cRVEIBwKkdetAQk4WX8xZ8LWCidyh/YhOP37YdNWu/ZRu3PY93clvx2K3Na+Ibo9244iJYt20WaybNovcof3oNHoIjrjIvKhdxg3HHuXiwLovuPy53x03P127Yf3IGdKXt254INLDtGMOPa8ef/R92LsrmX268cbV99Dh/EFc/MT9xGalAZDRK++4mo70zLVHuylevfmU7+uMXnnkDO7DnLsf5+DGrSf1OGo3vABFUWgor6JmXwkDplxNQm4WYX8ARVXJ6JWHp/rw1wrwbFEu2o+MhBRHGKEwxWs2NYe7rc40m79DjnXew1MZNPVHWOyRP8/T8zvTZexwVv5zOkuf+veXft+2HzmApI5tgchQ3diMVHZ8tBwAzWKh4KaJx72+nUYP5aPf/D/G/f7e035HfV2axdK84JYtykVsRipbZn3MllkfN+9z2d9/Q4+JY1AtWnPtnccMY+0rkRDP5nYy/Oc3NNd47J8LHc4fxCVPPXjCe7iALmOH8c7U3zL07utPe9+KV206rtbxf/zFd/pu+L592WcaaA7wEttnM/znNzZ/ZnIG9+HjR//O59Pf+9L3RW1x+XHfn8fe33bDC/jPj+9r8TYLIYQQ5zJtpDvrkdYu4odNOfpbOERo4wawWLB06NT8P12xyRl06D0cf0MtjqhYNIuVqPhkSrZ/Tna3ArJdX/CLmxwoBFmzahWKXoWndhcN1Rs5XL6Csv2fUl6yiepDO1GNakr2reaCgQYP3upg7wGDKssIGmrK6Tf2OjI6RnqyBDwNdOp/PiltO6M2zZNnhoL43nkL38wZoIcjlZvHtUKIr6XnVeOJb5tBfNsMRt53CyPvu4WeV4/HHu3GNAwOrNlMcqdcBtxyFUYozLKnp/HBg38hpUs7kjvn4oyLofZAGdkDemLoBqtfnMGWmfPJ7NMVR2w0VbuKmH3no9hcTpI75WB1Otg04wPGPHo3SR3bUvjuJ7xy6VS8VYdpO6Anie2zKVlfSH1Z6/0FPLVbRzpdEAmMdn2ykoqtuzn/4am0HdSLos82Mu3y2ylatYncIX1I6dyOyh17ObRtD7sXfsb0635BoL6RNv164IqPpWZfCfFtM0jv0ZlAvYdFf/oXJesLyeydh93tpOizz5l91/+R3CmHuDbpYJpseuuDVmv7kfeDPcpF/qSx9LvhCvrdcAXu5AQUVSF7QE98tfWsfWUme5etJWdwH1Lz2tNh1ACcsTF8MXsBCx59hmCjl8w+3fDV1rPoj/9i+wdLSeqQfdzxx16vfMtODm3bQ974Edij3VTvLmbJn1/EHhNF98svxF9bz+w7H2Ph4/8gI78LGb3yUC0a2f3zcSfFs+7V2bxy6VT2LF5N0aqNzb2cvkqHUQO48JG76XHFaPLGjyCrTzf2LltLzb6SM3mbv5K3upacwb2JzUyl7aDeDJxyNf1+cjmJ7bLZ+t5iGg9VNwVsCsuensaWmR9TtHIDmtXC59Pf4+1bHsbmdpLROw9HdBSlm7bT6cIhuJPiqdyxj5k//S2+2nrSe3aJfE53F5E/aSzZ/fOpL6tk9p2PseOjZWT17YY92k1tcSnFqzaRN34EFruNXZ+sJK5N+nHv643/eZ/s/j1wJyfiq60juVMuPa8aR9DrZ9Gf/sXcn/+BhNwsEttnE/T4CHp9ZA/oSX1pBW9c83M+ePApKgp3U7x6E77DdV95j/RgiKF3Xc+Ie28i7+KR5I0fgTM+mo1vfYAeDJ35F+lLHPkOsdhtpHRpR98fT6DfDVeQd/EonHExDJxyFVannc/fnMc7U35NVEoiad07EpOWjCsxjt7XXnLa79tP//oKCblZxGamsnXuIlb+czpFqzbSZ/Klkdd3+17++5MHOLRtD1n9ehCTnoy3po69n6497XeUKzHuuM9mwU0TccbHcGDNZvavONq7rfZAGW3655PYrg3p+V0ouPEKBky5ioyeeVTu2Ee3S89nwJSrMMKR2mff+RhJ7bPxVEVC2ewBPbFHuSj67HPenvJrHDFRJHfOxR7tZs/i1Vz42ztJyWvPgbVbeGfKr6nZe4CsPt2Ia5uJOzGO/IljTnvfKrbuot2wgub3Z/fLLvhO3w3fty/7TO//7HOy++cf9+fo4j+9QGafrsRkphL2B3EnJ3zpn8P7V34e+f6McrF/5QamTbgNI6yT0TuP2Kw0AvWNrf4PE0IIIcS5RHrg/a8wzeZ/+fTNfIvwrh1E33EPiisyl43V4SQurU3z7m2796fbsIvJ6JjP8nmvc8FgKzdcYef6y8AwQFFBO2GNYd0A0wBVjfyqqTP4dG2IjPN7YLHZ6DLowuZ93XGJx5fX2ED9354ivG1rc1pnIMGd+G681bU0VFQBoGoq8W0zm/+VPxK82anaXcTSv7wMQNGqz8kq6E5cdgaxRZGVj+tLD7H+9Xf5/+y9edxlV1Xn/V1r73POvfeZhxpSlapMlRAyQwaTQAhzmCKjiqAtTq8Ddqutvq2fbhrtttvXFlucWmxsFaVRnABFPiDNPIRIgJCZylBJUalKjc/8PPfec/Ze7x/7PE8qJJAI0RT0/v6T1HPvPWefffZee63fWvuco3fv5dIfeCW96Unu//yt3P2R69l52QWc+bwrN4Sh8e1bEBGedM1VnPXcp4EIRadCVJk+fcfGFrwThZkzdoII2596Dq//xJ8B4DsVZpHZM0+hv7DMxd/7Mp77H35841rqtT5y3MtpDu/ew3W/9w5Oe/olPPU116Kzjr3Xf5G9n7mRw1/aw8kXn8fIpukn6hIfQm9mkt7M5Ma/9994O0sPHH7Id4bLq3zyt/+Ua3/95xndPMMDN+/mfb/wJobLqyzsPwRmWIgcuv0e9t94O0+65umP6dxNf8CNf/5ePven7+ZFv/IzFN0KX5W84nffCIB6h6gyc/oO9n/xS2w++wwu+8FX8dTXXsvKkTlu/dsPcc/H/vExneuGt72Lky85nwteeQ0xBr74zvdx14eue4y99M/H4d17+MNv/1EueNULOPuFz2DreWcxunmGi7/3pVRjI3z+7X+LhbhR4bXnkzcA6b5d+v2v5Npf/3lEBec9Ium/ALEJ3P2Rz7DnkzdQ9Dqc/8prKDoVnYmxjTF+90ev33ju5dkvfAbnvuy5j9rW637vHQBc9kPfweiWWToTY5SjPXxVMrd3/8bnt733o5z29Eva393L6pE5Jndu44ff/4cMllc5dPtdfORX38rRu/c+pn761G//KVvPO5Mt5+xi6YEjfPp/vOMJqa76amjhN6rlID1Lcu6++6nGRlg9Ms+t7/kQc/fdz+4Pfoozn3MFo5un2XHp+V/T3oamoRkMARgsr3D7ez+ycfzYBO7+6PXs+9wt7PvcLZz9wmdw6tMupjczycqRuUe1UY/GcHmVt3/XT3H+K57POdc+m20XPZmxLbOc8+3PZnTzNAdvu+thbX/H9/wswMZ9r9f63P73H2X/jbez9/obOet5V1J0Kk676hLGt28h1DV7PvHZjWu48LtexKYzT2XbhWd/zX6b2XXKQ9r6jdqGx5tHm9PH9nwZeOg6evDWu5g981R6M5OPug5vfvIZQOrfO973MRb3H+Ljv/FHPOmaq5g6dRujm0+MtSWTyWQymW8VsoB3oiCysX2OEKi/8DmW/vuv0nvt9+FPPW1D3Hvw68rF17waUcen13byK7//Zf7rv+3SqQTVRzg+raDXfjYYprfN3je3jcvOfgonP+ki1D3CcDCjuXM3K2//Y5q7dm/8LUt3mceDg7fdxZ+86l8DD77NrzebBJz+4jIxBHxZsums0zi8ew9Ft4OI0gyGDFfXAAh1/ZgC78X7D9L0h8QmcNNfvZ+919+08dn6FrgTjcHSMgB3ffgzD3nWk4XAyKZpnvFvvx/nPbf//Uc5ePvdXPnjr6HsdR9yjKY/+Bdt8zfCnk/csDEe1nnWv/vhh33v5EvOozORtnJO7tzGBa+8hhve9q6veeyi22HbRU/myF330Z0cf9jnsQksHTwKPDj2Fu8/xMf++x9i8cGney4dOMyeT97Ank98ll3PuYIt5+xi9sxTuPh7XsoDN+9+yLa+r8W6CLR6bJ5P/NbbHtNv/rkpR3tsPe+sh2yxe/nvvpELXvUCtpy76xF/87Sf+B4u+4FXMVhe5Yt/8T5WjsxtPMtxHbNIvdYHoF7tE+sG2jel9heWABg9TkQe2zr7qG09flwf//9LBw4T6obe9CTnAzhrAQAAIABJREFUvvQ53PqeD3H6My6l6HYYLK3wwM27efurf5rzXvE8Tr74PDaffTo7L7+Ip//kv/qqzzT7Sg7v3sMNf/w3PPPnfuiEEV+PZ7i8+rA3oj7lNS/h/FdcgyuLjW3QnfERRIW6X7M2v/Q17e3K4WNf9XzqlLGtaUt4OdqjMz4GZkycvJWzX3T1o9qox8LOyy/iS//wyY359dw3vJ7Lf+S7mDplOwv3H3xY20+/+rKHiKoWjf7iCgD9xZWNOb2+Logo1dgokBInriiIIdJfWCaG+FX7rV7tP6Sdf/vT/+Ubtg2PJ482p9cFvOPX0fW1FR59He4vpBehuaJg/KS0BXnzk06n6FZgya5mMplMJpN5/MgC3omCwbooJu0/69tuYfGX/yOjP/ZvKC+57GE/ce1z6S572U/wd7/17/iDvxzw+td2vlLre8RTve1dAz7xOePFr389zhdf9buDT36clT/8fWww2PixmSCSJbzMPy97PvE5LvyOFzJ1yja+64/+P+b3HWDHJecjItx33Y2Pabvb8dRrA7782ZuZad/UOLFtCwCbnnQa173lz06c51cdx33X3cjJl5zPrudcQXdynLX5RbZdeDY3v+uDHLz1TlSV0DQc27OP2TNPoTMxlsSRb2Eu+b6Xc+nrXknTH3Lvpz7PGVdfxlU/9Trm9z2AhYDFSHd6git//DXsvPxCjtx5H/VKn8mTt/Idb/1lgLRt+Gtw/Nh7+r/+Xg7eehebzzmDpQeO8J6f/GVe/rtv5KQLnsQDt9zJkd33Mr5t88Yzuh4rh3fv4R9+MW37PVGqty78jhfynH//YwyXVzlwy25i3bDz8gvBjKN37SU0DWZG0e3wlNe8hO0XPZnVY/OIKmEw5NAd97DrOVdQdCoGi8uP6Zx7r/8iOy67gNOfeRmve/fvod6x/SnnfN3XcMu7/w9nv/Bqtp53Jq/8vf/Ey37rDenZZe3CuP2p53DRq1/M3L33s3zwCNVoj5HZqX/yeW5427tYnVvgrg9/5utu678ke6+/ibl797Hl3DN5wX/+KZ7y6hez/eJzKbod9v7jTXzuT97NjkvO+6r29ujde4ntG0tPueIpvPQ3/wM3/eX708FFOPtFV/M973wzvelJtpyzi7WFJY7ceR/bL3ryN2yjdj3nCl765n+PescDt9zJ2rEFdlx6Ps57lg4e4QvveC+nXH7RRtuP7vkyp3zbhcQYH/UFPcevC0997bXMnnkKE9u3MH3qdhb3H+Lmv/kAo5unv2q/7bvhFi593Ss2jvd42IbHk0eb04/Go63Di/tThbQWnku+7+VsOvt0Zk7bwcT2LSzuP/SQRFkmk8lkMplvnCzgnYAcX+Bma2ssvfnXqK66mt53vgadevh2hJ3nXMKVr/wRPnvPTbzht2/kJVcHxnrC9q3K5Fg60OKysWdfYDCE935c2bt2OZe/9Mmcet7lj9iGcPgQq3/+vxl+5lMPVga2DXs0gTCTeTzY88kb+NB/fQtX/8wPMHPGDmZ27aRe63PLuz/I+9/wGzzt9a/9Jx/z/W/4DXxVcPaLrmbXc64AM5YPH9t4zuOJxkd/7Q+oxke56DtfxClXPgWA/vwSriz40j98kvNe8Xx2PetynvXz/w+DxWWa/hD9yr3z30KcfPF5XPFjr6Ea7XHTX3+A9/3Cm3j1236V0552MVf++Gt438+/ifuu/yK7nnU5u55zBdOn7+AvfuAXuPXvPsQFr3oBkzu30QyGHPrSHjafffpXPc/xY2921ynMnnkqoa5Z3H+I6dN2MLZ1lqlTtrPprNMA2rf5vv+fXGHzRG2r+2oMllZY2PcAs2eeylnPexqQKmju+cQNfPhXfp/Du/dw54c+zYXf+SJOvTI9i/Fjv/6/OHDzlzj5qefy4v/2/7I2v7hRbfdY+Oiv/QGjW2a44FUv4JQrLiI2gcX9B5ncue3ruoajd+/lz/7Vz3H1z/4g2y58MhYjh3fv4ewXXg3AxPYtVGMj7Hr25RuV70fu2stn/uc7/8nnuu1vP/x1tfGJ4Ojde3n/f3gzz3vjT3DS+U9ifNtmQl1z98f+kQ+84Tc5vHvP17S3ALe+5/+w5ZxdTJ92MpM7TmJtPlVfxSawNrfIGVdfBiL055e4/q1/wXVv+TMmd570DduoZm3A/JcPsPW8szj9GZemP5px4ObdfPCXfod7P/35R2z77vd9jHs+9lnOecmzv+bxj18Xznjmt4EZx/bs42O//ofc9FfvZ2Hfwa/ab6ObH3zcSHdy/HGzDY8Xjzanz3v5196q/mjr8PaLktjeDIb0l1Y2nuO6dPAoH33TH2xss89kMplMJvP4IL+4+XJ79K9l/qXZ0PDkQTVPqorRn/wZyvMvgkcQHFYWjlCUHd73ll9kovlHFpeN//GLIziF1//iKmMjwhF5Ki/60f9EqAeMTD7CNqUQGNxwPcu/82Zos+1C0u7yxtlMJpP5v4Mzn/c0fFVy90evP2EqBB8rL/3N9KKCm/76A9RrfZ7xU69jx6Xnc+Dm3fzP573uiW5e5hvgtKdfwsjs1In11t9vEv455vT6oy+qsZGHbdvOZDKZTCbz+JMr8E5Q1rfRij34llobDFh+85sozr+Q3qu/B7f95If8ZmQiCXIv/vH/zMff+TvUtpef+9Uv4hTWOhdQTJ3ES17705SdHjD2sHM29+1h9c//N/Vtt2yIdxhYK91l8S6TyWT+7+DOD37qiW7C18WOyy5I2ylP3c7ZL7p64+9r84t8/u3veQJblnk8yBVdXz/frHM6k8lkMpnMg+QKvG8SBCNpeW01XrdH9zu/m+rKq9Cxh4txw7VVFo8+wAfe+ks09ZAX/9gvMz67lbI78rDvxoUFBh/7MKt/8xcwHLJ+FuO4F2tkMplMJvNNQNm+dXr7U85BnTK/7wFu+ZsPcnj3nie6aZnMtxQzZ+zk0u9/Bb5TceOf/f0J9yb3TCaTyWS+1cgC3jcTYmDHvT1CBLf1JLovexXl065CHuFBybs/+2FiaDj78uc//Hgh0P/oh1j7u3cTDx96qFiXR0Umk8lkMplMJpPJZDKZzAlBFvC+GfnKvawiFOdfSPfFL6U49zw4TsgbrC4BUPWOq9JrGoY3f5G1976H5o7bvkK4y0+6y2QymUwmk8lkMplMJpM5kcgC3jcxBg99I6wvcCefzOiP/gR+56mP+JvmrjtZ/v3fJjxwEELzkINl6S6TyWQymUwmk8lkMplM5sQjC3jf5KyLeOsvvQCQsqS45DI6Vz+b4tzzwYzhTTcy+OiHGX7hc9DUDz9IJpPJZDKZTCaTyWQymUzmhCQLeN8qfJXSOT15B9QN8eCBh3+4XnKXR0Amk8lkMplMJpPJZDKZzAmLf6IbkHmcsK/4R7u3Nu778iN81RCTR/hdJpPJZDKZTCaTyWQymUzmROPhry3NfAsgEDf+L2Ht+ymMB8W7TCaTyWQymUwmk8lkMpnMCU8W8L5VabfGxuPeMJtlu0wmk8lkMplMJpPJZDKZbz6ygPctjiB5m2wmk8lkMplMJpPJZDKZzDcxWcDLZDKZTCaTyWQymUwmk8lkTmCygJfJZDKZTCaTyWQymUwmk8mcwGQBL5PJZDKZTCaTyWQymUwmkzmByQJeJpPJZDKZTCaTyWQymUwmcwKTBbxMJpPJZDKZTCaTyWQymUzmBCYLeJlMJpPJZDKZTCaTyWQymcwJTBbwMplMJpPJZDKZTCaTyWQymROYLOBlMplMJpPJZDKZTCaTyWQyJzBZwMtkMplMJpPJZDKZTCaTyWROYLKAl8lkMplMJpPJZDKZTCaTyZzAZAEvk8lkMplMJpPJZDKZTCaTOYHxT3QDMpnMNydvfMtnnugmnDD80o9e/kQ3IZPJZDKZTCaTyWQy38LkCrxMJpPJZDKZTCaTyWQymUzmBCYLeJlMJpPJZDKZTCaTyWQymcwJjFx33XX2RDcik8lkMplMJpPJZDKZTCaTyTwy8rRrf9DEBBHBVPAmYBHDiAJeIIpiMSIYUQVMKKPRCEQJ+OiIgACCYOkr6S+iiAo+golRC2iI7fcUDREDokt/wyJBBDXFI5iCIoQYaYio96gJAkQxCJEohomgTQQVKBQJYNEwBSOgKKaACBqV0DZPDQJggDeIQEMk1g2ucOCUIhiCYoCzdG0RQwBixDRduY8gKjQEXFSiQJRU5hgBRPGW2mBEfACINCJgoCbUPjVGghEU1CJFgOCEWsHXAVMlOkGawMpwleW1Y6wtLeFEKToVa4M1bGVAv24444yzqHwPnMOpS/0ChMLhYkz3TNNJNRpBQETSdQkEEZylexskpkET0jgIKhQNmKTvYiBmDAmIpb/jPIUWWBOJIohziEFjEfNK2Rh4pbaAAiqCiWyMo+AU30SI1o4pQyOYGbVXXBPwLt1PDYYIRAUxoQhCrRGnSowBJLXZNYaqUIuhAQrniQii4COEGBHncO14qBUcYHUkqAANhHasOU8VBFPH0BkeS+PLpd8QITpJ86NpEG3nWhNxpP4VASdCIzF1tGnqY++QCD4Y0bVzyaxtg+EbI/g0Hn0wzIygCmap/9VQE7D13wuFASHQFA7XpHvdSJoj3nRjLrgYiTEiqmhMYzaqoAbEQPACqrhgaTyrO25cgMaIGKg4DMOh1BKIZngz0DTvnCmpRw1tZ1kQwwwKS2MhWYhULBzbOeuAZJEEldYuAS4kWzDUCAbOBBNL37T0+1qNIqbzmrR9hBFjut9qEXNCNMMZBBUaMYooqBm1JttRBaHGMCdoNBAHls5r0QgaEaf4kI4bCcR27KJCjIaLoIVCuhJAiLGBmPojutQHDqWxJg25YEQxQowU4jF1RIu4CD6mz+YXjrDv7jsovKM7PUGYX8aGATfRZf7YIheddylWlUTA45KNUodYum+SOgfWx4cY3oRA+tBbGie1RjS2bXKKyfoaYphomkNiBAdqRmHJLppTNCZbjyhEQ8SIku5jejirEjFS7xhKumcAjaTjq0GwiEi6NwI0ZqiAojREsEgZU5tqn46i0Yja2ixJYzlKmv/Rkq1TS+OxEcOipc8EUIUYUZHUfgSPENKExotitNeG4dr1qx02DGlSH7bHMxUkatuO1O8SY2ofaayapvVWLdmAdGsMSWYNc4o0kegdZmktM0u2EDG8CMEEk0gVU782Ci6m8wVJfScGNYI4wcWQ+loNH9N1NhJTXwDmPIrgIgQLWGvHiEatQowh2RFA0I3rp/DQBJwIay6ioV1XNfkgLjhE05hLzkS6DrWIWbLBIq0dd8qQZNcE2jWTjbluCGJpzAYiKmltQAQh2UxFiETEUhsbWfdlko0SFXxoiGj6XZrimIMYrV2zUoc7hIZI7QxfA2YEF5EGvDhMoLGAhLQ24gscIKY0vrVhlvqzsYizdGFB0tpqZkQszVszkGSzXUh91JdIx6S1EZEGobRkc0wVNcNCTL4EPDgGBaQOGGmuugASoFHAK65OZ41CWvsA84rWDfNH9nNk7gidjtLTAryj0xvhyIHDrPSHnPttV9IMGlxMY0YEypiuKXhNfohqmoMhIhYx79M4M6FxIOLwTUTEJZsYGwQDdRAl+Yia1v+i9SkHlaB1xCNEFBPFm9EA4hwaks/RuNQPitAohBDTOqe6seatzzEXIhZTP4imNkUnNBpxTWsbVJBoqCU/EREIEF3rv7RrZtTky4hziDpEBQsx2S9an0eT/bcQkr1Rhw9tvwiYgsRIo2zMCUQIPvlDqkrdhOT7kcZpBDSE5Hd78HVaM5OvZ6gZjRcEhzchrk+GaHhNfSTRkChEhUCkQAmtL+vMkBgR9elextYREk1zDogqFBGiCA1pfVZLtsai4GNaV1tnMa0nqlhsNmKEYd1w0niH+YXDzPUHjOgYRVlCVSGW1iETIxBxGFoUmDhcTGvJUFNfOJI9WV0+ylPP2ZXuhVO6Vcnc3BzjU5OowuLROaZnZqibyML8PLOzsyyurUFTMzE5ydrKGuagKgoUZbUJqBidTpfV/pAwHDDS7YJzLC0vMzkyhlPH4toyI1UXs0gTjZGREZxzII57772X6enNQGD/wUNs2bwZC5HFtT7dbhdiTb8/wLzQKypW1wYcW1xk6+atDPurHJubZ/PmTdSrK6w1NahQmcfMmF9dojsygjrHvv0HmJ6aYqxbcWx+Hl9WjHV7hNBwbGmJLZtnKJ3n0OEjTExN0ut02X/gAaZmNzHe6XDg4ANMzkyDwcG9ezlw+ACzJ29ndnoTsYmsDdYoq5LSKcP+EBPoFiWra6s0padwHoYNKPii4CPv/3sGwRiZmeDwwYN0ncd1OjTNkFHn6Y6Pop0uMujTX1vDVV2aZsD02BjRIIrDmjrFj+qwQU3dBAYWks2OQtGtGISGnnp84ZNVjZLGbOlpBn0q74kCTQw4gyYaFJ44rClEkKJgWNcoxvTsDAsri/RwiCi1CoU4nMCgEAozShECQr/fx4cAKMF5rB5iGNIpYW1Ir9MhOMfy0iJrx+apqoq+RQ7cfQ9lVbLl1B0cvv8QrjboFkSgbAIBGN28iThs2L5tK0Nx9Ffm+e5XvYI6RN7+zndSBqVfB8qJMfpz80g0ivFRhisrqAmNc3RGejAYYCi9yXGalVVUBDc6AnXEiVD0utSW4lj1StHpEJoGJ+DLLiIgMeCKgqiKM0n/366TEsGKZFcrE7QqUV/QFeFZz30md969h9lNm5gYHWV+YYGRXpebPvtxrvv8dawQuPTJ5zM2Msa+Qw+wPD9P5T1TU7PMTExzy+ev58jhQ7z1d98CMfCzb/yPDLolv/DD/4ZedxT1jj9/518yPTPBc5/xbP70j/8XM1tn2X/wKFOnnMIZJ53MLbd+noW1Ze6480amx8fQsmLu2AJrC0vgC049+wwIA1YXlxjpjcCgIQxWib0uoR7ihmuYMyZmZlg8ej+UjpEtp3Phky7h2L4D3HfkbqDi2KH76YyNMrP1DK684FIGy0vccscdxCYSl5dYHqygvTGufc7zufHGGzmwsI+dOwtuv+lWetM7WJg7xuaJKeaWh6zNR07ePMKRpWOEqsNpO6bYf2iege9ANKZ7jk63YGbGcfapZ7C8VOOrafbt3ct9h7/MztOfwsriMfqri8wtDFjuN6wsHGNxqc+2U3cwOeo5afMI3dKzaWaC+/bdQ38oaOywtnwM3ys4OhcZ1JFmbchyXxkMIpefcw5zc3MslxXTVYmo0i89W0dKbrt1N6uNILHm2udfw/U3f46tW7eyY2YLT7v8Ku7ff5SF+cOM93rcsft2OpMjbJ3azL177+Hss86jW3TYuW0zt918Oytrq1x0yVP47Oe/wMrgGMcW9mEeiKs0q0eZmNlGf+DZvulkTt9xATtmN/MQovEHb/0T7jx8hNWVNSpRcI7oPR2G/PIbf/64KOSJx1e+SEGbc0RxyetvnWEX2wC/FZXa+AQMimg0LqJWpO+1QaSiGLYhBgZJBlQtUktMwVNhKfgWSUIOApICR5AkxiCEVpBwlhwdr1CLIMS2HYJXQ6QVSNRaJyct+JUKjQpOkoNnJGHAiyZxKZ2WqEYtittw5Q0nyShGleSQmRBFKSwVLJpIul6DJqbGSQQkouIpAqBKIynwCxaJ3qfAAkCNxkgBv0IIqdOjShvMRtQn0aKhDRwNxBVJ2GqDERc8dROwYY0GsGGN0FA3fSQoRbeHt05yLJ0iLsXLooILkcqEvnNEdWhsCAI1ShHAO0BpRZokOmiEgsjQgxMoVAit4GEh3ScVINQAxKJEUZxEwFpxVqjUYwJFoTQh0NGSVhsmaAq2SoRoyUkUJd0ZVSRGCE1yzL3DiaTAX5ND7oFohqrDEQnepeCsdRilEhweNJ1PRfExEklOtQFBlRBTAO/aoC26iFPBqLBmmIRBEaxIAaGqgCUxJGh7rpiC9cYCzncoTJLw7A3VgmixHUvtuMIoTJBCGEgK1F1IwZNqklqGGhGFJqTfBDNEDa8uCRakvkJSQFTg0FaAM5HWuYZQKL5JgahgxBgxhQGBbvA4YOgFYrIFwSXFw6NYNNRJK9olMcBbElSs9bu9GdaKWkmE8qk/jdRXrfjtWwEhShvIA7T3zyLUEpINIQUXqLTCRQpWlOSED4lJMIqgzqcgNKaxiSoaoDIoW5vhEAbtgHVt0JfsnmEWqEUozQEksVehEGgIROfxQBdoXLJ60iY9DMNcmvOKgjXJRomHWLeJCgea7EeMinqXxqfCwHl8E5BgmLokikUhqsMkJjFFU/BLTH1thRKbhlKSUKpFgXclI2WHsurQ930QT9QCJwVl1aHxBSKahGZNQbILhhOSoKMes0iBbNwb2iSOhGRjy/Vg1beBmXe4JoA6olN8sGTPnaZESxtsR01iY7JFijUxBbBeaZokJjfr9zcCYpgHi4IzxbVBfEqCJLG6aMUeEUWdIUEQlxIThSUhrhSX7GuIqFNEFWlV4SiCRsGpUmAQAq4ViE2SUGXWtMJzEo8plIIUcDbqUJ+WUBS8RcQEFWEoARfaNdWV4ARt2mSQS4kESH2kqriYgkuTgIY0unC2IT4GTWKZi8leRhGcS+NnXdAXUuLHhLYPW9EcwYkSNRJDmo+uFU6TiC5ATBeirQjYfk+dIjEJ8mFjXYoo/rgkDqhENDo0GmKRwpVJRGrFTXXp+04VDYZvxZOo4GJK4DSagnrEoQpiIS2X6qglzXWzZENCgEIUFOpWhDZNa74YG2KKOaGIwrAV8AoTamkFmSgorhVYLSXuNPkh0XuiJO/AWcQ5x8DS2hBjOlcjloIUBLNAdNYKog1StuuPRRpVyqioS8Ghw+Gj4oltQgFQR3+wRqkeRQnr8r6kpGYQcJbE6aBQtLay55J44pLZTomVWLdJA4eZIS5SaLp5PlqbJEn+E0QaTWuEbyyNqfZcQZJdow54jOgcIg4tqpQcGhnBx0gjHul20G5JDA1Fr4NJjQ8QSkVxEMC8RxSIkVpIPlQT6USoffK5XDCkHcPOpwSCOYeZQy0ld0xok70OI+BCey+84CSNaWmTh85awZUHkz1Okx8orR3xpARFaG2eW/cHCoEmoCGirXAqZZvHU6jqNMfiun8fYvK5AJqA9z4lIlqb3bg0R9fbXniPDZIPFiW0Yyf5mq71jSHiPBRRMC/EkNYlJdkE79PcEZfGfGFCWQlDC639SokLDYATamc4b0RrE2eiEAXn0rgX2gS0JJthbWIwhkiFpiSCWBsrAJqSGQRr026CtX5FWj3a9b1NYJFuexLZWzsU2sRZFGgQcE1bSAAEl4RsBamExikzm7eweOQIEY+UFaEqklgZHSLgC0XrmGIUJ1ibbBMLiEQKLWgM/EiPbaecyqHDhym6I4z2RhgMjE5vkmK0w+owUoyOE5uGqe4YpiXWCFObp6jXlomdLhOT0wwWjxG1pNMpWF1ZYhBAfQGW7LQXpay6rQBrBFFWmpquKwku0A9DxooOITTMLa8xOtpgRAbRWB3UeE3r1nA4pOuU3sg4g2ZIUMfoxDhrVlOOdehUns5Ij7LToRgfR1XYd+gBJiZn6FYdhgf2MTE5TakeV1XUBuPj41TjUxybn6MzPpEKObodpCyoul3GIwxDw1i3y/TkJJNjowDMbJphanKKY3NHWV5doHBC4QrGig4mDWVV4IqC0pS+DtGioFeVeJ98kU5RMVhZRQqHemG4VrO2OkCDI84PWaXGlTVVz1HHIVo3SGeN1bm51J+jQyKG74229ixiMeCCpxytWFlYwZqGfhOp26KI6KBC0X5DNaK4qmDYX6V0KVHWrxsKi6CeQYj4aFRO8K6gXw9wTkGMOBxSKIwXSkPyEVUV7xwlqVigFIeoUpnRFyOqwyOIQd8r0ZVUITBE8Z2KXqeiFmXY6zHs1/iqS6UwtnU7YAycp3fSZtww0CC48RFiv48n4kdGibHBTUxiTQ3FFKsWEKdU42NgStEEit5IinGbBisqulWXGAJlUVCNjND015IZ65QEFcwJrjeWEhrDGqoSbX1BXxTUzqFlivcoPSaShH0lBZMx9UsqxEjxsqogPhVRUHqCOsRX7N23jyENZbfCVPG9DtVYl97YFBddeiW33XsHk9NTzE7NcnBtmZXFeWJH6HVLPn3HjYgK06fvojM6xrHDh+iOjRPVc98Dhzj7yTPUQ+MZz7waLUuKXsGR4TLn7riCl7/iu7juC59nZtMWXnrtd3Lw8EHuvn8vftMEwwaagaHiKH1BoxW9skfVmWLYGJNbRjl86F5id4QYaobLDWNjPcLUJKOTFbGu6Yx3+exd/4gNV+h7odQu5dgEvixZGjTc/uW9HDt0gLHJGU6a3gzDmrm5AxxcXaGcmGRuZYnYmeTogqc7spPRsUk61RYufvK5fPzT1zG6Y4STZmdZuOcuwojn2NBTjU3TmKeoPNBnenacsTHP4uoKVa/LrXfeRNmZgqLHXfv3MFweMDneoRrtctLOUzly6B5mZscZ7SpxaZ5dp25j/759rCwvMFopk2WXqYlNrPQLVoeLlJVy9237map6rPYXOOvkU6kXj+DjAN80HF7ax9iow1WznLptG2HBc+/+mlN3PolPfvj9zGzazLH9e5jqeN73gb9juR/4jmtfRSXCxz71MZ77lOez546bGK4epas1e/fcxymnnMymzdt40tQ43aLi9O07+Pind7PSDKl9oPSBkXIHT7/oWt79t+9i+/lnsm3LNka7nZQ4bzGD8YkJ5MhRnE+ivgm4siLGwNjY2Dcs4JnZQ875jeAHvWojux5JNQ9oW73TpKxcrSkIsiiYc0SF2LSVTsFoSJlgSBnvQAO4lKGT2FZdWVulkIJwRbCwXnfjCBrxphRRGFig0hRY1m1lhIQktBSAazs1qKJt9QVEVNtqHZW2MkQpVVOHaRJnJBoueoLG5Cg4SQ6II1WOkBwf1VRlEIrkwrSxITFGClJVllq6ftdmQjUCIRLUiJWnaZ3AFMinwSFbaMnwAAAgAElEQVQmqK1XV4BGR8QoCkVCRMwoRIlaE0wRpxBCEjnU4Vw6R6GgGsD6lE2g8Ip3QuOEkhKrU/WPdnuE2FbpOEOQVK3llKYEJYkCQYQYFUxRlZQ1VU3CWWgrYlqhKVYPBoohJMEjKFiMhBCJKrhYbBh2s4DWrQPdOrR1aPCFwxqj8EU6XjAKAeeS2CGhrUzTkBxOUYIqsT/ARSW4JM6WKKVTIgU+GLQOP8GS06mpeq4UhcIRSIFW01aydXDgrBWwA8EazBUpWxmVIRF8yiaJtFn6JuIlZc98TBklw2GFR5tAael4Ih4RoduOR2kFT9EUiDv1mEIpyjBGVEkZLTMKhYDgNeLbCjMfHAUQ22g5FewkJ97M8E5SlUmTxE58qiw5vkonFfYItQP1tIGjJOETo3SpAqCMks7lWnGyNTplK6riNImuMdK0lUxOUgULksaMRVJ/RxhiaCGUTQpFKp9EEImRcr061pKwvV5F6Z1QSgqUXRCGajhlozrSRNJJRChcGqwqRqEpkJZU1tmqXA+K5CKpQjMFrYaPScCrHWgTiaZUzqfqqWZIz1fJzrRVnuYETwo6zCehKFXatYGL0QqmyW4ZbCQdxCnqUxY8VZIoop4iJglRXLJx+DZYcoI06xVBAV8kUSh6Rx0aFJdEC9+KL+oIfY9WJX6kS2diCnxFb3QEugX96svUoyWNOcy3Qbh31LEhDgGD4CPiKsyaNrhvRVvV5LgOIl6EAakyyqEELwxDQ1WVmMBAjRgVCbLR76pKaEUHCeCdY80irpI2YI2Ypqw16giWpAs1MNI1YikB01AiQBFh6IxVMVwjOJV2bWjHIqkGG5It9uJTJaUk4brCEyQyFKMQT8Cow5AengGRGgMtcKJoqGnaukAlzYkhEHAEAiJGGZWAMXSWBAiMBp/Ga0zivongS2mTRGCWRIWItY59ErVrTWJUEYVooa2GUaJFapItaCTZA1+m6p+AEUMKTiCmKnl8qupSZa0VEWoi4lPaqo4kBz+sK/CKU4dZSOu7F1xMVcvtNMIE6hhwvsRFo7ZApR6ipSr0VFONEVgjUuFwwKCda17aAMgZTtp20IqECEoSyiTUKSHT2uRUz9eKxxbxrXBQRKURCC6JfSnVl+xkgSPGJq1/KlSS/AJt13WTiGnEa9EmbsCnQZhEI2JrNxRtEzqVBBBL1WPt/HZIqg4WEAm4YPTxqLQOQ1uZ66JRaDepF0nHSAktlbSGmiGFUbSV/+IUJFXGWWvbCjNcjPR9qtwqQgqGrJ0TZsbQSxKozRiItb9L/WVm6LCtWixA6rSWhAJ8HVOyr3LE0CBl66+oEcuGpvU5IiVj5TbiRInveIZzy/QHQwb1kNApKaMxHNSILxARfFJ5Wj/AUPVEQhIjY7Jd4pLv55wjaqSydF/VJz8rOEWDS7s6WtG3iqm6cc076pBEukKS35eEcVq/RNtqY0GSmg6a5rSEJA6L+CToqTHUJK6X4ulbDd7hnacWI6q21WXJzx0WyX+qY52EgVKoLSWzy64wjKlqvDIjEOhbzYiUDMVT25DCgXY9wxCIKB1N9i20XSMGtTSIKoOQ5q/zaa4MHNQEGlNKlDoGfOFBoAmBxgJeCgiRJga6RdkOuwY6KcHuSfNeY5tY0LSmGUYNOK/EAIjhPTjzpHoiY333zHqVragSJI1BFyMi2gqCqSI2CFCk6sYgbY19VJwa1or/HsGoqawCS0lC05jGrUWoAxaMLZtnuO/gUaR0OOdxFDjv0HYeD2JgECNjVQ9zaZ1x7b1w3lOgeIHhsGR+paaqehRlhSsKtCypRkaJBpXvMjY+TbO0RBBjpDeCFg7vK1zXU1pNPWzodEYR5+g3RtkdpdftEMSYn59jemKSCCwsLDLeHcN7Tx2NbtGlcEplkeiVanSE4WCIdktsrIs1Dd3REdxIB0EoOwVx3W6rZ2VpiZmpKVzhKXyXZgij1SjIgH6/wXc6iDh6I9P4zggiwtj4FEXVoesL6rpGioqx7ghdXaazeRPjo2NINFbWuhSFp1tW1P2G2dkZRBSpA+NjU1gT8LFgsjfBvnv24C3SpaDnKqqqh+uA1WsUZUVlSn+tT2ekpNvtUQ/6FGVBUZY0gwHeOVxRtqK7S/fAO4pGqQHvO+hwiMfR7fbQYY00gC9ohjXDJkBREE2wtQarFOc8C/WQVBzi8a6t+AxK4xxW13RRyqrD8twcVbdDI8LAoBJHA1Amvx4VgmvXgbaq18wjqox2J1hYXMGLok7R0qMhFSKYK1PymlRJb97wTSREo1OWWH+YEtFFRVhbo/IlXpTGDRk0RrAhvZEO+w4doepUqCuQUNNfWUl+WdMwnJ+n9DCcGKLO05mNxNpwOI4dO8rZu85kvFuwMrdGXQ+JKHFtlRAsJUy9ww1q4mBINCHUwxRzuwIMdBhRGSC+oHIFhatoPIi2FXk+JekKbeMgUtWd+rQzo3TQ1YLVWINrK/IkrQFVUeC1wMqSbuEZ6YxiWjIxMUOpxqbpaZp6SFFWjA09p2zewfadu7jjpi8wXFtipjfCA/v3YUuBUDeUqnz7C17Im976+xTDmt/9b7/GsWNz/PV738ctd9/GFU/9Nt77kb+nv3SMXaeczste+DKuuuoq9h56gCPH9vOFu27mR777hzhzx3b+6I8ahvN9QtPQVSVUHQoPw36fqy5/BtQNgzBk3+F7GZ8tWVxcRWPBIKa4k36f5cUFpqY8Z22b4bM3HyOsBrRWfKUM1yKriwvoUNh9+ABmAV8EPnXnjZR1YHJqgqqa4OJzzqWqa+7afy+vfMkr+Kt3/jmd8S7f/arv5i/f8SfMjnfZsvN06sVFqmqIczULD+xnuDDAyjFmt86yZVY4c+coUzNTfPa6GxibGGNmpsvyQp96/gjSm6QbYCTUmHl2bhqjiD1O3plsWmfzKA/su5vl1cDYyCRFOWR5bp6i7HDy9s18+f4lbNhnaqpDf26ZTsehvUg51mF6dIrx6SkGy/u54Nwz+fgNd9IpHVu2bEHLisWFNcpylGNzi5Qdz5233EHwnrHN23jPe9/NNVc9i36s+bt/eA/jJQiOhX7kpO1nMTs9jVKwbWaMiBHqIc983gtZXJrn+js+x8LCEV7y7JcwuWk7l111DeeecwFTVedhYlokMjE1ge+N0Rsv2zkeib6kiBWjvVGO+/oTjh8xpWi3IiU5zREM6ih4VWirF1QE0Ugdk/Fy1hBMSIoS62k1xAylwDQF/R5HlCTaeDEaUYpordDmUCJmkqp7YgqACi3SNhcDr0oQpSJ5MKak7WmWKoxKn7borVcPelLVkBhYaAWwdgObioFT6iiEQpJzV1vKzIkhpO1H0Sxt6W23ioi4VtyLmEtl1NqKfWibobRUaeA0qbYuJPGjcULaJNN+mbTFLUpyRApps8q27my6FNyQDHhIMU7rzLZZjFawkRhwrqR2BdIbo/AOnMNXFYNjR2nml4mrq4x0J6GxVDruXKpUMKNGKMxRogxT6IQ3R9MKPukalMZBGdJNThWCUDWRRpIjJZaCOy9KbEdR1JR5EhUCaTtAcEr0QowRX3WoQxIjrBXmrAiEYKhoWsSj0Vi7BUtkQzgROrhgqFdCaNr7JYj3FE3aWhI0qb6KgE8VORpTRUryHR2FOmptt1tbwDmHNoaGIbHdahdCCoodgo+aJDPvoEnX6wSKMklpQSUJ0r7dSqXgrUhVepJEcEHbLVdJhFJJ1V3rYlKjKStlIYIjla2HFJSmOCzNSfWtYBzTGAtmdNosuEErvK0Ly+02PkmVWs7SVmIvMTm5rhXZgqMwo8KQtup2fZg7kSQIElN1ghmhUKROW5TN09qFJOJHMYomCStpa3Kq2RlWQl1EyrAugAScJUcoksTiUlIwnCoTBJ/iz5R59mAxoJoCz6DgQ7u1V8Fpmmut6UqZfbQtrWvz/y5t0UeSSBrbtINpqjDxriCYtVWlAeeqlBlst3OLwtBFggliSnS0AW1b8aOKjzDQFGwXIYlCAcN5nyqIUmxF2uskiDoG7Rbt4NusZkwBeWNGWQnmITZG3VZxJkEoVdVEExwFDUpsAlVnBFdVDEINK0v0l/osHDhEJKCFo6wDpaSqotKEOAg4r3jncU0SEUwUpURFaawVFYMxRKAo8FHSNr5WdKoHMdmXaKBKGQUvLgnDIhsVLenOClHabfPOISiusbTZSduqX1MaX+AxXEy/R9K4TyJau11Ok63VNukQLSDRt1vrU7V3IYLDSG58qrCJ0o6vmCrTemJESxZ4qEmxKE1SwgjQQaDjPLhWfLU26dUKzwGX5pUaRYiUZsmZtxQsNpoE9xKlkSatuzFtmyp8gTTWJhXYOGegHbqaqtWTeGQPPp6hnaOmqdqN9nEYoqlKsJY0jsvG6KhPlXsxzdlafLvWpOROgHaNTMkuEDQUqGttPIKXNE+KJlWB+6JIFZFmFC6t5R0Tetre7xBRXzLQmJISQel4Q81hsaFok4VFACc+2d22MieIoyHgoyJeQQSxtA0/VU+ndcy3jxYoSZVKQdJWR9F2yy9tX2hKoGgD3ievYEOsaG2c4pBWuLe2bx201fVpziFpDBWW5p6PpAr2ZPnSai+CkwKtG5wrU3onpDXfSSpT9JXfePwGlsbiQIXCAtJEpBhFQiQQ24rLJK4EknjUTxtD02MhohFCpG4F3KElMapPk6rpaXdGiBJjkpSjtlVqUejHmpGiSFt2m0AoHIGIRJKPYGAhJfqCebx5YiNgDYND8xzb/2Vmt22iWE4VLL4c58jaIroypFd0UpWxJOFanIPGcM4RvOCa5CPFIq1jfhjw3mGFUNbp3hSFS9uuDSp1aSuwtIlgadcwJ5RqdJCUDFUlSJtkcS5t6W9L7cz5lOwxiM5DsGS/VaglpCp4g77zqarFlEILIoGijnRKpa9GRwqIDUMnaEhb14PzrRAP5bqfaxBc6/M1go+eoetAK35FrfCuSLsLNIkX64+HCS6mqnKDWpJl6Iqn0YBJmjvdqAycR2IS0a3sYJauI2hJI92UhPdpvPj1Ktp1QQxocGlMxNQmM6NSBxhDl/peVImaxoaLgHqMthq6HV/JwtP2ffIJmrb2rowpYd60c9bFtto7KfoEjKr1eVMhgUeCpepbL+nxO8MmWXHfpb82T29kjE4pKGlcOt9Jj4wh4pymOEZqClcR2wpic0ZBGu+VJL+uLrtM9Cpod65UnZLV0YqJkS5NHYi9DmNVxbC/SvTCaLeg0Ij3HoKnoUjrZl1TdUcow5C11TWmxsZSf5nS63RQKYjBMTY6mnxBi1RVgcR2G3PlGel08FIwMzXL5skZ+mt9utphYmKC1dWVFAtIxIXA4soKo+PjdKoOY91RluaXGR8Zo8RhdUMoImXHUXolzq/Sc5M09YCFI4fZun07zQBWF1bpTnrWVlfpr6yw0qQAXhrh0NwcU5umWFxe48CBQ9RaUBgszy8wiMowDimbwP037eXw0hEGTcPc0gIzuotg0OlU1CtLuKJLNTLKSAgb/lx3ZJS1UPP/M/emMbdlaX3f73nWWnvvc84737Fu3arqqq6mGpoGN01jIIxOiMEOcQA5QcqAbSElQXLyLV8TKbIUJYqUD5HiRMLCITaDsQ0EECC6ocE0TZuhoUf3VENTded73+lMe6+1nnx41rnVUiKUKFHEK7Wqb926733POXuvvdb/+f9/f43C3vERT84u6UIg9jMwQeczpsvINET6JMjgMcvhyjHhaI8hJkKp5BjIUghHR772dgk9WCAIWZSj556jLNdspsIwG8jbkTD0LGYztuenxP0F2z6h169A6Nz11fUuIoqLUDmPKEI3zMnm131WQWKAIIxdpBwekKfJz0L9gI0ZC9rOt5Vhtw53yqQufhMS2nmsVzRS++TrdxfIqljwwUrsBzectHPMdiwkCUxR0KHDom8q9xYHrDZbhm4gy4jlLetVJgfQviPETKxKF3syW7okvh5GhckD7bO9BXoJiUCMibFWJEJIyfEDBlErXegoNRNCYIgDpRSC+kSoqpIqSAhYCHTVCF1ksISIobUSGoajDwlN0ePvCrO9A7RMzOZz/MhZGLo9DoaecaWUyyWf/JM/5OLefaxLPHP9Of6Dv/Hv8Su/9IscyT7zUvjgr/4yl1X5uz/ytzna22e9XHF6dsrp6pSf+dWf5vjmPu/66mus8wP+4N7vMH/9Ct/53vfz6U/e5MH5Z/jZX/z7HOy/QImZb3nlFV5+/iV+/Gd+GuqG4XCfPsCffupP+Svf+h189bu+nvlM+J/+wX9L2Ntyejpx1O1zfHzIcHTIfjfw4N4bvDZ7iz3tWW5GikSyVbpSON4/4Pj6NV59803+q//iv+QnfvLHmT+3h2w2nK23rPKGdYbj517mh7/932R/gGdvv8j9y1NCmpOGA/bSHnv7c37793+L/Ss9L33VO5k2Wx7ceYsn5yNVt8wPZpyvH5C2h7z56IKjDO957/N8+mO/z+OzM66+dMzJzWP2xZM/d0/vcHL1CuN2wySVo5s3WJwvOb66R9ibMU/HfGrzOaYhMJbAfP4sG87ZzidII5snS/LsGD06JPfw6vk5J4trfPxLp5T+Kn/w+iNeOr7Ok7cecXDzRYYrJ3zh1S8y9TO6mOm6yNhXyt4D/ujVn+Wr3j1webYkiDCfv8j3fsf38LE//VNUIu+8/XYc9uD4Cp9+/cs8c+2Yb3jxFabyMt/83m/iwb0H/Nvf/Z1PFZn/85exv+gpF+fsn1xju1wBxrAfWU7GMJuhf5EEvKTxbeaR+CFTqjJIm6WpMQWYMPrqUZZQKzUEaIf6lAuTKkE6AsVjLeziHu7iipg/EKLHRf1QUymmhBZ9sQxY23QF30BnnMdB9UNFVehyICNYUDbVHwbOslDnkIi7V0rwY3Oy5kyR4Pn7oIj5jD+pT9ejhfY+uMsn1kAynyLuPq8kPnGtAoUI5KfuH41Cn/0AI5IQqQQTF/jcKkRuDBQMaujAjFqKC3jim6iiyhShH8WnPVaIIbnLQoVcjBSEbahIcS4eMTKVNfl8hVmFvY5ycUHYrBhclqSIkrT5A8RfVGgH0WxGFxdQMkGUyG5S6kKPqBHbe+P4FqMYLtrkxiNrE/1Ook9aRT0uXN16bbUQzGOeZJ/KWlCckegPnlI9dhlNscamM8tMFvwBFvw92UVzrIIk9yhIUGqFUYpPj5r4lXGhMQYXP0fMhRoEFWXSzOjnQFQyGpVQIxYCW/xzNXHb/VASpjCKUmYB8FjqSKUzbc4aQ2tixHkuYh5DLKE5xZqjQ1VJuR2I1FlQpoEs1lwtTdhVkKg+fRafOlDMBaYoTwU7d5F41LFWeyoa5sZ7kYrHn8TFERcbhdRimpOABUMkMFqhN3B+kwusubraWIkkc1dNFkhEj5EFY5RKV6RFX3axGXdK5gpCdB5dcodUEfD5oAshE5UuBoIoWxmp5r+XxX8WFb/eR5xZ5Hw2F4s8nlI96lrbbSY7Np67mQIexyzq8feqgSKVEipB2v1vhZIUqx7jJkQ62YUKKyW6T1FVCUWQWrBaSRoYSnUBStzRsGeBqVa0enRzK7VFK9Ujl+IHw5BhjE1ct4o1J4g2BceopKlQJmX05G3jFfraE00Yq0BjXHXVBzC22tDNe+JkzFIixY7t5EK9IqQQySG4S8ncIWT4eq0aITizU82NKiG7MyY2MS5JYxaJILnSBUVDIFj1NTk2zqD6vWjBY8IBqKHxuJA20XL3pguskQ5nngb1n1XaOivK06gsQN8Oy1m03R+AJr/fi/+9tOGIu5ud6yXZB0yCNbefXyNdrS2a5/GrZI0FVw2JQpBAbnF5Lb6G+YjBOXOpRcBU/GfHfDgDbluLEvzdF2nu7bZB10Cn/gKK0HxXPI1UCqEZSY1oxZlV6g4TZ0dV97fJ7r5yF2+PMylrwCOzIk/FiV2E28zc1Re0MRCtsS+lrbnmUVv1Q1dtn0HE2vNNsGAEPKYTTZx1G4Xk1kmC6NuTziSYCbH4vZTV7yesuTR9mURE6DTSNSFmgzOEUhU2weirf6a5xXJz9cghQf37NcGo4ocjVMjmLtCs+ekzChpzTv25NAloaAwtjFwbE43GpMRd0jm460uy7yEIStAIolxSCFnQ0PkQqjHSnmL9akZjZAouBPfShiDZfB8UIhPZB4BFXVBs14rfk65wBMMJv+bvRcj+GUgDenaSwCrJINF4nQWkibd92d1HqSUFjNg5Ly0GTzpYMGSa3BkZPXrYjUoOBWUgqmI7Z2Zwp2SmuUVDIsaOXJprs9M23HXXRugSIhk1pQRncKY++D5IrcXGG4O4rSNZ3dUcql+no29e3W0daFP1wIShKaDmTr4SIBX1gZ+4cM1uyCWND+z2Md//iJDEr3mr4JqJUqPz2IL6YME00bf0RzXfTO94dJ78kObcDuRg9A2bIrqjngISnLm8dUlvEhc4g0nj3E0E3a2VEMQQTc5m9ZWi7dWCv5cEVAIqzvyzAF32PVreDcWqpzRqi7DX2LaGkzUmr1GLR3KDOtom1t0w1e+jultDq/9+u5ycU6v4frH4/w/4IGJqg+Bgb7N6zaAr8lSskIDzEAO+/peASsWiECyQ8xYT2Gwz127chKhUUzRFv/eDi6A+THZ3kPoCRi2+Xou6Sy/UwKgQ+gFEuFhfcth3aJgx6/eYxgJqdP2Mi+WKlOaELpA3azRE+r7n/MkpqZuhfeTR6RNil0CV5WbNYjlrQr0xjSNoIY8bLk8n9vcOEFHuPnzI4WIfS4npbMksJVZj5mJ5wZsP77PQjlWZuP/WlznqZ/T9jLtPHnAym7M8v6CKMQZlI0o/6zi7OOVo2ENT5Mm9+1zd32eILhzofGAuc062a/rFgjkDYZhxOa04OT5mXO0hyzMO9t2BJ/PEKk/sX7nOM8PMz2AxcONon9lij7sP73P9+Ar3H/6BX+tHB8w0UEJkWScfZOzNWOWRWTW6YcGmjIwCMc2Yh8HX1pgYDgPVMpI6wnri4vycvcUCmQrjVOn6nlIu2S4vmKRSVkvGyyU1KP3hPrqZSDGSIqwuN4SYiCmxXm6p6y3bsyUHt/bIqwvmocNS5vzJOSk5N3G93BCGXfKpgjl7cioBciZZIE8rdCxutZCKhoSNW/a7xHk2TCIzUdZWSX1kEHEhzgKhGSCmqNSS3aQASB+RohBB0xybLyBArDOGK1fIk7EZEvrsDYaYiMOMq9evsXlyjtTM4bXrTNNEFyMsFoRhoKTIVgq5m1EXczYlIotD6sYYiqKzGaFLxHYuSbOBpZ65c3c+I6kSCujBgjjNsTFTO0VSpIwT9DMkRjclaGBU/6eJEFK324w5aij68EmTDzur+bC9CpCio3ZS9D1sFDQ6/y9b5cr+EWaFi4szdJY4t8o3fOu/xlc9e5vf/uBv8In7X+bGs7f4vu/4Ft73rpf5337h52Ga+M0P/RZ2OOPXf/e3mR3M+ZUPfZgf+OH/iI/+zm/ysc/+CcjA5/7sLXIF7eGnf+kfc+PwgC/e+zKXEzw4fZ3HX/gCz7z8Xv7O3/oxXrp1kyePLvmH/+SnmC88+mws+Zef/C1Oz9/ke77rr3H15vPkmNHulIv1hnC4R1zsMV8cMRZhOQprHVh12U1Kw5xNv6KGyIPtkpPnrvLRT36Eay9f495lZrA5sRxwehm4ee06r9x+htfvX7I3m6N94pm924SYeHzuEf5PvfoaJS64e3fJ6XDK1et7LG4+y3pYIUl59fE93n34Ap9/9TGyd53VBE8eBM7GBR/45u/iG772q/mtP/kI15+9zd3TuzxeZUaMoYxUTdTpkovllpdPrvNHH/8sXYrMuzkPH068/vl/xd5ex8PzwvzokMOQOFoEuj3l3p0v8XVf/RyRio6PeXx6l+/73h/io3/we9T4Jot+zeO7E69+6pMQjfd8/Su88q4Zq80ZV2/dgnKK5lO248AUMpeXW77+697Fg/UZp+f3qeVlUpo3jaJy68YVfvCv/usUgy+8dszrd+8zdInbt5/x58Of8zUbOme2V2MqFS2e1rFc6Pr0/zpC+//lVyxJKdm5Vg7otjZZaC6IUt1l11w3xMAoOPsq6FMXAiJUyQ6lzf7PqAHEGGOkry78FXMxxUptwGmHa++YZVbcPeTf1CMpOlVirUiM5Aaa7kzJk0dLKS6OVfCIrAVC9omXKYgGQsFFvXai7AArPkl3UattVoszRqo1kUR94hkNpqAOgi4eMxFpgiF+mKop+cRcjNCEyBrFpxISmAIEkk8QJXsUWV2oLLjwE2lwbgMrRmgbbTUgQ6iFVCtmSsEB+eXRJbNF8gOLKaIJEKaQyJ22LLf4ghOTQ8yri0rRAJRNCkhpMUpx90Wou0IBP6Sa+vvlU+vgh8bgzo8pOusEXBjaMa6w6uDWKi0Gqo3fJ0hw91EwGKsv6AE/iExiTDmTjBav8tjDFhCraCsQoPq1UHKLmxV3YlSgjF5eInlCklFzpY8BSUpXQENFp0qIwflx1VlznQmIs4BcESuYJlSgq4GglXXxqLNoQCy2cgiHSafq98vWPPoq+GYUbYfb5rj0OJNQG/NJdywgCc4mwqjmh8wuOz9F1Jrbxz+LUDyCIhq+gpvlLC/MJ7piO5B+aYKPYrkxjJTmYgGhRWxVGwfIKFkIsckJu/u0glpgY5kQPK7V4c7BnTjgwU5FrZB397J5NNtqIFV3mlU11AfqzNywTKhGp337M5Ate5S4MfaS4NwsUbLZ09hhUXevKs1l0b63All92U0oU/ssXC8KjFUJNWNWqSG9XcogymiVKE1okdicHcHZawaI0bewoMREpkWbmgBXpcXxDIJ5FEnN49QxdFAd5l9UiaU216GS2YmGLaoV3RnWNWlHzagpuMuwFKLuPmtfPLuYMHPeVNVI6Nz5tx3X0CemLkKXmILHopIJ0hytKSgWXDzOtbGPIr5hRiB6nFb8EvPSnyBIEGp0XpcD6wFTI7QAACAASURBVIWpuR9rE1I6cz5NDkqXkpdzBD9MWnLGaRFjngXVgW0tBBNicPZjURg9v021yhZ5KijWdr0UMbYBUjFoAv5kQm/KqI0DqUINb3OuqviwJJk7Tgw/PBekoRDcka1UctTGH208S2guUhd9kznTqjS3+E64Kgq1NMcxhgaP0BT1uFqN/jfnqP78wJmhtNjtrpAjJf+sC+6OEpStlnYgNiZVNDgfy8sqPKaetGO0QomOi9gGf15q9Wdk1UKpLphO5o7SUoUxAB3uNsXYYoTGZy14/DVg5BqIIlzE7MD46qKaBGVZM6kKg0LesQwVUGU0F96ieExKO6ErxtZcKCn4/TpSkeAlVtUqa/XXMfrTya9bU0Zxim4yoTSnrQvB/mxO5mvJVCuq7txPzXLcO1CATS2k6gKMlxi0GHf2zyohaBYXc6tzcabsImFq622tTRgp4gPP6p9P7SN5MoanzFClr0oZXdihpQlm5s/5YTc0cw3A77smGIXmxhVzp3XdCaWyS0PQPh9/Nru4tBNo2hrZhNNdgiK07y3NrZST75mkPV+KKFOHR9UEbH/G/OYNDl9+gXKxJPYdS1MW/YLx8TlZjc0QSVNbnUNz+lqLcXeBUAOl7T2LtRg4kDvFgrrzfrLmnA2MGJ05k21K/oxV89dWkrhopbEVgTgGoDSnjCBspdCnQCqFoi0eXZ07O6m/Xqqx1soQY3Me+3WQil9vRXEOtAbGWt0haY3vrIGa8DIl3LEq6gzEbRPqs7j7K2pkkspo0IW2BmhLgoiylUpS37NlaS64VgY04qUjtHszmjvxNsEdLsl8OLkVI3dKX4XcWMe5g7FOSB/IBN/LixE7PwRNBrnz63+smRqUoajzHcXPA44yqPQhQK1srZJEyNU8GSCB1MTKXDNFE1Ucu2NtSFiBUgql86HJZJnIbk+WmTojTLt7w93mtQpLRjZ94HKzYWsQ5zO20sThhmugrcnjoHRBsDIRUiSou+VysFZwBttcuXd+ydDPyKrcefwYrYFA4NHpKV2fQCLL5YqBASVSC5ydn1NViExcnq4YZjNGYNxukEXPmFyAv//4lJtXrhLNuFyvuXr1KjkKp8s1pI4afPh9vl5xDGSppJiY9zPEjD50ECIpJhcyuwCzjpODZ7l77x6l76gp0c1nXK4vvawrJUYzlm3wFPoZ61LpVKmSmIpivVA2mVnosSrkGjjcO6LrIjkXZiacHJyQzZ39s2EPs4xSmQ9z4vFVDhZ7rJ88Zn+/4+xyy54kjtPA1fkhs34gbpVwPGOvH9gsV2gMdKGnU8cShaiU2pAJKHHMyGZELFGpyMY5nkMIXG4zoRNHDSGEoozRI5vTcs18cUiwwGbM7IdIFwKXZWKWEnXRs51WjONEqRO9DKCBgj+fpAYkFxfI8XOuiDB0HRebEVV3y5+uN54Ka0Jzb5GOCASiOIc0SmTQSC/GInUUA1qcHdQxPGbkFCjZ1xWqUaMxTJkoPYXIxcU5oUKoG+qjx2yronsLtrOB1dkSqrGKPdP5xu+zDLqYMcTEfDOSu8DRbI9UKvMqbDJIzky69X3QavR9qii9KTZ6EZIMCyjVHeQRim3YlkJMgRB8ADyan8ufMnXbM4Pga7mZ73+LGVv1AehYJ8ddOSCfsRhhCKCO1YrdQKmVm9evcvXogKTCcrllnLZ0ceBgtsf7vub9jNslf+tH/xP+wU/+r3zTe97rLsD5IT/6d/5jPvepT/Brv/rLvOfF9xGl58f/4U/ywjte5J/90j/lDz/zUSzAZnaTzdmKOA8MDOz3x3z6S1/kUT2jLPaZycDm3uucdyvW60yIyl/+wPv5hQ/+KkEjXVbmh3M2dcuXH77Oz/zSz/Ed3/Y93LnzZZ5cfpyLzYayWfNw84hhWDBu11y//hwX20K5uERLRnLhb/47f5MO5SOf+A2uPbNAuje4eiWTTXn8aMO3fuM38+sf/ij/y8/+I/7zH/lRnrlxxC//+q9wsVpy//5rfLDreP75F3jlhef5td/+HfrYceOla+QusEhzdLzk1kFiPW65d3fF6iCjkrCLLTFG3vjcm3ztS6/wt3/oh/mXf/qHbJeZzWpkOjtnXK+4fzpy2EW+/699Dz/9j3+O6zf2eP/XfTuf+uRHkKpcv/4Sn/viHR49vsNzt76Ku6dnlOUpJa24ffs656uRx/mML722xeSAPk28eHWf11/7LHEeWT2+x8HhEW+9+WfMusrN56/zje97gXk/cnaxwcZL9hcHvP7aWxQLTLknh8off/aPuJgKV64c8ysf+W1+8Hu/n5MuEORtf10E3vPyu7n1zAuE6IPJP/fLIAw9s+vHhOMjavJ4/HB4wBQEQvxz3Hv//3/FqYkpu0ZAN+IVavZDzs65pAiqgVrcJp8skktugGjfFBWMZHjUUCJMBbSSZCJV9ZhXm9zHquSqZPEWw6T61LVXg7WSBQe5Zw2tVdDju5BbG2yDq9fmtACHN4ugMRGKM/dK8yipBCTIU9dBDi4eBfOJCBV3W4mh0aMekzpjKFV34FSgc6I21ZQoEQKM0xaNkUighIKYEqfq7WYtjuXQZMBAa0DUsKkQxae4YSwOD5YW92hxitJcEUHUpxRWSXh8tURF0kRazFkuM0Pfs7h2lTEbTJVVgC4qVC9q0OxOCZ/8OiRagSKZaOIOhOhxVyvZXSYKiL/2LEZqfKnYJsnVzB9MoYm8bSKvsUOCslXIOpJMiUmR2HmzsbgbKlV3JlQ1Z0QVB9Zvt6MXXqTebdS10mtgqkYuo0+CO3ecUa2xkKCUCbVE13dYLoRhRm7tnF4YAWPOULz5qJrnqYKE5hprnAs8GkahuQSrH/YMpqrEGLxcwJ9D6FN3o0f6THzC5O4ZaScvj5FM7ZfR/LCxiyaLCoFAsFYvqUqdvH3U1AXWIOqiD63Nidawh+/WR38JLoft4lrVf47SXClRlEk89q3qkeldW6P/lw7vd+aHYdmI7CJfFalG10oVnPXm7ERp7amqHs1CE9pyfqo8bQx1hyd01RkDftn4Ide8OvqpQ6GXxOR2zhZAaGLRV0DCq1n7nRYRbg7Epscgwd8vbSzNSXAHRXHnbo1KzPbU0VijkM3j/DF7rKAEXwNzLZjirt227uUgaGt+NFVKbt8oAlqgGJvgDdi1ukPVkr+aYu5mlBj8YKf+GQWx1lKsbFob7RSVfsxo2XGchDEbkzoYWYpzzfLQE29fIQ29Ox5SIpeRcZnph4EUBsLOXqyBNBklm9/3NZCay1M0ONuyKhK98jhX53wG0afXWYTmhmrXMTuXM+3wFT3qh4vLtbFAUzWS1OY6g8GMUYzBQKUgTRzsM3ShiS4FgupTV2tfK3m3mTdfU2xykTOoMpYJCS6y61QpcQdabw3m5oeBXN3t0mpomDA6oh9I230Xq6FTcznxtvNTmkvThXm/LirmPC0rmFSolR08vYhRm7vEDToFJDah2OPfbtpzd1ycagPGuwtyJ2Qn88OqFB92pQqjuNDUZUFU3YmUE8KOpWmEmknFHWWpGFaLF0aJEqsyoZTgYleqHpdN1Q/dvUZq9WdzTe4e7wpk8cHJIAmKYMWHNpKLu/cEenN+V8Gf28mcMSTWXC6i6OSCVAzB54eehWcRvFwpmbAR9ZKZ8rYrywUdF3ZSa5tM4vcx5p+rqPM91cQ3sYa7o4Lfc+CO5Q5/b91xH7Fa6XD+b1Ej2K5b292SXoDhcUTBnuIvQgUo7jgIiWiwqZnkD05iULK4y9sTwb5OWnE+ahAvh5rU75FUfb81+Qbo7eIv3UUxfWPnZdj++RZzplhm5zzzz6wEYSzVxcZ2DdvkZWNTc21qcde9owlKY2EWXyeLPz+4XLO985AzEdaPHnsT+96CcTOyOr9Eb7/ILOy5iFXdhUeLJKfg7eUxV4bouJRUhSCVoTEYbTRvpTWjm9wpKRpIuJMjmotv0tYhHwI5G29UQYu6yJ8hVC/RSl1CqhGrx/mtGqm6izarEq0x+iyi1eiLsInOIB0KIOLDDfOG4U59TdG6QzJkTAKL1uQbzLEEwVxg9di9M3Vrngghts9nt6ZYa3QuJPF1QEWpFHalHIsiaIvli8EkLoLHDH32fXMyL0RLQZHixSyqLoLPsjvMc/Gm64wXUgUULDAERUv1iKL2jLU+jbrnFidPVR2TUR35oK11MyGMraSoqy4Ml9C1NdN5fZh4G7FWcgptMCjtFbayHI0+VDfIubYW3olShZQ6HqxG9kRZjCMhTcySCygqye+hoIzir2OGYtZRrZW0VSMHH+o5f69jUGUhysn8kDqHi8ennOzNSerXbN8nuhAYhoFxMyIpMuUtu6HZfprBujKfzcl73r56MMwxgefsFot+RuwiKfUMKRFjAI65nDL7qWc2dBwPHdcPjjjTjlu3XmA2m2ObEYnKtlS6IET1kqpOO0fBHFQO5nvMgguX/TBjv5thpXLz+CazNBBEGTRx0A+kXFkRWKSeLjpzbog9A4nMyOX5hnSwz7hec//RA45vPEPAeHzvDgdXrlAKlOWayTKzw0MuLi44XV4yhgVBO8btisvLczKVw/kejy4uiauBo2FGyROPN0uunJwwrbdcLJccnBzSZXj88B7Xn73FpM5k0xR9ALvKpGGgSz1Dn+i6nr35nEszujTQ9QFNnSMb5i7UdX2HxMQqCswHAkI/GzxFsZ1YY8znHdo7h30MkTIINQrranTzOePpOV2AOo+szic/p1hlmSfnZXYdWYVtHrmolSm5sUSip2lKF+i0d7G9Gr0ZATeKtFpFxOQpqmESHwxMuSCSIUVi6MnTSNDoXG38fu6GgfXFytMx7eystbGncyH1HWm9JqDMRLk4PWXW9W6sUSXn6mdDXHAfgrBuxUhSfSBWzdMjJv5sesq5rELKoKkNwFoZUiL46MXwPVfxoXwJHUZloZ0bLmisS5QYI8mEmSS/NzQyTwOx6zyhRyB0HUM/Z+g6uhi4ddzz0s3nEeDH/sMfZTmuUQ3M5pFuFpk2KwYTjoNw+eQum7t/xqNB+MwXPouWC7rFAs4f0zOyN3RIgMsn9/jwh36V4eqMvWRcbs9YFJhPE7/0a7/I1737P+P559/JtfkepW6Q5USMG956/TWOvuHruf3C85zdP+Pl27f53Jc+Szoe6LRCOqCfzbn/8ILlxUMOrtxAt/ssl49Y7Cc++amP855XXuAD3/RONttHzPvKu1/5Wj7ykY9z79XHfPqPP8WQ5nz6E3/EL/7v/5wXX3yF973/W1g+ecJHfvtf8L73vp8P/9qv8Gsf+jXOI9x4x3OcnPTkXtksN4htWPRbrt844vaNl7g8P+Pi8gHoBUcH1/j0p1+l2Dmf+fxnCCLcvH6Lab3h4GCPJ1NFdAay5uzRAx5vVxzWjrP1EksJIfC5L72GhDm3Xnie1+7cIwwLnrl2le//y+/h0298iXsXT7hx+wUEuCgDJSm1D9x5uGb/uouoe9eu8p4P3CaUDcvVko99/h46PuJr3v0suQjPX70NOvDG/XPuP7kAW3D65B5v/fFHOJoPHMxn/KNf+Cl+7N/9EdL/Rcb1ysHi/54iZkbXdUzna0gLdFOINpIloMX3z3+hHHjD6Jtbf6gbIfuhJ4qLPqEdVtHoBx5wZlGZmEV3UNVa3InRbvJqjcETQjvwu4soUqkoVdUnVC342hlgpQk6maIKmP978QittqWhSEXQFqfdRUA9DlPVN36FyjaUp0yggk86sxjVqjv08LiQufaDjh7Rq+ZCiRRzQaRtsoesmPrkMFTDqsfv1CoxC5121OwHziG0yW9zdaiZg0bFN8o+o3X3UIS2oalY8g15iWDsnDkecY1VqMEb7EJ25tsITF1AT64wDQmbMuM4sX38hO1mQ35yybUXv8ob7Ep1xpAqlOLibOXtg0TGo54q3rRmRsgVE5+IWfHpdwK3/tbiB452aMY8pqTVXWa1S84JzN7cNNMFnQnbJvr1kwNhRz+b4TYdL8FwpmEkDR5pKMGbarWChsg2GCkGslSqtWlZDExWXJASZauVEFyoGiVTYhMM2jVZTYizAWJPLdVB9MHjIKn6NVAEpmJY9M/eGypbY6F25GKt4MHFioyxSR552uYMMXiM3Px7j9a2ptUPYz6NgilUtChdY1sV8YMEwZik0AWhiJKDMNVKxBrjDyb1aE616m4QhFH8AOkcPW9Ptqrt3nH3yqQVC140IyIOVi/tz0d35iScmTUFP/CW4hH2HPzgUINvfEJ7H6rCKI2fo0LNGZHo7iw3S7Jt4q8Fb2+cmmCosotytoNKcMFDWrxlaofiBGRt4loTO7bqn+1uYR0bfzGbL1uhQg3+Z3aMni2ZgF//YwCJkZICW8nu4iwgaiy10IkPHkZz912B1nDpMa6CFx2o+PF/sopoJVUHd0cJ7jKz7K1/uzhN8dBRqP7m1OAbMKkV20UPad8DpZTKMLnjoYpvjPLkG8A4GUSH5odsnF+csXl8RjCYdwPheI/x9IK03CCp93vepAH4XbTQ6pgAB577Wi5N4AzetECqzpQpGoi1EKowqjYwuDsfoyXEjDF76UTAnTJIW4fa+KA297YQ3I1Vd23LLtyYeZumZhflYnbhbveAtuquS9qUN4i3f4q5Lhk8j+URnuo/l1IczC64U7mxPaUavfohNpi7PHpRggWsCvsaqVaIuzbO2ooWBJDk4vLu71Jn20lz6GkT+sJT7lNkVovHwNU37V2IHtcp0JO8oddaaYsrg36oRRoY3iOqikKBPU1M+MDHmoChKhQKO5lZzH8Oa23wZlAsPG1+zo1DqaKAR7+bXN5cYdpanl1gC1HJVr0ltLi7TIO3g1LVG8drRcyjfCDeIt/+fTQvFBIRrP18O66dmR8eAh5PN3P+riFMjRea1IWN0H72XJ25W7R6cYMouWYvRditrQ1rMTWhXHEHpwS/j4tAteJ8V9wRPal6hLC6O6smgSl4s3xwcUgDbAV/ncVjy8WEHIViLkQVq0zFyKnHOii5QIAShVyc11eLP7dCcNcTBgPCaB7jyK0y1cyIBKSVYGWpbQiTG6/SxT6suaGrD+dMzT8rcZdstUCqeILBKrF4ZDyl0CK/1tYaTyoUQEIgZn89tKFqpTrrqu/ocQPbJEa2goVINW8drhE0uAiI+Fqn1mJWVB/iNeegT+PagMpqc3w1FqbijsYmpAfz/cmyAeorNHyL72V37lQvI/GYedxF8duQRKw8dcNaG1wqAa2OhXEHuDsuRaBEH0r7teZJi1h98J1xUTK4zdRd7uoZVWNCsiCxBxrk3oQSAnEqhBgYvW6Zav65BnFBS0PwMVXxXWTE77eAEYIjO3aOyiCtmKM4x1Nwx72jL5zl7C+y3WsiHj8v/mkXjWiePOqG0Uv0wUnbb3fm0fVgNGyFDwB3kXbMn5G74h0fg0FHJKqL4tpcpmK1DTxALbahuyKSqGGkVP91aNF4kRGrAtPE8uI+Q3BnMESoHVWkxWUFSV4xVlAXf0UaQ7EVnImzjkuFs8slEyOT4SzpzZazL7+JBGGowoPNirg/Z7mK3Ln7gGF/n77veXL/LU6OrqCdcv7ojMP9A0wqZ6sL5v0e89mMJ6tL6nrD0dExl5sV4zRy++QKp8sL7jx+wI2DYw4Wc1bjRJcC6/Wax/cesK3GYpghMfBnd+7y7LVrhBB5/c23uH3lJl0XuX9+xmqzZt5e58PlBccHR0SFV994nReC7/+Xmw1PTtfODo89F8sNJsr88ID7Dx7Q78/p9mZImZAkHO9dY+/giK1lYp/Y319wsdmyP58zC4mz8yes8pabN5/l+Xe9wqPlYyxEur5H9gf06IB+vuD60PFkvUTnEbXE/jxCigxdJMx7xnFisbdgP16jhko86jg8POLiYsv1689w+fARdTK2MZD3ZlxKZr1d0+/P2awfMC4Ls4NDwtAzTpm0XFE7Ba3IdkufnC8ZFUKMlD7SAavzJWE2MMbgDdipf1omBKDzgWq4O3AxcyyHVRYHCx+WipBScq73kCiW6bsOba49UmQbxM/CeUulY8yVst2S09AKXQxJypjUXXqpw0KipAh5oh4s6Pb3qJLor11julyx6TsWJ/uU8yeEFKGP6Kzzyc2QvFV4ylhUagqcb7ecLE5YVbC+xyQ/HWpb8mQZixl1ufbGeFXG6MvsKIWq6mJdjo4NybUVA/nyVks7g0loyRtfp0zBWhIPPFkyiaDiCCoLjsLK5gaLHSfaQuB8ueJos+X2CwecngrLy3NSP/Dd3/49rJbFB6ZU7jy4w/Gt50GEg3nHW/fu8ff+3n9N0Mqn7rzGO59/B48+cUq97/zJsQZOHy/ZH07YP5zTzxOrXHntzTsc1IEbcsLNl06wvYEH/cBf/6F/n7/xzd/Ff/Pf/Q9c5C3haI/t6Qiz9LTIkqp897f9G6zPn/DzH/p5jp+5Rneh9CpoUi5WG+ZHx9y5/4C6GNHYM8xOKBJ4uDrlM6+v2T9yJnU5CPzm734cTYf81X/rffzWB/+AB5fGJhfeuv+Yb/zGaxwd7LM3LNiMaz78ux/iN3/ngzy4/xZHL77AtZducDBTHq2WmBZqrqxNefhkxTPXDjmezbi4e8rXvvKXeMeVd/JHn/knHF+9Tg49jx494oXnX+TmyQlv/NlrLG5Efu8Pf5dnn7vFR//w84ST2+xfO2B5MdLNT1herrgcR0Yd+fYPfBOXD+6yf3RML5G7Z3fY2yt84L3P8sbdB2zXG164fYs/+NgnePOykLVnipWS4fz8DNV9VqsLtmeXxK7j8fkZ73zhm3j9y1/gydkdrh4dc/fRGbFkrh8ccffOPdadsnz0hOXdDfE5L1XrQvp/roTtvkTYriZiu45PL89ZBLAoWIrUHVbmL8hXLOqHYJ/k+wS7QIvi+eY3q8cqu+ob5RIbPwy3TjkDRUA9phhSYqMuFmhqMZPgzqJcMyk5P6pafep4m9SFGxmrx3Fw6D9tw1Dk7WiT4AejqVS6Jj4R/e+u1TcUYh4vhcZcqeYb39Z+hrZ2zuqsN3+Nha66gEXwQovYDl9ZfSqBih8cg0eTOjNqqUyNyWLqsWIVIPjBdds2pM4TC6jGtmGrPvmuzqbZijFhlFa+4KhpWjwtUKo74qgODQ4q1DEzPn7McLhPXG4IBEpdIdkITGyKuxXVzBfaNuGJ+EWZp0pNO04dxEkpjfEi0vIX5geNai6kiLioYeLirZozgorS3FzuDKK5G8uubt0cnuxigR/mYnX3VrD6FBhLdWGiw23xRStIRCzDOFHF4yodSjGP8NZc6ENgI94omkYjJ/9eQ2uWFNHWhlohumA2jaO34xreulwLJeCRa1rZQS1+KG8uMW9i9AeI5nboaIcAJheZgwjkirRNfpgqvZPQ/dBYHVS/464JX/EzNKdamgD1A4cUiMVdeQE/rOSvcLKp+P9idfdE0UInSs0ehaz4Z7TVTN8idV4EE+hLRcXLX2J1AciCs2KC7a4Bn+TX4k25FPPCk+DtkVSjToVOA8GUyQoWfShgDYyjBvPiBzsas0nwyeHO1VHVY7y7+HZpgos2XlUwxXLxhsR2kBqq87D8IOtCTqyVUdyNG6tRqjuNvWUTj26jxCqEJqzSYtFFDM2+9vTF43IRAfUmMpmMEgPVRv8zzRGoZkQzNlHBIv3kRR9VoWtNX8WcJVoxiF7AIQWPSorRtUmmXxF4e7L6n+tMmmuy8Z8wJARqrUgplOARYguRqsHdGDWAJqJ6/MbadexxSWcl1va9TFyA7Upbh1Jo12hrpY7OCaxSGjrBxR1nXnqJwa51uZgPayT45KpKfRpZrU0EE4ViSgm+dgQzF+gVF9+Lszu9aEIZg7d31xqeitde0tJYiLztstrFDSswmYtAkgs5tml3c7vm4KU6SewpIiADGp2XWrMPUirFY6kaybj4EJpjrwbHKtBcdwWPXVcKJZgL4004Bv/zpvLUmSMY1LaplYpZZWzucIP2nHWhLDchkxjIwdtKgxlT8FhcV4O7+zpFJ3e3juJRyaQuWlWcBVakYQg6P8BP0dfsWn1QB619PaiLxgBmZGkOecMbzqU9y4ASfJ8QqGySP0q14OzGFi0VM6bohsSCf469BZK4GEyqxBHGIEydr099jZxLJlAZbGqFDz5sdMpBbWD/yppMDOpYEHXBMnq22ocbOKtwEheToyqT+c/iLDmPEEvwfYr3pBpb8QKiYhWhAcRrdscULmiU0OKsU3G7mXjraxbQWulRxuXaeZCi9OJCfle9BGNUb31N1hz7QYlTcZdN0qeu5SLeHB7MuX0RocsecQ/qexxp8cTYHFz1aXx8xyAWYnNEB/O4odnGP3Osxf+VrL62tdCuf98W6yb2bMUgKXQdtrcg7e87bH7KDNe36MkVMsY0+V5nCkK/mJNzdvh7KVhVb9SMgRzboEUEHX3Qso3uOlrW6rGuITCVQC0evZfg+AbrfICSJm9ttjbsEYSS2npfnFU3hkIO2uLu7fqOgawwanGXehC0CH0JFClkEUZxMX4bvSwlSmWTXHQezTf3tRpDxN3L4h9CrEaVQsVZrzQmamW3phQsOhplCs3BLr5PFvPX6I3YDR2DMAZft9WamE8lBiG3UpodQ28t1dvciWylMklgiB1rrUxa2FcF85i6Rr8mNjLSdd7wO1HZhspMBBq+JEQffExmhM732JMoVYwhCrlMTCjzlHzASCFIZGKiUJylGROCMDFBW/NKWx+1VtZa0FIa1kaplgnJ98Presk3fNtL3LhV+YHn3ss//cirbPWYnIRaRrp+hhZlbLHFw2Y4mPLkz0J8qJpVQTIlZ3RvxtH+DUiBs/NLDvb3mM3m3H/ykL1rhyzynPV6Segizz9/i5RmvHH/Td7x/IsMfc+9s4dce/4G8+jsyxIjJ3sL+j7xePOYm7dvsD8smJ7AvNun35tzPI/koBweHrG3GNiePWSKgf7gkIMrlbEUDuZ7WFDOpi2HV08IGjnOT38FsAAAIABJREFUW/ZuXEe1cvV4TjDjICa2eeLJdM7JlQVlGjm8cczscB/bbjk+OWI1XlDpKXHi/tkpJ3KFLioWlbce3mN/vke2zMPTR1w7OWG7XbsLWYVYRlLJsN1SukDZZI7mM5JVZLVits0UK9TNxGCRkzhjoYkLLVw/uc68dwfeQTggaGTcbCgywcE+XYzYZuTmlRvU5cjy/hOqCOvQc3r/CWpwcjhj8/CcbjZz7MFqQ32y9GbxA6FeLOmHuberr4oXzInHXhkLSZU061mtNsR+YNYlzp9sCJroU8dUlVq2jaFbse3kPGgMWWdCdMavmqFjbdzIQJcrJ1W5l0HiSGdK7GfkLaTBkRsH2lHzSJczIRfW1c8QWUCzUcrkTuFg2LhllvahVMpyxbjOHB0dEi7PmdZroDBdXDpDElhdXFL7DrYj03LF3pUrTFHJWx8CLvPIu46OsZKRqNjk5xM636NRjeVqhNmcQmFTJmb9gIZA1IjGwNS5a25S6PpA6f1+AnxfFQQiyFRbz1+hSCSqGxGwSoxCmTKTbEkhOhe0TAypI1PZ1sKqbnh48ZgggbuP7mBqXF5ecrlecT6uuC3w6t3HvPvlZ7AceNc7X+Bo1uFQkcD//Pd/gm6xRxDjhWffyQ/99R/gY//i93iQR/rbzzDf7NFNG3TvAELg9Mma1ZjZO7zBuF7yZ4+3pOs9168ccTsc8JE/+gjf+oFv4GOf+jjjfuTw+g2+7gPfxOff/DKbIOz3A3mxx3//E/8je8M+2/GCL5+vyEzodkVQIc7nLA6PeNfRQMmVGgrbKJy84xZ0HXu64upez+feeJXPv/GIr/+ar+ETX3qNbi6EfcGebEnDnI9/+k/4u//pj/L7H/1D3rp7jy8/usd73/eXuH/vHkeHh/SqvPHqF3n05CF5nOj6Be98buD0zgXd8RHry0uu31qQakKmRyzPIn/l/V/HV7/nO/nB7/sePvzh3+WV93w91w5n/Nwv/nNeufoMv/FTP81r9+/x5Oyc/Vs3+FefeIOvfeEmh7PI2YMncHbByfXn+MynP4vmU75qf86X7nyR5b3HyKLwrd/x7Vy5NN48PePRw0dst4U6wWZzwa3r72AYhC+9+iXi8Q2mqcCsxyTx8jue5+TgkNdFef3OG3zNy++mfPKL9KJ84UtfZLUp9Cd7vHz7nXziT36P+7PHfOHJmq+9Hqnm/Frfsr6NsbG2h/3K5tmv/KoYj56c+gAOQWc90iXq0JND4KIYV/4iCXhbcRYQFbaSiep8sCrO21CUKfivNbstdqLSqxJKdsdaNaBiVtCWWQt47EmzMTZ4dthN2MZMrL5JnBRStsYzcGZWGQuSYmOnuaNKSiXF6JBqdnwjg+qCn9UKTUwwoYF2/TBkIVHLtOtu8Dim+cLeRrDuBAnuKDAJbcrrIqX3qoJ4hSLJ3Mk3luzTQ/FIZAhCzC7gqMDYNtAiPgpXc9cD+Put5g2QUr2sIxrU4hNrUXfYKOJ8oFy84GHnRlCPxMTmjAsqkFwMQKCf94wsqKlHYgImSnSml4pHg7BAjc1VgU+2ffNsFCZvw8TFn0g72Kg7QLR4rGrqoLYuj+y6hcckoifFU4YaWyykWmsr9QO0qU/jHR7tbJwshSA+jfVYor93u6bepILE0OIo7dpQ6FJ46noUjS4MWYNMmzM26lToSaS+d6dIqR71xEXAUXCRpvj1i7roFEkY7obUsnNSCl11V15pgOfUYjtaPZJSdqJC9qbMKhHMD/Q1gDY4fvJRv5ee0KD1GlvrW/WYkLRoifC0OVHbYdjNWs25Uj1GIw3wnmixv+Y0gOisDVpcJXgkLeMuz745rQzn3Ul9G9ourYGaXdwIYSN+IIr4+05z+IUmFFHExQwfhnqEKjkvJ+EHSqz6/auhMUfw+1pdMNJ2baq1g8ru4NocXFl9EqemTxuCrNLiKbU5JhoX0QoB52OJNrI6wtgECRdSlFaX6uULkx+6dgdbn+C7GBvF3x8Xs6yxmzyibjEytaZVikeVvXnqK4pFmlAuQmMrtPdEhZJbSUITKKq4UJWbMKnm11EtFQ0uVvjrUawLpONjZhrRWSQe7nPQKYtaWJeKdQPUjolC7X3CLOYOBY9VuuttVGFtoExIUCwkpnbv1jasmKRSgjEVF461enuZmbHF28+S+dSW9jlozu5yBawxOSP+tqdan5aPSCk+3RV36ZWyc6P4dDi3zbU3IzsY2AyPYuORcxBfVzWh5nwzaY7DmrOXKhDJIhSZ6AiMuNMxpohlcwdJiwBn3a2jHjEttWDh7QKfopM7zc3aQTc8vVYrk0ejq8fxQwhPhwKxOeu2ZSRqYGriQzQhNZejmTI1sdMZayDirccVb2cW3KmbA0jRtoZqi7mZH8TM1yvxi9CdQ3icsisePcxt3Q/Zh2xOiRNX3vBobWjx6tCi9dPkz6yA0jUnZFd8eKbWrnUUq5VYJnqBVW0R5KIMwRmICiyysi3tXhHhAOchJVM0C6E1i9Oilr7uQkd42xUoLnZFXJBNrpO7MKf+mcTq7qPahgSKMRdfo/oiZNTXdwn+DBOhM9oQRtH/g7k3CdbtOs/znm81u/n/05/bABcAAUIkQYo91UumpVLUObGciqSZynYlZTuVTF2ZRqoMklEySTxL7DiJK1WxS5WBy0nZSWRHSiyKIgmIBEACuASI5ranP3+3915rfRl86z9UlSfJIInuBBcXuPf+zd5rr/V+7/u8UqyMytkaG4ojq7EdYxXubZEOJrZrxQyY+mvDLiDXe8bhbkp2nFqSIdUpiNSypMnGmDbQ8eYay97irtmb4OOdOV0z5maexPiKsXikmEsrV9dvrnH9NvQ4Lwx5wklBpswQHMGpifJiopSv1+MkGb87p9vf48nVKboayOdnbFKmnc8ZrtZ8bO85mt0jSMmqv5xQNtbCXJxYs2IutGIxT4tFJGgq+LxodbvYZ54FZCy4ZEO/pNRnnQ11o3M1umylJeZUNJe9VxvOOQDvCVlRnZiC/dzlCdPb7P21km+i0FJzbm1lV3m75PEFQrY0hyDGynH2vRdVxjTiQ7T4dbEYcs62xiVVUrA1O1GYgkn2KdthNNbBXqnJE49jnZNhMDBRPKGUUnEZCk3B0CcCxRViEeYqOPXmug6eEuy5PVdIWeiq8O8xcD1qpWHegZ+y/VwcTa5FR8U4xA5H56pDqbQ0YqAZG44FvCu4Yg22DQHnpKYBXG2yNSE8SCTXGK44mIoSktZG+kioBXGTVPdhHrl1vMf3vv0mw9N7vH3/VY5uv4z6AZ88LrawsQGkxaKruz1D8I0NwFTpXIRiM+rFAPsh0IdAN99h5lvj3frAc0e3TbQtwu7xbcYslPVI5yMfO37W9kg+8tzRs4zjSHSRLjjKTCyx5BoOZ7fwGAT9eL7LZhxpaOi6lpWfCER613Nr9xlmTY+mwuFsn7PViugCPkRaPF3scblw0M2YeYdkYRwSfTcniDCWzOHeEU3smJJwa/eIo26XopF56MkVC9HHwG6Y4ULLfNZwfn5G17U0IZCWaw73j4mYsxkKXYFpnFgslxzFgG4WjMsFbXPIydNztAibYWASx2a55GhxzcWsYxgbxuWK0Xlrnb2+Jg0DR0e3SNPIkyePuf388zR4zk5OCX1DPanZmi5ijkBRBh1ILTSzhj5GchCG1q6dgmE/LseEGxNTyVxuEq6PBCcMm5G2s6bUsSJ3ShqJMZKnzKaM+L1dLh9dsr+zQwHO10uOmp6YYLVYMu9aNjEwpIm58+SxUFwkTROnl9eMkw03fXBM02hnDWdr5ibXYaiqlVqkyfA/avdjHFwtdNnieswp29e9Qx5WNK5hymtrWS/GhnTFo5KtGCkVQhSaTaJXIaVM03Y8+P73OXKRW/M5y/ML/JhwpYCbMQ2GeJl1geurCzvHhkgnimiipaGJHcvVhrQeDHuQlLaKo9skiu09zP0uTkkY0mC7r3M+MpPIhBJdQKaC84akalWZqQ3JRQO3dvZJqfDSvZe4vTvjrGk4OYd+/5D/6u//HX70c1/iJ3/yc+gmcXuvYUu/fnJyzmpckXNm2qxhuWEYRuZR6HymD5FXPvU5Xv3WN5DliuHphG6uaboZsWnQ7FFGZlNB0prDXXj80QcMZxeQRj5573lEA7/yUz/Fx+7f4mtvv8b85TuwWXNr/4D58R4nj6/46J3v8iOffZ7eZaJrGFQ5OO64s3fAcL1Aly0pCdf5mjRBEwZu7d3lPTdSNtd86uMv8a2vfQM9PuBev8ObH71H6XcI/S6LTebo+BnOzi557vYd7r/9XcbVgrFMrHRit98njgNps+bozjGLqxXrhbC71zJcr1guGu4+c493f3DGz33ly3z9a/+AL//Ez/PhRw9ZrDf0fct6zHz8Yz/CarOiaxsevfeUdn+OuobhQvhH//B/49a9W3zw6IJ52zMPLXnqwPc8fHzC+fnEsHYcdDNcmZNdx/Mfe5mPzgrt4TOsueKDyxG3hp964RmOhmveeXRJ28/oXYAmcO/l5zm7WDJqy+Uw8T//4TeYHb3AcnXJyeqKO0f7jFl4+wcf0RzfZSmJ/+Nr/xz98a+g08RmyHzpE5+woVP9Yce9f1WA24p8gvLSSx/j9//Pb7JcLfB9RIbEeD0Rjg5o4r/6e////OE/98Wv/m7IBZ+hqe6wpthE1mEutoCjrRsJ+3chjAaaTfXwsI1SqFTwfD3sGPxFaKSevoK/aZoTESIC2Sz5WsUP5x14ExLA/r+ydRjVSTbUgojKCstemJyBd70zTk0Rc8mNYm20OQhjdSFAbSj1FmstojZ1x6DcglmlKQWXM202qL9WEaJFkOoK9NkisooQsgkMosaR2m4kg0qFLNdmQzWe0HZDT3U+bl1egjNxSgzgTLYT6+jNuZHFIh7jNLAcl7Q7u2hokBitva3rWV1cc/vwNrFprdQgZWKxoKFJOVUgybapFbEHZlMsKhcLxhwq2L9nxaVCFE/MNbJYIGRFpkzItlkMtWXYmu9KjSpniwbWOb7bihTmGWJyhdFvYeNmq568I1UY/KY24jkvDFIt6YiJkl6qk0NwPlBKsubTaM4/FZuEagxo8BSnFeBt19mmQrK1uq+sPdlYGMkZ62zyhcHbPQLGXJPqEihmcaiGCxP+rAlZSFiDmyVAalMfxl5JTjGNy1uNe43AJQciWpvF1DiH1OiZM9ZScqC+Xi91g6rUib0zsHVQqnCI3RTYn73lNBVTxGwD62uzntj3Mznqa5ParmubiNGZS0orRy7/mWbRFOw3CSYMmghNBdFXZ4JY4UzVZ8ieyvYzXuC0jUCJuVLNzVUb9gSKJnOOiqL1cLWNPjsxfmaqX0HxwkaMl1Sof2/9DCZva1QWi9Ca0A4lCKMvdUqjbIK182VVUmPlKk4shp2CiTqTg01T30swPIAVWpg1Mosjx0CJFv/WYO955e3wJtFewyZobcY1QTU5Z1F5Z+6Z4tUEN2dujOxgVHPiaP2MsoDLymZxyXpxxvXlJW4zslotuHj4mOHxKcvTC1588WXcZKyimE1oj7nYlFSFJlUQc4Em51pII/hU1+xiAmrImItWoUtCk4Ume+JUaJIJeTEb+4waTW1wJl74UJlrJoR6NfGjoYKsSyGKw/mAV2sf3ZYRBLH111chJWjlMNU4u7nHXGU/bl2+1enmQhWfhLaKHCGb69OJM0G62OvcFs00VlVZ1zV7n32ujD/1tOroK8g+qqdVIWgkaqDLQpuURu341k2KyxkndkCPKjTWiYmvwrhXqWULW26gCQhOPI2aS9IEbkM6GIdQKg/Whj9NEVrdvn/M5YbDV51XBZwzsSLW570qFTFhXMCoclNY4jB+rZlF7bMJVRyPxZw/Jn5UR5ezwVBTnxPFmSPUVgLPlv9j60TFbFRB3Ioh7J72bN3t9rolK9vmX7ed48kWim8Rxi3Pt6ittWj1tBcTECFXpIA1OtdZA55SBzT2Z+cq3FNLO+qMBRPGtEbjK9PS1GKLala3e90ZkeuzvHjj7WYvyHZ/EhzUvdPaO3PpI6zEik2kPgenikPIai7mUYxxN3hlZVpgdbbbnkuKHbCK2w4euXEJC8WeD4CUbPeOqrmbh4QvFk0OZr63AomkhNEKeJoxERO0IizPTlk9eEjftDAlGlWia/BNy/JqybMvfBzpWiRnuxa8uWpjqRF+541NJ1unqsWd1dk6H8rW4V5D5FKv0zqkKgJelLbYIHB7/Vhqy1lKYPv76zCr1Jx9yJYasEI1e34p1BSHWmEE1eEt5hiPZZtQ+KFj09X1SIq5/azd1PAJ3kdCdoQsBGdrWVBLpTgc7aR0SSpv1T6XTh09no76YJJQvwv7M4LaOgHGrOzEV5e4rQGeul5VZ6hzvrr35WZoG8sPB9/bvbYTi0pvn+MmItQBrLO1v4gVLbUYA1FrWYTX6smuQz279m093g4pVWywZ1sSqVHvcuOydtn2fuJq2RYm6If6fWx3r5o3fP5Td3nn/gd86XNfgDKhsSMNnhgb20MLFcOz3VoJ3nlzMdcyvBS2601hzBOxD+gwcHlxxZgLy+WCs5OnIHC5uOLJwwcALIeRkyePCU5YTxueXjwFVYZpw+XiijStKZp5en7O5eUVQYT1uOL0yQld7NhsNpyendI3kWEYOL04Byc0MTLqiOhEQDi9vOTDh4+YNS3L6xVPnjyh6zuGYeDi/Io2NKw2G5aLJZfDkjxOXF8teXpySgiRq4srHp+dMabE4uyMk+srFuOaYT0ypsL9j96l6RvKNPHBo0cWEXMtV1dXDDkRY0PrPYvVin7W0TYt0zQRuh7xnk2acPMO3zWUKXG5vMa3DSE2zA8PmO3vcXBwRIwt2SnHxwf0XUsz6xhCYW9/D7fTkUXZ29+hnfesKdx/8B4aPXG35eDZW2w00+zt0O/vEOcz2v09aCJ+fw9tA9pFwt4uLjYMWVlPExoaBs0MqZCCZ1US3e7cyrtUaGczXAz0+/uENkIM1vodGuY7u4wh4PuOGIKdJfZ26OYzfNvC7owQIxI9fq8j9h1Ht2+x1IkwmxFjJPa9IYuCI0VnzbMYkue67u+CeIoP0FrsO/Q97f4eOWX6fs46Z66miavVmjibcT1OjJsJaTr83i6r62sclqIqJFp1xrM7OOD20QFpmkjes7q85tEPvs/kHNfTiKRCApqdOevViqyK7xumYTBHuhPm+4eQM0UdtIHVNJDHEb8zI2Vr4XXRwFiaM6466rbDVcHROE8s9QxLbZAuGK9ZLc2FeEuG+GDmFe+4dXzIzt6cF5+7w639Wt/mOtZXp7z5nTe4Xi0JbaQJjq9981WyeO4e7JHU8/p33+D+29+jiy3n15d87bU/oZ/NjR3uPI8ffUBJG6YcOD89Y1otON7b53pcUNwG1cTHPvkSadjwyRdfoG06bh0e8q1vfpN/7Wf/Iqv1FU+WZ5xcXTPf3WUzXREa4c13vk+SiQBcri/5whee54UDpUwLnnn2LpqVWX/M4ydLTpYrri6vKcGhoYHNiqura1ZTwEfPZrNikwqbUfjON9/gydmK3b1jbh3d4vHjU9p5x9f+4Pd5/fU/5YOPPuRqvebi/JLLaeTw+XsEJnzfE/ePuLxesr97m+defJ7HF095eHrCbPeY9ej41mtv8vDBCe88fMIff/2bfOrjL7IcB+Y7R7zy0j0O9p7hwekp7dERn/3SVzi/XnG1mLhcFC7djOR2KFPDzv5t1oOlCbRkLkbPrWef5fjwgNt3b/NHf/Qqt2/d5b0PT5ninGlyrMaJqyQ8Pjvh+dt7nFxeMEpkcXHF6uycn/3S5/jgnbe4XKw42O+4//q3+cTzd7l4/wEP3v6AcrVhfb1AfKGfEo0vbKaBhx++y9mTR5yeXuD6jmcP9itnsjBk5dHZOTt9R6kGoK3GtN2rPfjwI/74a98wZmvKhHEip0Lb9/zWL/4iIfz5EfHC1nFi6Rl/04hqB2ZzHRU1y0+QGmES2xyot+lpfczaZkmxBjDUmFHeYiCpJHzjSKHysBwMziC+oZZLjFoIzsDEJVrESnJ1zIE5UQRzTak1iYkTa2fVWp4BSK4gaKUeygTEw1QPF8GmeBFPMfsZCYN2GhelHlLqYS9TSySyHWJU7aGPqxwVShVpijWJZoHgKpRaTWB0chM/mtTeVKq8Eae16a9kA9O7GsOsR51RjCPn1Ta03tl7zDkzFUVXG9bT2niDmxHJI8wPcGMhDMZBoQqJWh12rkDJiRK9uciE2jhbzA0nBis145av01K5AdcXMcHSb3knzgpJDCoP6jM5FXIBCc7YcyhRFXUBKYk4eZLLP2TIjcYQdNWZlL1AyQTs0FyCRW6j2nca1ZNyQZxFKkiJrJO5+optthU7+OowmdsFRRuDqBrny6KkUYzvg9hEO0jdzGsx16FtTSvjzQStSYwDNdkVUh9SMGmmkQYphSTJylNEGCoovvVWxJHrdDgIjGU0lw0m3ihqJyfnKIXa4mnRwzZEpNg0H/taGRmZGkc/qm3Ai1iEwwlZMl7AV86MpYJrm5sI6qkiV2F03LAet5wsEWvUlWhOlKyZKCamjJogWHvkRhLee/pi1/pEslIEp0zFnDOiMJJQZ8LFWKNgk3305nwV6opiBS++OjMVY01ljFEV1NaeXCaLktbWze1nSHVS5jpZKWpxBWvuNRdDqwG/jfUWc67E6m7zJdNX5ycoZchECZVbKTXWaxy4ZrSvQidrhHWu3DBSkgefEtF7QqhFGDkzw1M00WqmFROsRc3VVapwGidzvmQRXCq0mDCJmvhg7mdbm6xx1GLdbsyErKQqvrkiFlMYRiiFlDK+ctw0VhA8DudcLRRRIva9MyWcFyQEm/oWZ9ejmpNMnSOo/RnGSFQkm6hYXBVWM4gEG65otntFMDeXbN3QHpyJxpMTcwqJ2jMo22AFpySJtvhiQ4+wdVH7WK9XrRwwc0oWNTG5PqLMbVxNloO3Q7qUgniLKtcmm5siIQFGr0xa6PH2mQugmYjcuLRFDXkgXpCpnrvVruXkBCda48oQJJgL3dvU2nhx5pAZQwVc17WtSHVJK3XoYcxKrdn5Ld+tbO8hLWRvB9SQ7drXKgojQsLEQ61ivyuAZKZohRckc5Cn6sQsbOO+WiP1VhBT1Nyi2dXocrLXU4phBYwL6cnOkba/hxrV9skcn6gJOGoTEHXmeBNnz6LkFdGJRjylfn4x+BqlrgxblDFYQ3PKxoMrrh4ixPAX9twMrNWwG5Ry07xXJDM62JBptUZvVcnBIoejFLIrtUCifs7ORI6kyRr5DGdZG8EdiOE8DPdh6/Sg2YQMtXvYYfuukhOIwdr7TB3oJfqcaulOtFZOTYYyURNQS91ngaOp7vC22PqixQaOZYtnKNkYxvXZ6DM4b59xxRPaYK3ufRKFVLLx7LJxXl2u+zBv8WyjkhQ0W/QpeKHZndGkTAmtiXZXC7RpyMGi9VO2YcQkhkHIohRn7lt1zprpK09xjEIpVo6EuNrIXAzPII4c6kDGVx5hdRXK9g3Va16KQ4sNoPCe4GxQlLH9lEBtzzY3Cd6RcjFGIFYKNGiy+HlwlNHWzRLMue/F9suKcgPgFFuHCxYrdaJE8dYk7azIBkxQEydsWc2IOUgnXxhR2myDJvWWJnFVmCu5OtyFes+ZmJyd0Djb4yH2HQ3V1VqoLsU6DNcseDEZcJKEd8EGQMXc4sXZtTyqDQAmtSi31M9lciAumLNQt65p20uLNxftiJUd+SJsJJN8piHe3HeIuSSTgAt2nkgYd6vx5iq254i918lZ/Dl65Xy9IO/sMZbEJJ7Z8R6Xj0YTCp2tcWNl3qVSiL6p+7ux4iF8HQRaUdY4TWgQju/dQyRzvVqzt3PMZrMB7+niAfPdPXb2drlYLbm1v2si52bgxaNDYhDWaSLu9YTJGmT395Wua+nalnTh2H/pFq0PzNwOoWuYzeaEpmHpDA0Su4AUc3X7tqWbzejnPXHeI1rYGw7Y3dvBI4xkch/ZDzNC1zDlxN7uDvMhMQbl8Nk7rJ5eEPfnNE2L39ujo/D0/Iy9ozmqsLu/Z3vbtmfv6BaX6wW9FNxOz/WwxmdjAqfG8e7pU47nB2iInF1fM9uZ2VrghNVqRQyBp49PuPvsM6zHAZeVXSI+JXIpzNuOnIyl6Ci0oaOLHYu84rDv6UJH3kwcz/folgNPHpyjBdwUWF+scElw64nQCnGxJuDo90eu33+AB/okLK6uTTRvG4Y4ki9XaCnsNHe4PjmHLLRHh0xXl+z2Pf1OZ1zH5cjVcgGznuH6iiSXuJ2e5eWl7U2jo/hInpINsuYzJBn2JefMlDN9UQ7UDAhtxRWMqsySua1HUVQCfhrQMZnpoKSb5E3SwtHeLpfDhkKGlIy92QVrHB4nmiYy7c9pusCmTHQHe+gwoU3g4OiAMGTGcaLstFyQoXFMvvCjX/ws5x89YD0VYiyMZU3OGaeZOJsTxLGJAXe0b39PCLZv9xHnhbFs7NzUNcZmbQK5iWTvbTDnzVCSHbRipX2DUzYeOpubGv6hHsVHyQRnphGjtJpTPOVE0YmLq0uch7OLS4a0i5aEsOHh6VPa/R58w8Hubf7kT1/l8uqER+cnfPylF/j9//0P+Po7b6JHBwybEY1w+8U7zFtjv56sVlysV+wfdhY5lkP8quU8Cuwcksc1h7t7XAyFWbvP/YeXjAT+2at/yLOvPMf89hGrd9/DjcIwZd768CEvvfgiLx/f46P3B86uM7Ow4RMvfwxS5Oml8uijgc1H7zHbOeKg+QSbpbVc7905JpcN62liuEqMKTG1O7zw3I/ynTffoo2HXEyZ5vB5muUFLkZOrk75zpvf4LV3XuX84Sl37z7Dk9Mz2uNb/M2/8e/xz/7g95F5w0rX7M5aECHuHJC0cHinZ/xBomsbvvWtbzHff9Fcpbf2ePa5O/zqz/4Kv/gTP4mrAzQUupj5pV/4ZUIiKqW4AAAgAElEQVQM/L3/8u+wOXlM2lyyOT1BYgEvXC0W9M99DGED4wXrxYp2dpu91rFaLclDJqTEm2++ydVZhl3hyCneKf3eDB2e8uy9F/jeW9/FDR4ZJlxQ/uTVr7G4OKPfm3Hv+QP2ZpEyrNFJubN/m4+/8EmYz/nWO9+maVru3HmBp2ePWV4/4UPn2dm/x87hEbf3j/EUHj19yJOTh1wvRz79mc9w7/AWh13PME3Mu/ZGFHPO4UI0tFxorSDRB1zXsViv6Lr/m4UY/x/8CKvGzEIuCqJm/xVfjD3kDcSrFZQ/qU21c8k03lUwsx3aYglWxe2DlTnkZBGQCsQuUieDU0GdR0umEc9URaomO3w2WLAER07G1Io4smRQcwqY+8ThU2G3NBRJthnK5siTTIV324LhKphcSp262hkRjx0oUo0DOe9uXEZJi1nixTZlNsG31ld7bYXgnLm4an1iDsbByb5GGn1tccQ2xl5yjTlUrpBa/JVsrYohw2RZFrIkXDD3A7lUl4hFLH2NSqQh4QXClHApWetuaBESiVgFRA99S2kCAxZT0Wh8sCJK9maTK2pcrcnV2KEaQyphcQyb/EdChcrnnNB6QBxdqWUNBnLd5LG+X8BbI6gVM5iTU+tE26lUYLRtIH2GpkbJqBNzcjaxuFjjU6kulG07khRr7UWMFxOlsaiJQiHRqJAqo8imtzV+N3lCAC12qG6KIq7Qq9yA4AMmZBsk2kSFDkfAIsyuQrZcKbbxpU7ESyG4CrUXe/8OrZwtR4MJkDEXUm0+dSixHlyCmECuajGvyp2n1AiVVtaaKjcOlZCVThwxeXNK1QNExCJbSay5OFTnaFaxQ1KodlRVSFYM49w23mduDWcfOhElOMjFRPiQa4GLM36dQ4hOqvBsUXQXzHXgc43iKPgELrQoxdw7LhpUX8xBVWpcSQXjORVzHXqD3uGTCeOT0wrBBh88JRWL/juL50i27xExLqBTKw2Ryi4kB0qBJhcTilFidVQlV+OhFZytJRHMxmguEezPVffD78FiTh7v7XUHqAqOQdRj5ce56hKKamKJ4HFVMEXVGH/YhkdxN683i1SQvom4rjrg0jYyqmrOHBwtFrfCe9rZnHZvl+IDKxFCYw3HbqcjT9AGz3UZwSktgRLsPhuz1sinRySQnH2/OGHQbM2DYo685AqTmLvZV55UiuYamzSTq3NtC5e38hw7BLrgUe9YTwlrLLfveUOGYAzMQSYkgGaTlQsTiKeoOWZrqOtGQA5VeB+qKKhiTsUQhNYFlmVjwpeaA2TSRGyiCUx2vrYCmNrsawh0e6AsShXkNOMaE1sHmex+K94OnDh8Y4OOgWJiaDI2XkFoggnhg2Zrr3SRlRuJCs1YMQXFGjqLFCaZcI23+GEZ8a6uq66C37FLfXT2/rVgAkTlqprDGVpL7BsKgFy5kbWBtE7JMoUSA7lkplJLaIKJ7ubss+ejuZcEXGFNptcG5x2DTrgo+JRR50gyoZiLOiM1i1hIRQlOiEUZixUvtBibM2FMyVCUnCaLM6b6GqsjuiQrdJpqzLevO86mmDC2AUsSiJCnrXNZadXVNaahkCsj0xp9exfNBanWppzU/ltPIImJTEGFNZkgpbIkTQTYRhAn4cblpWrrhVZHuGigyT90GAdnwZ9mG91VzNEkFnGmaG0dBNSA306qU1i3V/2fQVxUt3lQe4YUQKtjXEWMx0ohBI8jMdShQbTtFclZHFjUyjtSTQwUZ3gLVyO7Q1sHeC4wRcXfnjObjqFpCDv7rE6esjk7Z+eZWyRNpGEgigNXCxYK+OiQsRC97Q+iCpoyJdYmX4V+tLi3G5O5C11As9IhJMkWx1YxwIWKDeHUxH7Q6uyszr5i64Q1rG6RElbcpFKQMeN9IKhjU2piw5uTNI8DvnJyJRci5v5Lo7HaqDgPS58IpQgrV4U651iXDcF7awN3FenhbS+Y8kQbbQ+0ntbm9imGAxkCbMT4q5vJ+F2oknQyxIw6Jk1QlM7ZcymPE4MPFh1X2/u04qFyR11NWSQ1kd6pMKTtIF1vRNpGLVK9LhZ1jtnWn20Zm6OQpBiKwjgIOFxN19eG8qLVZ5tJar9Wkrl4iyYcWyd+qdFoE/Wj85Utiw3Ly1bUtude1sTcezbnC5oUaKRldfKEF5474nRKNGrxY6KlSxxWQOJriZf30fYkauuCiv1/XXLMpcMnu/b7ZtdKorJjr9vjclpBzozDYGml4q3xNUJRxzQUHJHV6hrxVtCQcmFaDIZucZ5hM+A78L7harGwpmUKmhM5G7Ik+MhQ0z5Rti3JGZeV2WyXMdl77JqISGIqha4JXD84ZSc2SBFmoSMtR+Zdh6RABvbbnnEa0dkeO0Rzt8/2OTg6oFNHInN45zZ9t8uec9zeO6ARi59v6LhzcEhIynKZOTrYAeCKFcfdnMlFLtwVfU503rEeM2HIRO/AObsG1olYPKPC+cUFO/s9WRwslmTfMJQly8trDuY9MQasAsXdYEyk7r1FwZVA8Tbw6bqWcdxAFCZn5XvOOWYEFqUQvMf7wLCe2Mwm3JBYjZl5k2HKaFpz9eQpy/XIwTOe07MFjQt0U2KxXNu+i4L2Lf7amod772nHQtsEsncMU6LpO1YnE30TKh+8kNQ4zpbMUTOybBMwur3PMoVI5yMHu3s8Pjs1p3HKaHUtWzQ24qaR6eSU2eyAdiasxzUypOp+W3F1fmmR9NmcuTqG4miL5y98+cf56X/7C/zO7/4Oq6Do9URQO9+llBl1ZLdtmMYJ2Yy4ptAVh08DXgMuNjbYGwuTJtrY0HqLx07eBvbBOTREXE0weBeQ4GiSDUadQOeEkgWS8e9btYI3T7FnrwtoKNzaP6APDfdu7TPvPN5FsvY8eLtn7gOracniesNf+eVf5/FHH/Kx52/x2uuv8+b3v8FBLCzXa4brBUWgWd3hq1/9aU7PnnBydclrF0/pm5HgM1fNBOs103pCdQdJK3Z3n+X27pzl+oI8jHz6hc8SFa53nvLd977NX/yFr/Ltb32Dr/z4F3n+g+f5N3/p1/i93/sf+MK953jz/TfwR2t+4ae+yv3v3+ft+++TFiuk2+XJYmQe3udqdUW320OZOIieZ+bKMhcWS5jf2mHWtPix8PTREw73j9lll7/91/8a9156mb6b8eILz3L+5IK9o12+98ZbfPjgPa6HBTux5eO37tA9u8v3vvMYWS4piw2Ny2zGS/bmn2THT3z5Rz/F1/7FH9Krcnmx4W/+rf+A5Srx8PScBLX1XJimkb/7X/99/sKv/RKPP3ifH/2RlwkzYfPOOW6v4XOff4Unjx9xvl7x6IMPufviHZ6cbxhS4vZeYKOZdtbw+ve+z0Xq6CWy1hXz+T5pXHK5URiVw9kOH/7gEbPZLq+/+YTj2S7DdWZ+HCF55mEX1Rk0dzhbQb+7z85+YKHCzt4+8egOV4sFYW/GdL1Hv99wfXHFNCx4+/37/NiXPs8ff+OPObl4F3Ti8dNLnlw84Zd/4S+xN5txtV4z77axffjowUP8zsz2TrNoibbRjA855f8H8tr/+z9CrA9vrZuRiG12kmRUA02xfFkOzmyyWvlLlSMUNOOcOTNa8ZTROHrON1WUsM26qkUwijMuhxQTLrwzzgnVJWCbLWO6aLDJaZZgB9ltvEKF4B2TZLvggreNL85KqJxjEOO0+KLmAqI6llw9gDitQHYg1XZcKZULtAXiG8AYBa0sspQmg8tnh9TNp1cIY2XU3LghpEZ9alxAjKS2FQUkZZJL9i1kc/h1BHtAiaeo8XBsQmuiBNVtkItt1AUoMZKbSGxnxN05G/FIE5BZBwOAx6VkMQoKMnqLymZz0kwZXLHW2YDFx3yNd+C8Qa6zORCaYkJfEV8jNnqz2fYCmzxVC3Xlgql93r7GsCYpNCVYc6S36fAUjI1YvBWoTAHwdTMqUKaNpanFBBjV+v2BnbTFOF2NQHBCrmweUuX6OPvMpDbSpWK8PA2gOZPUV3Oi1DuiIWc7rBa1a0ExJyeucu1USd6+G5uyGxg2qyJ+O22yQ3ausZFYH2C5bFtsTdBQzCVXxFyjUp00KiYiFFMO7FpTxblgMUC1+yxjUfCt2IPYpvfPviUb8FUXQ52uNPib1icHVTWrbCU1x4CICVFTyThxtpGuUSRfOXtJttemteJJdQwGfBU5f/g9uGyOGldjsQpYw4UdHFSMc+OKCbQGz9guVaU6hUyMpca0vQpDznWKaZ83YJwfMWh4zvberJ3SnLXmELDhQFYhVNeM8Umq49IZE865CGkCnH1X1VWl9XrIubpWMafbKObKaKrAlHxhLHZInbaHdW+FMNT467YsaNLKvCoFLRNTU4cRYJFTfI3Rai36sMFDpN4Xmhm8MkZF5nNSHnm6WjANCUEYrxbkPLI4O6OPOxQROjHni1NrxgwxEkrGiVoxRhWgSj3oB3GU0ZyzlEKj9jyIlX3ig9Q46LbV1jhoXmA0yRKXSuVxgYzKPESKZEKqz5XorMVRbX3X+vOczOkai6OQmMRc01bOWaPmycQRi0Ha2uPFxAiXE/tqBxowFlUQT4sNmuxeNISAqjWPOlWosXXBhJtJFXWetniiKoR6MBeh5GTeGlWLDIq1LDrn7V4utoY03uEmpZXKYsJEplCocVZru40qBG/uvK3eHrIJ2LnGSrU4PMG4nNmeeUHtcytOCEEJxf3wGVWgE2uQ1ipUFbENNKMdtrsaCQQ7SBbNVhpR9Oa9uOyJzhPUE0uhwdqvA46swkSkyfaMLK5yUYuJ1hSLuMWKUrB9gMe5Aqne50SLWCtMuba3l0Jb14FYsDRAFpKrGAoEVx3kUhx444fafUt1xtuaINXF6NRcRJMopQh44+Ca0y7frDuixjQ0s1Rlm9bvoTitUq+JZ8nb9W2RXFvLimbDSYiJaVaAYdecVyu5MpdWYAyKRm/rcbEGa3XmcMrY4K1xgVRgEOMY9NGiYlDo1PZyBUWCbcrTVF2Cvjq5tDapF3uOeVtqiVqLybQiQnS7diptLjTqkJRY+kI+XTE9uiB2BqX3lxv6Upg5gXVixwcG5+1eqt8PxRriS1FcwFpp1Z4x2/ipOkGTPS+2SQxjSdaYqpqDcXRSn/mWyPDYs2nrwMy1RdYVgfJDRqNUF9if5bK6DK13JFH6XPmj4pBUxWCt64FkvBoLStWYh+qwzwuYEQglU3LChQaXlS6LNQ47Q5MUyRQfkPr5BmkqJ9aGJW0R2mx7hka8DXpxZBfQZPdEdo5CJmRP8YL3Ac3mIk/UZ7ia7UUk4xOos0FVWwfyTeXVhtGeQS54XCk2RHDGaXaqrJzinCNkrQN8bA9JwfkAkw22bZ8zobmuh9WZJ9k40VoKUWqsXMFVmQ9MPXRaCNgQHWr0tu43HXYNXK8Km43QhAYXGkZMoLWesGD3XLEBC6W6olVv1lUnxttWtaF3dIV1zkx55OLynGEY2Dk6YtoMXJycwgs2lEyXK3Mhime1XhEaj8TAuFyaA7ab4UthM61sLQeGzYqd+Rwnjs31FX1waPA1em9D0gbPeljhiuFeJCtEYTNsmDYjnW8Z8wY/JZq6t8rTYKKOc+RNYZoy6/VI6wLj9TXr2KLiWK8XDB5inxnSxNPTE/zduyw2I2/cf4tPvvIZ4pS5/+47HNy5zfH8ivOTp0x9y0E/g2Hg9PKSZ557nqDC1dWCbtwhemGzWDPpE9quYwrC4DLrMnK1WeH2dvjg8oyj5g6zbs5mvEa9st/PaNOc4iO+aekODlmSOZjN2C2J9ZTodo7Q5olxPLsAfaTg0b5FdzyDONquQ/YOYFzR5xlub4/jg33ilGlnHcF3zA526Gctrm04Hp5ld/+AsL/D3d7RpwzRsaSQho5+f44/2GEvmhDe7+5RVju2t9RCf7zPcH5NKYnZ7X2m9YDvW9snrtZMsWWK3lJmPhKcZ5wmhjZS1JjoOM8UYZMjUxWkE47ghbbreXz2FPWBQQuDFtoQyU1vwxmXScXGvuq35XQOVxxjGTlsW9YlE7yJnk3wjGtlMyWGun+haSmD/RmTZhp1FDFUljiH+Ih5VP1N2oicraG9WDbIiTI5ZZhGJNjQK0121vWuruXVhOCKJ5WMhIo8yjZodt6jyYwdxriN9oBUBQJTiSyvr/jwyYJPvLhPCwwFRvV89pXPc319zne++3U+/9lX+Nwnn8MX+LFPvcJMA3/3vf+G3b0Nzx4e0vQz5od3ePe7T/jLv/qXeP27b/JX/8O/wX/yn/1t5gctfTfypKwYh0Q7C6zPEi7C5dUZV2dnNBHCLPDyxz/Bm98e+LHPf56SW2I743/8p/+YL3/mx/ne99/l1de/wWdeeJHl5YKvfPFjfPDR+5xerji+s8eyFY7vvcjiKvPFT3+WxWLkKi2Yx5FUTmljy91bz/NHX3+dfH3ExfkDLp9esFg75ns9/+5f//f5ma98is1Q6FvHDz48YZp3nFwO7B3s8fOf/iXW59f803/+B/zmb/w2/+if/CN+/HM/z/vv3uc8Dbz9/lv0smF5ncDN+M5r77Oz8zKbVcs4zflf//Bf8lf+8r+OPnjA3/vHv8df/Td+g8bBt157jcnDf/pf/OckJg4bx/z4Ft2z9/iR48+SG0d7vMfzh/smqIeGdvdZZJq4njp6bcnTxPXphsUm8uzuMe9fX1D6DXFvF/ZHVkR2u8gynbMpyt6dPT71wsu88cZbrJcjUTveeO0D7r91zumjS547WHJ5sUSJzLpz9MG77B8dcr044fGHr3F8d5+eHY6PdgnzTNd/xOXlfT58/zvkcMFu0/KZlz7J+cXAkydPeOH4Nh7lcjOx3wXAcXh4iF4vjJXqHX61QaaMG0dyTvx5+uE/9YWv/q5g03lXY5bO2dTHXDEArrJ/bFpUnD18ojrUBxOZqOwpZ44TJxYpLaUweft1xab/2XEj0EzVQeXEk5zebMKnaIsUWCPYJFZikZzctH6ai8w25YrFx6iT7FLKD5kp2ZgvW67btvk1EnDFWD9Nqu+x2sWs2KC2coqzCV6xGFdDBR5XyHSogsmWA2L8H9vwupTRYO43wRpZp5Ju4NvZ16mx9+QQ7HQRQt3Q2HFgHYz7kl02uLh9KRQHm7QhjRu0Hv5XqyXT1QJNA3mx5t7xM4jvrPWu2OfhvbOWJTHhrO6ULHqKxdmqHnITRfXOQbIjpuBu4hxeofHB6gbrf3NjqaKb4LNt7qIDp9ZQCoVGbPLfYPEcybku+OBzwad62kq2ufHFJsZSD5pZrLnWSj5qVKlMtf3S3C44m3I3IeBiIDkF75AY2DgshgnkaFG2rMXiM37LFDP2XvGAM8bisP15FaVydVOkoDbNdWItb7XtUlUqr9CcNVPl9SHC4IQSQj38SeUp2d8/VjZcEWuHLQKIOWlGDJCdBFau3HDgJmfFH+ptYjiFWkTgzUU6YS6pTTDX2STKKppztWhhDNWpIVrvTUU9DN4+o0wyfqCDwRfjs/lceZOgwRhtOEfyjrVXc7LVmvjsTPzdeGXw24OEMjmpwomroHXAVd4jFtMZpdTIvX0Gg7NNxJabl0NtRZTCxlt0sziLPeINgp+C2fpxjtEpG5/s9bnamhpMxC/YBNcUS0dKVUJzsJHKyCxbB7JF0xR7P3E7MRVBxRxk1Ahkk0FybS/OhTaZ87PRQMh2mI4YP85VeH+bC10WSCZwuBqxcwrthJVBqJWK+HrgkmINZY8ffoRfbeiGTOsMXB03A2EYeemTn8LRmFAidugKWyiaFpp6jSoZKZVnWplKLtua6AQbPpSMOF+dzbYWh7JtrrT379REEhUDGztnh2NzF5mbQ7FGYK2CvjGuTDDduqnBtOiADVaKbHvJ5UaIabDNowqEnEDtGvVi8VMVE4hjEaKz9Y4aBQZzQFkDur3Aki3uZ46IWIUWa/qMpbBleXYqVRSy42epf5cJ3t7Wx1JfezGnqxchuOqM89sCD1uPXC5oBb8FQhX3TfRv6qJdnKHtQ42oumLx/2nrOix2QJ68uXODWqu3E4vRq1M7gFdRsVAbl4Wb4YfDWn99ZetZLNURsolRSWqUXa25FIzfqpgb3qk9q4szxuzo7Nr2VfRWh4kfzq6Z4qQiK8wlbgPD2i7stLrnPaNkE7fF4PaTN6Fj28YMxt6ZgieLiVo5CpPLJsz4yvr01vw3ijVna3CsfEKih5LZuEKOtt6Ode3JwcpbJlHG4Mke1s4xVIc9AqMUK/AKFp+aagyyeOO1qtmHGcjGSiqGkJjqJqakYk4lwdxHWBzU2IN2rQaFRjOtCG0xV3+XoFNvrEV85ULas9y5QFuwGLHaMCZkE8e37DJzGxuuoMk2jHIIMiVzVjlzoCo2SF1dXXF9cYGPDt9YpCMJhJ0552dn3HnueXKMBEzQHIM5ikWtYd1UPXczGLMXK3YaDDZALs4OxakiF1wbKbWcJIldO6nerzn6m9KJUveYznkbHDpzK24ZyVqHQpOre12tSAm1oUh2xtgNdXhRogcXoNh6b3Kt/f1bRp4CY3AVgeLMiVcPyCM2FApKFYlNfPR1XVMxVyrYPezU2XchlYWJ8fdU7DVkD4inw9Y0deaOU7v8sd1GptTIsKsYFyt4s+h7sUXY4vc3SByLrzpxWMFZ5TxWh+coxmAEYzaqqxF2hTHYkFnE3URUPf6GOR1q/Dz7Qq6iXXY2xGqKr+xqE2m9GANWnYnKyQkbZ2vsRhzrvOL5525zcfaAMAucLyPet6Qgxq102N7Hg/rKPw727HbO3NniK26EzLPP3Obe3TuEAGG3Z3dvzvHOHgf7+/QusDOfETyE6Dm+fUzOI8F7mp0ZUpSmjYQmUqaJ3b4jkem6xnh/MeJCdXQ7jH07DLRNg5bC5WrFfH9G37YslytCdDy9vOJytbGzT04kamRzSjT9jMXVNZqF0DQMKeO8o5v1rHPC9Q1NN6OdzzhdXnO4v08/n3F2ccmtW8fM+h1i19LMI3uzHWY7O8R+xt7hEb6f0XY9cdYT5jvMDw5ZTiOzvV1cbBl0gr5lqpb1y2FB3Ol4cnpCLoV+b4fd3V36bkbwkSBKngZKSsQYrdglejRnJCs7O7ukcWIqyryf8cb3Xufq/BLSxCYnK+rZ2H6p7VvcNMGQ2aSJcbFhuFowDmvaNtJPubplEnmzwY0ZUmZ1cYUbBnqFkAphPbC+uCJnZbza4AaLcq7PLvDDRNpsICW4XiCbDaFkrk7OSOfX5PUGGUZm44SbCnk98Nu/+Zu88eqrHHY9jYem7oda39BShyVYskXHxISxO0PRGyf3uBkMSxI80Tti17CeBor3qPesVZH5jP35jNxE/P4OTd/RHu7iDvdwfYebz0g7LfODYyaxuG/sW770yie5//13+PD8jOw8PvSUKBAD0kc7f/a2s5CmIfRddWYXY7W6jEohRYc2AXwgtA2D2JINSmksWVK8GM+5roPJ2ZpL9IgTxrqGeIHReSYxk4ITx2ra8Pxzd4kKL//IszxcJrQEYoBvv/kGj08u+bVf+3U+/twnaGLP8czbsdl7nrlzi//2H/x3hL1dPv3pL/If/0e/wzQpn//8V/iJz3yavun5/Vf/Bc/cu8uv/uxv8dpb91ll5XyVke6Ap4sFt2/dY4WQNHG41xPaFl8SQ3nCWle89d67DGni8vqUk6tr9o6f5bnnXuL+ez+wc9tO5uHJJak54snZiiKR5+69xP2PHvDw4kO++/hDpBNuH++wykuerlY8fHrNhj12Dj/J2+8+4eJqJNHyM1/9FdYMZN9xdr1kOcH+0SF9bHj48EP+4e/99/z4T/4Uu7OGmS+88c7r/OFrr/Ibv/XbjOsNf/q9N7lMgq49b99/TOaQq3P44OGCxSScXVwyLq5YppGz0wvyNHJycc57Hzzgf/kn/xOiE7Odjt/89d9ifzbj7de/zd1n7iB5Qx4vibMW1PPFV75IWsKjB++hyysuzi54+aVnGE6f8tbr36UsPH0IPP3wEUe3nmd18hH76ZJPvXCXlE5oZcHV+VOOjw/46pc/A+mKp4+u+OCdD5mejgzrwvLkiuunl7z48sv8O3/tb/HW9+/zpa/8GD/9Mz9HP488XT3m9u1P8JNf/jmiNBwfHnC1+IgPn3yd0K05vnWI14aj3U/wG7/2b/H45JwXbh2xN2sNS4Wd+x989JA/+Jd/wkYnwv4B4zCSJeBnPb/80z/B/v6fnwitf/nLX/1d26iDBm8V1pWnUUKdjHmDcI51DJqdbV7wwuCMH5XF2mZzsOn2JFXs2OowalPQLGIChEhV3hTUnC9ZtMZHLDpn8GqbMESxVs6oUoU1hyvbjX6xggWt7o66efDFWHfOW8zMbW34GJTcm/Jn/xQMnit1I+Vs4fHO1VKKUg/lJo5kEUrYxk/rZi46sjc2Sw7mPBLExLl6WE2Sa3mBbSANpG2HSxMHzDGSy5ahY81FokJMBUl2QG7GBKmQNhtOP3oPP04c7M7ZXC7oppGEMkwTd+7cJfR9PSwVaDwpBmugUxiiCT7Oe5ugxepAjPZAobrDNlW4KgKpMQeQeHtvgyt2Ao2e5BwiFn2V6G1jLnWyo5jDzxnM26vBisFiEhbQkupcCdW66AhiLYxbJ4vonwGpF2r8y+IxdqgWwoRB49WKRHRKRByN+hvoux8LOwScWuwsFrO0bw80jVqcKubqilFrKm2T3kQCvVpUCwRXAq4YFD2UQlPtl95Vp1ExUddTiDmbA1WVtk7tA/WaLUrEojpNNqh/wNVSFNuEx6JItkPdLAsxV3G2CE22eyBgbCaHvcY222YhqgH922zupaYUc2BW55wx0+z9GfTc7rnOZG1reFVvNnksDtomISTbqAcVutqOHNSaGAWlAfosFm0rnrbGQIHqNtgeVBx9rlw1cSboajG3TP2evCqxfj++iDmAsl1TQT0hQ5/r5ykel+xgGnC02dxhrooVbXU5+WwczYCrbhv7zhpnTZ5NshakxZYAABGlSURBVN/T4s0NoLXUJxvb0ePMhSYWFY+YkwRcvSbswFycGI/NxiTVHGlDA1+kun2kXg92v6sP5oSQuqDmXJ0kJoD76lzJziKkabnk4uKUvu9ofLBWzsaz2awp4vnYK6+QksVLinOUWiSQPVY0VJ2nUg85ChRvvy6KIQKk1PZKKBUGHhCmxjEGhzpvgrJTkEQWR4rVuYi3ghBvrtlpK1qrQ+P/Vdy5/ciW1XX881tr7UtVV1Vfzn1mzmEOMEEzMhMzyDUyGIIJMMQQAwHDP2B8whgfffASo8QHwxM+Gk0mGh6U4N3MwBBALhIB4TAyl8M5PedMn753dVXtvddaPx9+q5sX3zSxXztdXbVr77XW73utWAhEZ6rwLiir1go9VsX1bSIey6FMzgaijsxSbKDondI7W4eyt1Dm6IzcUQe9z6Ra6YMzUNc7UjYgZRA71PbOBvuiXbZiHG/5UlEsG9MG3UwsQN1Zc686u2jqTRnm9KxcRohi33HylJxLYeFtzyCVPbUUOUnbsHQD0RsAlDzW+OtgqC0ndFAYgufUKTkEOmDpE6uSpbpyia4xUCRWljsZpZAGrrxWIdaWlQHngxSgqhZigCGoZViJEsWx9NY8nEMwEkHsMw8euopyHrC9fhBX7KUF7BKl95muZHUlLyxLxlh0sJRIH5LdV2X4zs4G+ZXDiCcS0eVS0OAKqWP7u6qYW6AAvjlFA71UzF6ZtBQ4FcWmnq1dBWCNSqMWaVCp0CbLjauylb44BSe2jlQJi3JIwtqQGavYuq+KaDJyMFkRQJ0dIWWaZOHePjsaNQttwFrNg6sQbN1ksNxW1YgvcmpX4iKC3ULnzdy5ANqugHIZDFQtOcH+bI8panYBzhpAnHFv58CjrTdm0XbZFG92nc3GHL0jaSKEQO8SCzoGt2R27RKXbz5K27a06zNk1CKh4uqNm0bOVIKUVm0tOZ7qDMzMlL3AGXDnCmgUnakeVRwrFxHvzhvjs7dhMdpmhS+fvSsksKD0JWbCazlv+ZLn5pRVAY1yOcOCrU1ZDGTO3kDswUJPIUjJYCtANMkU5d6TJLNkoBQLM2giBiOYO5fs75wzEhB7VpLYmpULERhF6Qo52Tul02SqbGdgfB88vSvgmfZGjImySr2dO52wJNrwjNKR6ctnHpzQ5ZKbKcoyDxBMfTM4LINZQCWxStEK5VxgngdTq6vldWWnJZ81EyWBU5TIchhsj5FESrGcjUzhmEqqvYiYuwEjTJJiJJFEolNWWsg+g/XwUs7N2Z2x9MXdUs6Amomx49qFDV783g/ZP1Vcu2GAtRRgMmdTrWuEUOJQtICZBUztcsRlZblaEsY11WiE9onxeMrB4SF9iri25f7+LgRrGo8KJ6slGaVuWnaPDi24oqrZ2d8j+JoQauarjqQOkcCAsj8/omkqxDt2Dg5o24aqqulSZDH0zCbraB648/przCYTTk87OlXWZ+uAw4VADqYwzZo4Wp0yHY0hK0enx7g6IDiG2NP3HWvViNgPHOztszmdISp0ecCF2siJfkHlA3XTEHulbmpC0yA5UVcB50p+9TDQeM+kHZPjwHRtjUnTsBYaRm3LeLTGRt3y8n/+CGsgdmyM1phtXMJ5x7RuWXUdTTOmqhpWJwsmoykh1JyeHDGbTa1pe4i0IfCTV1/h7u2f4KNlLOcY8auOII7ZtMEtl1QxU40q5gcHNAqND1RNi64GAKStOdk/YOQ90SvHR4c4qalHIyPGF0tWqx6RwPLk1NSZTjg9nluBimYGzcgqEXOimkxYnizJ6nGjBu8cbVFXa/C0Vc3egx1oqqLaxxRq4kjLBUPXGbjed+Q4WPv2MFCygWDo8b3lBTauYuIr2irgVNh77R7r4rl/9w6Lg2OqAVK3onHCYucBaWHlC/OdXepVTxoGrj10Da+mlr5+7SofeMdbWW9HvPC1b6PdgHRLSAmJkeFkSewHi8xZ9ASFrdmUnGMRpZgrRJYJh8eLY+YcPticpjlZbmk2ys85b2f34NGcOXMkjKq6uNQSSrZSSmzvGRVhiWsqrl64yHy54Pojj3J5EthshUUPO/fv8b53vZtbt37EzTff5Nq0ovU2owrw7Bf+hqfe9naeftc7EVfzxFtucmXrCm+6cRVB2FifcGHrEb7ypa/y43vfYW95TD2ucDlycjowQpHYQTcwXfes1ZDyEUNOXNu4wvbdW2zff5WTo108PbnzfOqjn6SKK778L19kc6rktGBY9ox9w93b2wSF/f0H3HjkIV678yoXJhWXLo2IwzGjOlA5Ydw6Tk522JquM521XL4wg0H4rd/4NPHwgH/92hc4PDjEReFoueCxhza5cWmTxdEJf/vFL/D0+95L7YU//pPP8KFf+QS//O6neMujb+KPfvcPGTkhHc1ZHM351Mc/wd8/+1dUywVVcjy4e5vrl7fY2dtjurnOt557nv/49nfY29nlybc+Qd+vOB6OefDgHndvv0z2wt7BPlcuXGJ9bZO93V2GLvGh9z/D0CW+9sILtHWgWpvw+oMj+tcP2Hlln+n6BTYma2y/egc3mTGczLmydYnjIbKKEa+Otek6Gxc3iekY1Z7bdzuO9paM6jGuHfORj32MmByf+7PPsX1/j6XAO9/+C/zw1g9ox41FgNUX+fgzv8o/P/8PnBDZ3V+gqUHalv2TnuvXH2dr6w1c3NjgS195nqd+7q2AsL13yGQ8wonwYOcB3/ruLfJownh9C/WVlb21nvc99QRbW+v/G8zt//QnOE1mSVArOlUnaNG2CsUymROiQpsBcimFUEiWE4c42my18JZJ7kwmn5VagwVNlxwyRAgh41IuA2d5I9k27aAeL8ZUaGlMDQgxF2WY5tISa5kW6szak3MujWAGfkVvh8FAsTSWg6nznoRaiQAFiIQSqM+5Tc9AvDKcqrXeucLoSjn4ZoxVpYAQJtrw+BzRwSzHQX3JqXI4zdTZI86AFMnK0DhTnaRM7R1opMpnpRZnGRC2yEky246F9ItZgcovfePRUQujBm0DYbxG3XSE0Rq9Zgj2/6ucybEDrJ1MBytZ8Cnj60Afy/0Q03nDo535yqlfFR2AglZnyVYg4TE1jphqC80MEepQm8XQGSsjBTzU0qKbBSLRwArN5+2wgjWc5pIFYvoJs/ZqyuV7U2IyDFjUShpMfXYWxJ3AF1VBqApTD5Lsu8QbKywlGyU4K7lIxfqg5YWTAz8ooSgkhQwxUleVKSrKvaESS+af2XcQ8OfNuyVLiGSqhgJXosb8J2cZc4INkqncT16MubNPa+oTj9lmEVPUuGxqCH+mtFA9t6JLVny5xynDql2rAhChJIrazFlKWcaylmr1JXvKDrpnwLsrCtowmPxfnZScDwOtzkokUlHmnL1n1WIXRRAXy2HarpOWzJ2sZpNJ2YBes7oZkJjPNvvyNzakUhqzDWS0ASUV5Zu9T83J1BTFMmzX2J5JLcSCAVbFmiWuqLJMqWDWwlJUX4bGUIaR6JUmG/GAN7XYGRCd0PP8lFhs/JFoBUHhrATAnq0Bs8ClMsgqNvy1mCJaXWKItgZEMTCJYnMbgifEiGhkqLKxnpc2qPWKPXOqaD/QtDWurTjZ22dxukT8iB5jq62Nz1tof07nLYmJEsrvsRgBlGQLH4rlEQY1dWd29r2dr1NqVmtTRjuzb2HreNBIa/Ip6iR0UanFWlxlNbDuLXPVC1bY0/V4FWpnqm+yZZJJIVVCtn0phMqySnM+zz0L6pAUz+0euVhb3VA0MqWEw2cjeryDkAacCiuXEDFFjxbVUkCKmkkKAF1yTc/AnZxKXpkRC2d2+ZCdlbZQDrzOMudChhZlyKa4GWXIqYDqfWeEhyulHuXZD+KRwYLuxQmkaBEDAuPsiCmwlIj0FubeqpoKOsdzsM0nrOzDGQgfVOg1gWZCAd3ikKwfV0xBW6t9plEq1peo1MGfAyjntp5og7aNMVaakHzJk7STRSGvvGXm4GFQy2f0DrJjnKWUYklRKdj3b+3IRjyoD6bUc446GohcibH/UkpsqgKehmR7ZhKPK4BW56w53uy6ptjzORflYdlXKAUFzogSK9A4Wy2skMRhykYRoQYke87YwLN1PjphSIkg3kgjR7Eo2yFIXF1AX1Pjee/tWRcjnlIB1lTsOVNKs7baWpFztizds/OBULJ6teSR5tKardR4U/Jopk5WeNE7wBuYmbTcJz5bQQJYnlXOJefMmzI2ga56ut0jHuzuk+YrjrZ3cDgmF9Y5fm2X8PAS6rGpRYvNNakyyp6UsuU7JiOO1UFKRmI5hFyZ5bL29nxKtLUpKKQsBM2csaOimQpvGGAyQgMT3RFStoIMBaeJWoTB/fTeq7wBQq7wI65YWC15q0RgJCuVSKog3oB9tWbFUEDTUDLhGgdEy75tSzlOnU2BHEVpyp5XFbVw0EIWiFlbbY0yZj2oEH1lGGLWEu/RkEuO5OBry07VTCUBjUaYVVhcio+WzDlylT2NOVv+okoBpc3u3STbU+rg0Zjwokx9hS92dnFi8SjZzrnByU+zgO3AREhGNkZs/arUUTklRYu0Cc7AHbJYYV3O1lJZXi+U4pdY8pOl3BOcWaLLtZecyANUviJ3mdR7Qh9w0VjDSkBdZYUc6mikQpIRgmd5k5VaZIc6X6zjyrqvGTsDwELKjEONpESlmelkRIWpWqvKEyWXUgOYjUdol2i9Y2s2o1t1VL5h1trMUjcVirJsGpqmxSNcnm0yWxsTxFOHhtPFkjp46iqwtb5JVeJottbWqZ1HKwOyNHgkZdpxw3K5sqbYUBG8Z220xlpVEZdzqtEMJ5YzOZtOSmZwxC166rFASqyOV0zbCcv5Kf1yhfaeuOrJcWDv6IDJZI1p3fLSKz/mkUdvkPZ6TvePSE3F5sWLLI6PqeuaEBynuWeVVozcGqfLU/qU2Ll/h/FsA0aRw4Mjmk2QmOhWC+annlAHUs7cu3sf31SM24Y7d7bxvoa6hj4SsKx0JZGy7ccZA3t9O2I0mxJXHbLWsrG5SX88p2oqRpszTuenpKohN4HJ1SswJGStZjIesbOc45oRo40N9pdzGgnkUQWTETFZw+p4NuWUOaPK4TYmVH3HsOqopxOcV8uTbiqkrjhYLIijtpzzC/EtwuHxMVU/GFk5KLnvqepQSu+sBDBxtozZXBhLQZ3GSN8PzBc9m+OJzZFiltvkrVW18hVDygSCuR5SiY3JtsejmeP9PVChj+WMpRYD4kpGqhcjhysfiHmBT5Z93BT3UN1WuH4wlXpprHfJ2rK986xKbnYtQk9pL3fQSCCmFd6ZjdbFRO1KJic2BztnBOkZoRZsUoGY2d3b42Qx4sK0tR3Zj1lrJzzxs49zc70pBZcZyY5nP/8sr3enfPSZj1i0i38REc/G+hrzVaSpPbULXBq17N1/DXdp4Mr0GoeHO4wm68T5EfeP51xcm/LOx5/kwfweB8c7HOz39MsxP/PIkywX/87arObFW3d448W38MFnPspXv/ECu3t3SJMFQ+tYzZc89uhjvLy9zaWNDVZHe/TS0nrl0riiDnMq11GrpxXh+PQ+165eZvulA77+jee48djPMwvC5Ystn/+7v+bkcJf56QHONQQcH37yQ7z84IjHLm7w0MPXCD/4Ll//5jd55fYr/Pqnf7uUVcGLP7nNBz74fu5s3+X+S7c5WS5473vej/xm4rN/+hlmoTInV1RuvPHNfOf73+fkeM7VS1eYbW3yT19+jk/92ie5/6V/5KXXtrm8tcW18XVuf/vfePHWXf7gd36f3/vsZ3Au8+d/+Rds39tntHmFTiPT9gLSjDg6vkeYXEbGUw5OBjau3WQxZDo/YnsJ88Upb3j0Bqt0RNCBUbeBn8747vf+i8N9x2TrYWZTTz9knnryKR6+eJ0fvHqPF+/e5pc+8GHe8djD/OLb3sbzz32ZLvacLBdGUswPcQQeGj/M/u4BT7/jI3z1377B4294D5vtmGld8/Tb32M4Q0604xErhZEos9mM5fExvp1Ct8Ifn9D3S7o0RXP1P+Fo/28//w2bzAbicarVSgAAAABJRU5ErkJggg==;" vertex="1" parent="1">
          <mxGeometry x="20" y="110" width="800" height="77.21" as="geometry" />
        </mxCell>
        <mxCell id="v1kjHRz2UVswL3TBr61I-2" value="TECH STACK :&lt;div&gt;DESIGN&amp;nbsp; : ANGULAR( HTML, BOOTSTRAP,CSS)&lt;/div&gt;" style="text;html=1;align=center;verticalAlign=middle;resizable=0;points=[];autosize=1;strokeColor=none;fillColor=none;" vertex="1" parent="1">
          <mxGeometry x="20" y="60" width="290" height="40" as="geometry" />
        </mxCell>
        <mxCell id="v1kjHRz2UVswL3TBr61I-3" value="&lt;div&gt;&lt;b&gt;&lt;u&gt;&lt;br&gt;&lt;/u&gt;&lt;/b&gt;&lt;/div&gt;&lt;b&gt;&lt;u&gt;&lt;div&gt;&lt;b&gt;&lt;u&gt;&lt;br&gt;&lt;/u&gt;&lt;/b&gt;&lt;/div&gt;22.09.2023&lt;/u&gt;&lt;/b&gt;&lt;div&gt;&lt;b&gt;&lt;u&gt;HEADER&lt;/u&gt;&lt;/b&gt; :&lt;div&gt;HOME --&amp;gt; ACTIVE, other components to be present but inactive&lt;/div&gt;&lt;div&gt;SOCIAL MEDIA LINK&lt;/div&gt;&lt;div&gt;CART--&amp;gt; EMPTY PAGE ---&amp;gt; Sudharshan&lt;/div&gt;&lt;div&gt;&lt;br&gt;&lt;/div&gt;&lt;div&gt;&lt;b&gt;&lt;u&gt;GALLERY SECTION &lt;/u&gt;&lt;/b&gt;--&amp;gt; DYNAMIC&amp;nbsp;&lt;span style=&quot;background-color: initial;&quot;&gt;---&amp;gt; Sudharshan&lt;/span&gt;&lt;/div&gt;&lt;div&gt;&lt;br&gt;&lt;/div&gt;&lt;div&gt;&lt;br&gt;&lt;/div&gt;&lt;div&gt;&lt;b&gt;&lt;u&gt;LEAGUE TABLE SECTION&lt;/u&gt;&lt;/b&gt;&lt;/div&gt;&lt;div&gt;UI/UX&amp;nbsp;&lt;span style=&quot;background-color: initial;&quot;&gt;---&amp;gt; Sudharshan&lt;/span&gt;&lt;/div&gt;&lt;div&gt;&lt;br&gt;&lt;/div&gt;&lt;div&gt;DATA FROM BACKEND WITH LOGIC AND SORTING ( EXTERNAL API TO BE CONFIRMED)--&amp;gt; Sudhir&lt;/div&gt;&lt;div&gt;&lt;br&gt;&lt;/div&gt;&lt;div&gt;&lt;br&gt;&lt;/div&gt;&lt;/div&gt;" style="text;html=1;align=center;verticalAlign=middle;resizable=0;points=[];autosize=1;strokeColor=none;fillColor=none;" vertex="1" parent="1">
          <mxGeometry x="105" y="157.21" width="580" height="260" as="geometry" />
        </mxCell>
        <mxCell id="v1kjHRz2UVswL3TBr61I-4" value="" style="shape=image;verticalLabelPosition=bottom;labelBackgroundColor=default;verticalAlign=top;aspect=fixed;imageAspect=0;image=data:image/png,iVBORw0KGgoAAAANSUhEUgAAAewAAAHrCAYAAAANL67YAAAgAElEQVR4nOzde1yUZf7/8RcHZzgOYo5BihSihViLh43UDbVd1PzhYcNwo/S7HjJcXTFdWWs1M+2Eaxt+NbVU/IpRUbQeWE3dlHA9UApshZQgimAggyjDcQaG+f0xnA+KhsDY5/l4zCPmvq/7vq77xuY913Vf942F0Wg0IoQQQoguzbKzGyCEEEKIm5PAFkIIIcyABLYQQghhBiSwhRBCCDMggS2EEEKYAevOboAwD9mHI4g5W/NmYCBL/Pu0bUNtClGRX5EPgJoxM4MZorozbRRCiLtZBwV2AQeXv8CG2g/8CSvYN8enY6q+i2kOrGDWB2dvXrCBya/EcjunXpO8hY1ba97MGdX2wC47z9GNW4gHwA+3aRLYQghxOzqsh12Ul0bq9zVvHuuoWu9yZRpSv0+7pU2GG+5QW4QQQtxRcg1bCCGEMAPmcQ1bV0DG9+fRVAAoUffzwtNF2Xr5sgIy0mrLAzZqPAd5oL7BJgA6TSap5zToarbx9vFAZQW6a8WmZYBS5YjSqraeYrS1K+wcUTXdv64YbVntho6o7Fqo1KBDk5VGRq5pR0rXfni796yv4wbUgZvJDGy8LCl8IFPrhq6jyQxrffxbp80h47vLaGsXOPVmiFefNtUNoMtKIylHe8vtvtm+cOqNd/8+zc+nEEL8gnXtwDbksHd1GK9Ep9SHSg2lVyCr1i4naED9p7o2LY4NEeFEHSmoC9h6jgwJXsM/Vvjj1jRUNIlsDFvIuuPFjZfbeRH0ZjCq0BWYMtCPtxI2E+RiWp20wbcuHEe/mcD2wJ6Ndxu3FN+XEkxvWgjP7Lg1vLg6mqRrTdpj50XQirWsCvTgTmSW5ngkr0dsZm9KcfOVdj0ZvWALm+Z4tV73tUS2znyBN5qeL2dfXt6ynjk+jm1uizYlkkUL1xOf1/Q35sjw0PW8G+KL+ja/BAghxN2k6w6J69LY+txEFrUQ1qbVsSwLCmZjSv0Hve5sHFtbDGuAYpKiQxm7OqHx+suxzPKf2TysAcrSiKkL6/akI3VrMGMXtxDWtfW+FMjUjSmtHMvPqzv7+EcthzVAWQHx4YE8G5XZ+i5iI5qHNcC1RN4IeoY3zrSt1ZrDK5gatLaFsAYo5mTETPwXx6Fp096EEOLu1mUDO3XH0voPfo9gth9OJvPcWTK/O8SH831Mvb+yNNYt20FqzUQq9ZRQlnh4MSksnH2HE0lJTCQlIY53Z9b3FnXRm4nJqq2lmIPr1hBfO2yNB0GvRnIowbTd9lBf7siE5rQdvBheG8YeTN98iLS0s2SmJfNV5AsMsQPQkRqxnK23NqesDZQMeX4h45x9mfNmzbEmJpJyOJqXn6zvGSeti+bkDXJX6RXIqo8OkZKYwKHNoQx3rl2TydbZa2+4LQDXDvP60lgyato0ekUsid+dJfPcWVI+X02Qh6mY9sAKXj/QypcLIYT4Bemaga1LJGZTbQ/Ph1XvLWe0e03kKvswPHQLbz9ZszpzM3tSan628mL+v2J5d04A3u6OqJwdUbl4MClsLUsG1e48haPJBaYfNV/xSVzd1Wmmb43lrWBfPF1M242eH8m+NX7tfXCc/GxzTVDBkBXrWfVEzXVjKyVuI0PZvsa/9uDYsC+llf38DM4BbDoRycuBNcfq7IjK3Yc5b64lqLZMWSwnWvuyYBfMpo9WM31oH1TOPfF84gU+/Hw1o+u2jeaLxBsndvaBSPbWfFFSBkewabpX3RwD1aBA3vp7KG4A6Ngbe0h62UKIX7yueQ07M6VBrxfO7IuoefBGPa2uD5AD6Mi4WABDa64fV+WQ+lUiJ7/LoaiudDGpDYeea29tupRWc38wQDDjRza/aus2PpBJyxPY+3OOp5FMko40CLPv9rEuokkRrQ43IBvQnTuPBh/U7VZ/bR2ZJB0/xdHzDaPwct0XCdCha+0WsGn+jG46ga53ADOCVxAfbXobn5YJfl6t7KCYs6frv4j0yktgQ0RykzKXUWM6ByRkkg3tfw6EEMKMdM3ALtOaPqgBSGHvxrb1MnVnIpg6ewupZTcv23l0FF2uf5e0ewtJHdyC7N2hTAw73OLcgDaxamk6mrLRLPjsohv1sHUUNag8+0g0G4/cbmOEEOKXoWsGtnNvvIFUAAJ49+iK5j26huwcwZDG1r/UhrWSIfNX8/LEx/B0VgI57AkNZOWpJtv19WI01PSyo/ni+EKG+zUOo+wvYtvUuz6ZkwM0nCWuI/W7hBZKqnAbBNQ8RGbSO4d4baRT6zu2UrTvdfRrcbxRF9YeBL0axvSRg3FTASSzzjeEqJvto0yLDprMIi8g41z9O2/XG7XakV4NHpTmuSSaz4L63aB8O58DIYQwQ13zGrbHYMb3rn0Tx87dOSida6611r6scsguq/lZCWjOcqau5xrMy6EBDPHoWVe+xVuU1KOYFlA3HY2oOYHM2xpHalYx2qw09m6cycTlLYWuidKpPnV0uw9zsmHPPiuWndEtHhxDxtVvt3fnv8hWNjk2FWTnFdX83M43dmWmcbD2Z7+ZLAn2q7/er1K27Tay6HDWNZkJrj0eyca6U9WH8YM9brADJUN8A+reZWyKJr6qyTlwdqTosqbm9y43ZAshROf0sGOXM/FUax/CAaz6fCbTwwLYEBqHDkiKCMT3dDALAvzwdtaQmnCYD3YnoHGZyWefLzXNqm40TPsVe448g/eoPiircji5Oax57xoAR8aFrWbc8TAOXgPI5GB4GAfD23YY3iMDcVsXYRq+vxzJs2O+YvioUXiWfsWew5mtDjl7By1l0qZQ06SrlAgmjjnF9OcDGOOlJj8tgS92xhKf15s5H8Xy8tB2DisrBUowzVA/fZgvvh/L9EGOcC2NmPDVbbyFLZOtz/iRGhzMEGfQZSUQFZdWfwua3wsEDbrR9qAaO5MlHnGsywTK4ljkf54j0wJ5wq8fZCVwZPdn7E3RM/rNfWwPbONzy4UQ4i7WOYF9LbPxJLBGTA8aVz25ms8u5TB1nen2J+3xaN443qTLmhnNG9EBfDjHC6XanwVzPIjfmglkEhUytsHQrhJPjz5kZOY0r84lgE1x6lYfnDJniR+pq7dwsqWmDgrm5cDtzIstrjuuk7sz68qqnB3RXmvhliRnf97eFUrOcxEklQHXEokKT2wyFJ1J1NvRTI6aiXd7ZvbDgax6YgfLjuigLIGVT/mysm6lB54ekHGDW7ABlHZKdGXFnIxu4bx4BLJpVeDNJ4hZeTF/WwTZs0OJyQTK0tgbuYa9kY2LxYev56BfOONkxpkQ4heuaw6JA6DE+4VoEveEM8ffo8k1TCXqoQG8HHmYz+qeyKVkyJIdfBjqh7rh9W67nowOi+a9528wRKv2ZX5kImnH4/gsMpIPIyP58PNDpJ2J5eWR6gY95T70cm64oSPj1vyLD8MCGNJwuV1PRodGcjhiautHN+gFPkuI5d05/ng6N1nn4sOksEgSPmrnsAaw6kPQO7G8FezT+Jw6+zA9YjOrnrj5Loa/HM1nr7ZwzHPC2RezmnG9W920sd7+vPWvBNP5a/qoWWcPxs0JZ99hCWshhACwMBqNxs5uRFvVPtO70fO8b1hW0abrn5ozCeT398O72cwmHUnhgUzdWtPl9FnOVzHBNfcHt1CnthidoW11NlP7XPLWnjl+Jxh0aLV608S227xWfivn+eY7q3n2+s9ojxBC3K3MKrDviLIEVo4IIarMkSFTpjLZz8/U4712ni/iNhPT4FGn495JZFNA25+TLYQQQrSXX3xgZ0QGMvbNmz//U/VkOPveCWj+h0OEEEKIDvCLD2wMxWR89RkbomKJP958ZrfSxY/pYaEseNILlYS1EEKITiKB3UTDv33d4t+4FkIIITqBBLYQQghhBrrwbV1CCCGEqCWBLYQQQpgBCWwhhBDCDEhgCyGEEGZAAlsIIYQwAxLYQgghhBmQwBZCCCHMgAS2EEIIYQYksIUQQggzIIEthBBCmAEJbCGEEMIMSGALIYQQZkACWwghhDADEthCCCGEGZDAFkIIIcyABLYQQghhBiSwhRBCCDMggS2EEEKYAQlsIYQQwgxIYAshhBBmQAJbCCGEMAMS2EIIIYQZkMAWQgghzIAEthBCCGEGJLCFEEIIMyCBLYQQQpgBCWwhhBDCDEhgCyGEEGZAAlsIIYQwAxLYQgghhBmQwBZCCCHMgAS2EEIIYQYksIUQQggzIIEthBBCmAEJbCGEEMIMSGALIYQQZkACWwghhDADEthCCCGEGZDAFkIIIcyAdWc3AMBoNFJVVUVVVRXV1dVUV1d3dpOEEEKILqVTA9toNKLT6aisrOzMZgghhBBdXqcFdmVlJRUVFZ1VvRBCCGFWOiWwdToder2+M6oWQgghzFKHTzqTsBZCCCFuXYcGdmVlpYS1EEIIcRs6LLCNRqNcsxZCCCFuU4cFtk6n66iqhBBCiLtOh0w6MxqNcuuWMEOpxIRE8G/gdwvfJ2jgzy1n5gwlpMdHEfXxv0nMKETv5M7g0UHMmzOB/g4tb1J4Oob3PtlP4uksSmx70H/Y75n35+cYrG5QqCSd/Vs3EROfTJa+hTI3qbcwfi3LPk5vsf4b/j5K0vnywyg++TKRdI0eh76D+d0f5jF7bH8crJoW1pO6cxkRJ0ro8Xgorz3rjaLtZ06IdtEhgV1VVdUR1QjR7q7+mE46MNjQPuXMliGX/a/8kbUnGsxBKcoiec9a5ibnsuGD2Xg3SjA9qVvmsuDjrPpF5YWkH9vG4tPfs/z/3uK3aqA8lU3zFxBzqbZQfZml299igvrm9bqWXyX9x5YCW4Fva8eTt59ls9aSWF6/qORSMrvD55Kct4H3ZzYOZH3iJhZHJqPvG8SGpySsReeQwBaioxgKSY9PIOHSVeAeBv32d/j2bdA1Lcoi+UQiSXnFgCOuD/viN9i9cW+v4T5sXXnst4/BiX9yqhAGjJ3N470h99g29mfAPcOmMeXhmv1fPsa2Q+eAAUyY+TiutfvTpPPliQQuFgI9BvG70b64O7XQditX/GaGktpDz5QXpph61CXHWDvxFfZf2kXCj7PxfrjhBgq8nwrlOc0pBr0wD181YEgnZv5cNv2YyOHThfz2yR6kf/q6Kax9Q4l+fQqulJC8ZS6LP01k7ZYv8Vv525vWO+/Jtzj6ZO35qQ949z+8w/TWetdqP2b/OZV7yqcwb7KpR11ybC0TX9lP1s4E0md6411bNm8/r6zajR53Zq+Yh7dtW37ZQrS/DglsedSo+MXL+5JXQtZwrKjBsp2b6D/jHTbM9EZxKYa5/7OJxv3ETUSMWMqO1ybgagXkHWPtX19h/6X6Ert2OuBACSXlEDTMFNiFZ3ex62Pwdfk9U2pDtPB7du2MAYJ4rCawcw+9wtw3j1HSoMZdW/rz3NsbmP1w8z6kg+cEli5puMAFVxcgr5VjVg9m9vLB9e+tXHHtA/xYuyCdxAO5AEz5fc0x4sDggCD6fxpBevxJkpf8lsfbXK+e1K0v1YX1hjk36AlbOdD/yaUsbbhbV1fTeWlYzpDL/nfXkliuwDfsTZ7zbG2HQtx5HTLpTAJb/LIVsv/dNRwrUuD75/fZ9++jHN33PqEjIH3nYjad1kPfKYSGhbJh1z4OHjzIvu1L8bUF/YkIdp8FKOHYzjXsvwSKEbPZsGsf+3ZH887T7ujLb1Z/CzT7iXjzGCW2voR+sI+jR4+y74NQfEln1183kdyGuy9zD2wjKg9wCcLvwZuX138XxbYvAXzxG9YDCi/xfZ7pfX+PBtHatz+mmD/GuUvN99NqvWejWPxxFqCg+NIpEi+UNN+4NYZc9kdGkQu4/sGP/qYWm74AJIJiRCihY11J/Xguc0Pmsja+sO37FqKddIk//iGEeSjk2LplRNV1g/sz/Y2lPN7jZpslk5AI4MuQ3iWkJycD4PqwL5w4xu4z6YQO88Z77ARyM1JJzQVwZYgvJMbrycophIdz+f6AHujPvBeew7s3gAODZ4Yy/dBctrXWy221SQkkAgwbguv1dJJP19Q5DBKP7ebUj6EMfrj17XPjlvHHdYnobb2Z/WrT69fNlSRvYsHiGLJwZ8LKUCaogdvIvBvX64j7g/2hPJf0EzGsOZHIxY3vM3tget2kQJPfEbo5qH7Iu8EwuuLh2ayaYeqZ67/bxtqPs8B2Cq8tN40AFBalk/4j9LidL0lC/EwS2ELcgmKN6QPbpAfFbZlkZqi9pTGZ/ZF5jYZp+z/YH5xoMGSuoIenO/dYgb4tIXy7k9xqt/t2P9vyG7WI/g/CPc1mSdfSk/X5K8z930T0tr6EbnyNKQ/cOK0LEyNYvGw3Wbgz5a13CPWt+YbTw4X+tpBYnkxWHlA7K1yThWmq2mDud7mFegcG8f7mIABSI4NZsDOLXYeSmT7QoW5SIDX7rVOexe41c4k4oUcxIpT3l0/B3RYglai/xpjaUb6bZRN2N6oqMTyQMeFBbDg6rz74hbjDOiSwLS0tZVhc3AV6MOGto0y45c3ccbeFxPJ7+N2L7/Nc7TCuoYQSvQMOtpAauZhjRdD/T+/z/tPuACS/N4bFn9buxJ1BTyqIOZDOpr9vw/2v0+jvUEz65xGm4eGGFApAT/KP6eif9EUBZP2Q2rhJfdxRkIje6Xcs3fgc/WsDuqgEvZNDK9d+9aR/uJgFW1PR2/qy9IO3mND7xoeeG7+Wl1btJwt3gt7ZwLzBDe//6s+QJxXs+lzP7i8Tmf1wTVuP7Tf1/gc+xsAebahXk06qwR1vl9a+OHgz7+hR5jVdXJ7Orr8uYNt3ehQN5wrUHq30okUXI4EtRDva//e5JDeaRWwaNp/yZ192hyeyLWQip8ZOYLDTVZIPfUm6tykoevToD6SSdezffPnAEBwu/5tNnzbcjwOPv/AWU1IXs/u7XSx+bpdpsa0p8BuGS/+HJ6BgN/o9ywhM7o8ruaRfanI9d+AUQkfsZu2JbcwNPMVvxw7mnqJk9h9KxztsB2896UpTWZ8uYMHWdPSAwqGQ3avnUtfvHB3K+39o3NcsObGWuav2mya1OUHylsXMrWvkdN5a8jiDnw7F98BaEmvbqrhKVkYh4E5QyARcb1rvn5in+SuLP9ejUPfHvQemIfFLJYCCKb8Z3MqXjyxiFi5gW4YeUOCQv5uV8+t70b9b+H4LIV/I/mWBrE0E37BY3nryZtdChGhfHRLY1tbWcmuX+EUouZTeZKa3adjc9cm3+Ei9i/DwKBIPxZAK4OTNlN94c48VKAL+xmsZK1kTt4s1S3eh8JzA9KcHs+3T5PpdOQ0mdHssExrd1uXKqf9ZzC7641pzO5Zi2DzeD9Pz+v/uJ/1SOulO3kyZ403W1hjq9mblyoTXPsL1w3DWfJzIl5+aeuAOA6fg99A9LR9boSk0AfSadNI1DVYObl5eX3S1fgZ6URbpDWfIdy82/ddlAq9thIg3ItifUXPunAYze+VynquZqX7jervhPnw6j5/+hGOXGqyr3cfg1nrdJVzNqNsrhRnpjS6p37X30wuzZmE0Go13uhKj0UhJyS3M2BTibmbQU2JQ4NBSlhj06A0K06h2s3XpfPlpCQMnD8a1phdfeCyCBa/sJtd2Cu/sDqVpPunL9Shs2/CYj/IS9AoHFK1eu+4A5SWm89LiiWkDg56SEj1Y/Yx9CNGFdUhgA1RUVMjjSYX4GQoPLSPwzcQW1ijwbWUYWwhx9+iwwJZethA/k6GErOQEEv9zin//YJpp5vLQBP7fU02emCaEuCt1WGCD6e9hy5/YFEIIIW5dh/15TYBu3bqhaPHinBBCCCFupEMDG0CpVEpoCyGEELeoQ4fEG5LhcSGEEKLtOi2wwTQRTafTyexxIYQQ4iY6NbBrGY1GqqqqqKqqorq6Wp6KJoQQQjTRJQJbCCGEEDfW4ZPOhBBCCHHrJLCFEEIIMyCBLYQQQpgBCWwhhBDCDEhgCyGEEGZAAlsIIYQwAxLYQgghhBmQwBZCCCHMgAS2EEIIYQYksIUQQggzIIEthBBCmAEJbCGEEMIMSGALIYQQZkACWwghhDADEthCCCGEGZDAFkIIIcyABLYQQghhBiSwhRBCCDMggS2EEEKYAeuOqKSH6wMdUY0QQghx15IethBCCGEGJLCFEEIIMyCBLYQQQpgBCWwhhBDCDEhgCyGEEGZAAlsIIYQwAxLYQgghhBmQwBZCCCHMgAS2EEIIYQYksIUQQggzIIEthBBCmAEJbCGEEMIMSGALIYQQZkACWwghhDADXSiw3Zj/8X8pzL3Q+HXxv/zw7038bayqSXkV/i++y8FjX5N78QKF2T9w4es4PlkzjQFNSjo9uYT/i0vgh4wf6vd59EPCn/Xs2GNp8Lrw8fO436ScqUz98U7d/nXduh+2T8PpBnWe+t8xKJucr6nvJ7SybyGEuNu0NVPa+nlt0vF5Uq9D/h72LSvVkJVfAdY2dHdV08t7PEvWqqjIfJZ1GQBK/FZE8v7cIThZg65QQ1aVEnc3b/xnr2JADyVT/rSTLEA58mVi/v48v+4BaDVkXaigey83ej00gjmrNmGjDWDhPl07H0ARRbkZnLugRgnY3uNGL1WD40JHfq6W6y0dc50mZezHMHGQum5tr0Gj8e/xCZ8VttyCAb5BTLQ/ymelNQt6PMnTw9za5/CEEMKc3DBT2v553Tl5Uq8L9bAbyD3CtBF+DH70UUYv3UOWDug1lIlzhpjWP7SAvz1nCuv84xuY9uijDP5VAAs/y0CHEvcJ0/nbRCWgZOyz400nN/8oYeMfZfAIPx6a/QHfagF7T8b+fnyTnmp70LLrxUAeG+HH4BHP8r/J2sbHNcKfcS9+QlFLx1z3alxG6TeGR1yBKh26KsDVm7EjG/ehG3EdytNT6kclek0dx69c2/cohRDCLNwwU9r6ed1ZeVKvawZ2A1kfx/DNTwBKXNwG0QsY8PQYHlEBulT2hq8joRQgm11vRJGQDyg9+fXE8ShRca+TjWlHNr0YMMjUw9R9tY6Fc+fxP3Pn8eeNSY2Ds0tS4jfWG3drIPcECdmAtRu/HjuCViPbWs2vJkyhFwBuTB87tOZnIYT45WopU9qm8/Okywc29mqUtQP3VTp0qHj0gV6moMrP5lhqg7K5RzmXaxqOcOnrjTsavv4+23QCVd7Mee8wP5yI4+D/rWKiaz779n3B4TPZHXo4t2coE2uGs/PTDrLvBw0A7j7j8LVvoXi+hvwq6OUzjulugGcQYx9WQVU2WeZwuEIIcac0y5S26vw86dKBrfQcw/y3nsfPDUDLD2dOUIQSJ7uafqWuiKzSxttcLzGdfqXSVObbN19nw74MiqoAayW9HvDm12OnseQf0SR/uAS/lgKvM3hO41TDiQ7Zh1n/UM26R8fxqJsS0PLD8SMcOpVu+kfjNpSpPi3sS3uGxFygxyDGPuPJI8+YRiR0F5P45s5dXhFCiC6t5Uxpu87Ok64Z2DXhlXtsO6uneuMEFJ35hI3bsgEdRWU1qaN0wr3JCeruYApqna42mZJYN9cfnz8sY92HX5Dw32yKdABK3J+Ywd8W3vmZfW1SqiHrQnb962I2V2oO4ZFJQ3FXAtoMvjmsIf9AEue0gNKNRyYOaWFnRexLzAZUPPLEdOaM8kSJjqzjX1DRQmkhhLir3TBTbkXn5knXniWODp1Wy4+n97Bh+U6+AUDL1xfy0aFG2cuNx71h39c127mOYYCrKbDzLqWShRL/hat4bpANl468zoq/fGIq9+gCdkcuwa+HCvdBI+hFBvkdf5SN5R5h2uPLONdshSdPD/M0XQJQDWHJiQssqVun5EGf8TxCEt822ercZyc4N3EaA7yn8TRKKE0l4dNsbEbe0aMQQoiu54aZ0ladnyddM7BbDS+Tc58e5dvnvPm1yptJixfw6R828A1uPPfydPx6AboMvtn3BTrA5qERTJzohs6jiK8PrWRfIWCo31d5aX7XnnTmOZlHPWsuAWg1ZBWZ+si2Tr3opVKi9BzB0w/Btz803qziq70kXJjCgIeUKAFd6gl2ndExp2NbL4QQne8mmdJWnZ0nXTOwb+aHDfx91wjenzuEXqOWsDc1iLwqJ9x7qQAdWfujeL3mXrhDu4/y7dgZPOI9g/dPPkneVdN9c072QGkGx/559BYmHdxBrk/wyYmEBgt05CduZUnuCAbYA1XZfLbIn7kHaq7Rj32XU9sm427vxqO/d4M3m+7wBJ8mZDD9IW+UaPn2SEyzXrgQQoi20nV6nnTNa9g3pePw6pnMfWcP31zQgL0b7j2UFOWmcnjbSqbVPDQFQHdoJXOX7+RwajYVVmrcH3DDyVpL/g8n2LpyEQsPdIm4BntT2+pfngxw7cu0Rz1N9/VpUklIrG+r7vRRvs0FUDHgscktPrXsm4+O8m0poP2eQx9ldMhhCCHE3aqz88TCaDQa72gNQA/XB+50FUIIIcRdzUx72EIIIcQviwS2EEIIYQYksIUQQggzIIEthBBCmAEJbCGEEMIMSGALIYQQZkACWwghhDADEthCCCGEGZDAFkIIIcyABLYQQghhBiSwhRBCCDMggS2EEEKYAQlsIYQQwgxIYAshhBBmoEP+vCb/tLjjVQghhBB3M+lhCyGEEGZAAlsIIYQwAx0zJC6EEEKIn0V62EIIIYQZkMAWQgghzIAEthBCCGEGJLCFEEIIMyCBLYQQQpgBCWwhhBDCDEhgCyGEEGZAAlsIIYQwAxLYQgghhBmQwBZCCCHMgHVnN+CXovxaER/98a/kn88Gbvevlxm5t19fnolai43KoT2bJ4QQoouTwO4g+T9kUoY1Ngv+AgoFGI1gaWn6b+3j3K2sTP+trjb9bDBgYWmJsXaZXk/Zvz5F8+MF3H79cGcdihBCiE4gQ+IdRHPuAga1KyiUGDFSff0aAMaSEoxlpaZArqwEoxFjpR4Le3vThnZ2dcuMVlYYermiOXehE49ECCFEZ5AedgcwVldTkJ6FoY5ACFwAACAASURBVJcrlJdivH4dY2UlRoOB6sKrWNjaYensbArvSj0WWGBhbY2hQINFaQnVV66AQoGFUgFqFwrSL2I0GrGwuN2hdSGEEOZGetgdoPx6MddzNVi43Ed14VWqr+QBYCy6Dno9GKowZF/Csnv3+l62oRpjeTlVP/6AUV8BhiqM5eVw731cz7mCTlvSyUclhBCiI0kPuwMUXb5CucECC6fuGNJSqb6cg6Veh6WNLZXnfsDSqTuWKieqLpynurAQS2dnLCruofr6daqyLmDl4opFWTkYq7G+34OyKiNFl69g4+TY2YcmhBCig0gPuwMU5eRSobDD0tYWS1s7LOwdsLC2hm7WWLm6Ytm9O8bycozaYozlFRhLy6j6MQ30Orp5eGLpqMJwtQBL5x5Y2tpSobCjKCevsw9LCCFEB5IedgcoyrlChdIerCxQTgjA0tI0G9xoNGI06Ckryqe86Cp2qu5YAqXF17FV3YOdUy8srBR116qN1QaqrhfeVmBr0+KIioxlz/Gz5Nv1Y/T4YJ6fFYC3c3sfbVsblMgbK84T9E4wnlZ3sJ6yHOJjd/DJPxM4eakCt2FjmRz8R6b79UEJcDmWWUGZLEhYypCbteNWyjbcZvwK4nW1C5SoB/gyPnAmC2b4or6Tx36rbuf4hBAd5i4IbB3ZCTtY+dJmWLyP7YF9OrtBjVSWV1D00xWqHFRc/XYn93p4YaP2oMoAxdoyDHnxVOQcQWFRgqq7BVZWUF1kpLzKAcN9o7F2HYOjyh4rKygruEBexvf0tB9I0U/5VOn0WCsVN22D7lw0ixYmMDQsjG1L+2BTlkPS7gj+tFjDe5tn4q3sgBPRNAxUvrz8ji/cyWDQZRK1+I/E9Azh5bdCeM25gvy0BKLWzWKRZjPvBnrQEYeOKpjtcaF1IagrOMuedSuYRwQfzvTqmDYIIZrRpMTyweZo9pzW0GvYRJ4PDWGSl2Ob13c08w5sXQ7xG1aw8nQ/hnspyO/s9rSg7Op1iovKMKpdsdamM7D6AA6lCrLzjBi1Stz7PoCq/2+4eP5bCgrysLSA3ve50NfjVxQXXSbrwhp6OFXQx8WCsmo9hZX9MDr6or12kbLC66hce920DRlHo9FOW8t8f6+aJV6MW7AcXfgOzl8Gb487ew5adYd7cRmxq9lqF8auVQG41dSlVgezqg/M+2Mk8X6rGXdnm1BDiUrliKr2eFW+zFnwDF/87RQZM7zwlt6sEB1OlxbJoqUpjFixhs9Wq9GlRLJsYTjK6NWMU998fWcw72vYBSmcIJht25YSNKBr9lPKCq9TrDNg3d2ZS9dc+OI/BvT6SkpLdLj06sm9/Z7BzmUaZRbD8Bmo4JGHFJQyFHuXabj0C8bl3p6UlujQVVRy8D8GsgpdsHbuQYnOQNnV621shRJtoRZtw0VWfZj00nIm1YR1Urgfyw6kcXJLGBP9fPEdP5NlWw6TUdZkV3kpRK0OaVAmoVGZpHA/FkUnEPPqTEaNDGVvHnAmAp8xK4jXRDLVayCjNqaZetxjIkgyYPo5YAvxKbGsnDEWH9+xPLs8mqRrDSsuJuPAFhY9MxbfYX5MfSmSk9/Hsci/Zh9NGTKJ360laIZ/XVjXnQ2PiSxZ40ez/+cuxzJr5NrG+2vYzhrac3G8MScA32F+TAxZQ9SpglbO+43pmrzLPhLJspkB+I4cy8Q5K9h4OLO+THudo7JM4reu4NnJfviMDGDW6miSNC007mbn4nIsswIi2HtkC/Mm+zEqIqXN50+IriDjVALKmaHM9/PCTd0TT/8Qnh/2FQdOF7RpfWcw78DuHcDLS/zxtOuaYQ1QVlhEqc6AlVN3+g57mpRL7nyy3xJHBwUXcowcPHiM2M/28FPuVdzvs+L+3pbk5l0jNnYPXxxM4EJONY4OCj47ZE3SRTfchj2NVXdnSioMlBUWtakN3uNnMvDAUmYtj2TvqUw0TUO4RtLmcPYoAvlHzL+I2xLKiPzNzF4eR3bdh30KGxeGccI1uL5MbgSzVx+m/jNfR3x0HNrxq/ksbo3pm6hPCAl7ljJcHcz2xET2zfFqXrlmHzsPKZn8ZjSHPw9nsiGaFzcn1n3JyI5bzezNGkb8ZTtxBz7nrQD4JDySZF3zXQGgPc/3lwfi7dHSvw1HvP38GXI735JLv2LdhjQGLdpM3IHP+UewmhMvvcC6M601pDmdJoWozbGop46qu36vObyG2ZsvM2TBZuLionlvkS9F2xey8nCDD4effY6KiV8XwhvnfViy/nMSdm9mhuowL25MaPxlrq3yYvnktAcLtvyLfc+38DsVogvznhnJ9uDGw4tKq7av7wzmPSTexRmNRsoKiyirAqWDI73Uah4Z8hvu4SRurjm4qHPJyr3CZb0CdfdKLKgCwL3Ht+Rf60ZvJz3u91WjsDbi4nIfdn1H0st9ABbl5ZRVmZ5PjtEIN3uAinsAb8f04WBMLJ+sWM+iPDXDg/7IgucDGe5SG2g6svsF8uFM35qeZ08mLVlB+jOrOXgugDleoPkqmp3qhcTN8asvExZGelAEe9L8MeWwErcpM5nzWMO5BEpUKhVKChoPDTcykCkzA2pCtCdBMwOJWZxCtsEXb9LYu/0sk16JJWioqb1q9Uz+pknBb20rx1ymQ4cKpf1Nf023SMn45xcyaVBtO17gtdCzBHySwIyh/s177QCl0czy22e6Vl1VjOYaeAeH8960mmvohjT2fHCeoFWRBHnV/D6cA1jy18tM3fwV2f6BuAE//xw5MjosliE4oqqpZvREf/osTCPb4If3LZ+KUTwf4o+3qub9tRuWFqIL06E5Fc3O70YxI7TnbazvGBLYd5BBp6f4SgFGOwcs7ez46fx3TPjtCJLiv6Ss3IC9bTVKq2p+7aWjymDERmmNBdC7Vzl9XSsovF6NwtqS0nIjCqsSAvz9OHT2W3r396HaxhbtlatU6SvbNPFMqfZh0nwfJoUsR3M+haOxm1n0x0ze/mg5o50BlAwZNrBx4Nh5MXSYht0XC8CrJ9nnUvB8LKRJGR+GDsupKwOgdr6NSRnWavr0aPDeXoWqNMc0JFx4nu+vPMY0r8a9ZfUjvnhbtTSeC9gpUaJFVwqoWi5yW+wHM2RA83Z4bs0k30DLs77tA3k7NqRm0lkFRZcSiXp9Ocui+/HhdA8oPM+ZcynET/fng4a7ripGaxeCxoApsNvjHFlDfsph4s/mkJ57mezkQyRdC6Tt4wMNqVC1+xciITqWJi6MgFcPo8GHJVvXM1p9a+s7kgT2HVSp01NSVIqloyNYWNAdLQrre7HAgh8zDfS+15KLl6t5oI8Vx05XcSLZ1MNWOcCoXytITjVgo4DLV6oxYgHV1agV5RgtLbF0VFF6vbjNM8XrWJluKwp6qR82mqf44nQoo/1vELBNrz12xpBQTRtaGtxudYhK1Y9BvTeTeknH6EFNtywmIyEZnddt9CpbcePAU6JW96wLc7W6Dy//LYeJb39FRrAHngZMoR4dynC75tu2PCLRRFvOkSGHvS+FsEHnz/TxgxkxeBR9Jnig/XMrX3qE+AVQP7GCuMEhZByP5I2VmxmyYynDndu+viOZ9zXsLs5oqMZQaQBra8qKr2NroSP+6BFs7O8j+4oNp1KqsLQwYmFh5Pdju/HfHwykpBn4vb8CLIxYAKdSqrh0xQYb+z4kxB/F3spA6bUCsLbGUGXAWF19k1bksDcsmDcSiputUUKDANaRlHiWRh/dZSmcOa1m0P2mnrPbAB8ympVJ48zpPnVl7gjnPng6JpOU2TgWNT+mkKpvZRsrD0ZPURGz8zCapl86MvfxxvI4cppuo1CiQou2tH6RLi+HnIbblyZz4lzjdmQnJ5L9sEezyW03onRUoSrTm4Je3Y9BPc+SXexoCvbal3UFRQZF2277ass50qRw4PhjvPxmKNOf9GP4IA/cKG5+fqBt56I9thGis9k5ou7twfCgUBY8uI89p4tvbX0HksC+g6wU3bB1sMFYWkpRfg5l2iIuZ2fj4OROhYUXid8aSM2oJjvfmaw8B3x/Zcujv7LlUp4D2fnOnD1fzan/GtAxEEfnfmRnX6KsRMv1K5eoLi3F1sEWq27dbtKKPgweoWZPeDhRxzPJ1hSjuZxG/JbVvHExkKBh9b1rVXIkr2xNJCOvGE1WCjHh4ex9OITJNfOJ1KOCmZG7vr7M5RT2hq/m4MMz68q0ylFNL86SlFKA9lbHX5U+TJ6lZufr69n7fQ6aawVknIpm3UdnbzgJxHNKGHO04cxbHcvJzAI0mhxSE6JZ9pcdKBeENB/a6jGQof0O8cEHCWTkFZCdEseG7YdpNLXPHk5+0KAdCVtYGaFhxjS/G4y869Bqi+temsxEorbGoh3ja5p0ZuVFUEg/Yl5ZS8yZTDTXitGcS2DjS8Esi8ts23B1W86RSo2bYzJHj6TV17Eptn5S4a2ei/bYRohOUcDJLWuJSmn4f5eS+sHKm63vHBLYd1A3WyXd7+uFhfYaSotuWHbrxuOjR/N9WgF9PQZTWGTNyWQD6QW/4eA3D5GW8yA/XH6Ig988REbBbziRXE1hkTVuHj6c/bGAx0eNwsLSChvLblgVF9H9vl5Y29y8/+U2ZQ0fhvYhNXIpU/398HtuOZ8U+vKP90IZUpcySrxDwphmiOXFwN/h/0IESa4hbFvRYCKVnQ/z169mRG4kLwb9joDZEZxwDeG9Fa1MtmpI5cv85QM5sfIppm5OueVrpp5Ba9k+TcGB12bhP+YpXvxcx+TQmTe+h9nOi+nv7GCBexof/CUYf/9gXtyZieeCzbwb1MJDU6w8CHp1Bd5p4UwNCObFTzSMmBXcuA7nsSxZ4kP6hhAC/J/ixZ0axoSvZ77PDX4P2mhm+friM8wXn2F+BPxpM6n9wtg2z6euDeonV7NrQW9SNy0lwN+PgKXR5PutZ9MtPFjlpufIzpcFfw9GuXspAWP+H7MikvGc9keGtPQh1JZz0R7bCNEpeqJ2PM+Gt9dz8Psc05f5A5vZcHos430c27C+c1gYjUZjp9XejpLC/djQL7rLPeks+5vv+GLTZxQ/OoqLF0/gP/xXvPn6Gu5/4AFysrPJzc1l9JgxXL6cQ0VFBRjBxsaG3r17Ex8fj4uLC259+3LxwgVWrnqVuCOJ3H//SLon/Ydx84PoM6R9rsJ21fN3Q+cimbpYz6o9L0gotEbOkRAtMxSQFBvJBx/v4+QlGzz9Anl+wR8ZV3sr6M3Wd4K7JrC7qoqiEuL/sYPvr0GqoYDq65l0s7biP//5D1ZWVuh0Ouzt7bn33nsZMnQIlpaWfP3112jyNZSWlqJUKjEYDIz8zW+wtLKm3PIefGxdeUTdjVGL/gelY/tM0+3aga0jNTKElecDWDJrFN49lejyzrJn82r29FvDZ/N95PGeco6EuOvJkPgdZqNyYOCTj6PKScf9nvvJLTagr9TTzdpIz+56VA4W2Ds48NiIEYS99BJLly3j0Ud9sbe3x9EeenY3lbWwgCxNKff3fIDuP2UycIJfu4V116fEe9oKFtyfwgcvPoWv3++Yuiya7MEr2D5HgshEzpEQdzvpYXeQ0//3Occ+/ILKp4PJupLJ2WNxDBw8kMzT++jewwPX+9x45Fe/wlht5L8pKeRfyeXa1XN4/Hoiad+e48FH/XnAtT+Kz6Lx+5+JDHlucmcfkhBCiA4kgd1BDJVVHN+4i9P7j8PkaZQ52aHX68hNP0P3kn30de2BUmmDEdDrKsi+cp1rdhNw6T8UhbUCe20ZFntieHTSKIbPewZLa7mFXgghfkkksDuQobKS0//3T87sS6Bs0DAUg4ei62ZF9aWP+PW9CfR2Nj3b8adrznxz5XHo+wxKvYHK5DPYp55h2JQxDHluMlbdJKyFEOKXRgK7gxmNRjKOnCQp9jA55ZZYDHkU3T1OKKt+wHD5X4ARq97/D53VQyivFmFM/oY+dkaGTh2L52jfmz83XAghxF1JArsTGKuNFF7M4YdD/+G7hGS0jmoUI35DYVUJGKtxtnKk6uR/UJVc5eFRQ3ho7Eic7++NhYS1EEL8YklgdyJ9aTmaHzP5bl88qQlJVPV7EKqNWF84h/fooTw8cTTq/g+gsLft7KYKIYToZBLYncxoNGLQ6SnIuMSJDz7BysqKx+Y8zT39+mKl6Ca9aiGEEIAEthBCCGEW5MEpQgghhBmQwBZCCCHMgAS2EEIIYQYksIUQQggzIIEthBBCmAEJbCGEEMIMSGALIYQQZkACWwghhDADEthCCCGEGZDAFkIIIcyABLYQQghhBiSwhRBCCDMggS2EEEKYAQlsIYQQwgxIYAshhBBmQAJbCCGEMAMS2EIIIYQZkMAWQgghzIAEthBCCGEGJLCFEEIIM2Dd2Q242/03I58dB1JJz7lGZZWhXfbZzdqKAW7OPOs/kKEP3tsu+xRCCNG1WRiNRmNnN+JuVVymZ/OeFB7qe0/jYDWC0ViNhWXbBjiM1dVYWFiCRf2ytItXSUzLZf7vB+PkoGznlgshhOhqpId9B5VWVGJtZck9Khvu6+lQt9xQpafk6kWceg5o0360+RnYOfXGWmFbt0xzvQxFNyuKy/US2EII8Qsg17A7QZWuhOzvDnDtp1TKtVcwGqsB0JdrKSm8hNFoxGg0UlGsoSjvR7K/34++tLCTWy2EEKIzSQ+7E2gufI2VdTeuZPwHQ2U5LgPG4HzfQAqyzlCuzcVlwCgqy7X89MOXWFopsLCwRHPxa9ydf9/ZTRdCCNFJJLA7Ws2UAaX9PZRr86g2VFFSmIWhqoLSa5e4dvk7rJUOWHezoUpfhoWlHocefTFigdFoxMLC4iYVCCGEuBvJkHgHKy/OJy89gZLCS5RcvYCu9Cq2jmosLa2prq5CX16EruQqdk73UaUrpTg/g9JrOVzNOo02P6Ozmy+EEKKTSGB3gIbT8K262eDk8hA2Dj2xtFJi36MvSrse2DndhzbvR4zVBkqLLmMEHHreTzcbR6wVNqh6eaKwVd1W/UnhvngMGFjzGozP+GAWhUdz8rKuXY6vM2jT4tgYNpOxI33x8Q9m0bo4Uq91dqtujS4vhZh1YUwd74fPyACeXb6Fg+eK69ZrD6/Ad3kC2jbs61bKCiHMk3kHdlkmBzeGMXWML77jZ7IyKgVN+9zq3K4aDmKXXM3i+k/fU1GiwVphR3WVnrKin6go0VBZYfqwNlbpKbt+GYO+HEtrJZUVJVz7KRVtfvpttkDJ6FdjSTmdSMrpBA5vWcEUdRpvPBdG1DnzC23duWgWLYwD/zC27f43h7eu4EnrOP60OJLUjjqcy7HMGrmWpNv995YVx1+nL+dEjwBWbfucw7HrWTBYwwdzFrL1e/P7nQhhdm6UH4YU3hg2sEFHp8Fr2M/4//5nMuNr2MXEr1vIBkJ466MweunOs+edMP7KZrZP9+jsxjXWILGV9j2wdboPCwtLLCytMBoN5KUfw8LCkmpDJQAVxRryz59AYdedbjYOWFnbYNf9Pmwce91+G5SOqFSOpp9VXoyeuZp+6jCeezOW4VuD8bT6GcfXwTKORqOdtpb5/l41S7wYt2A5uvAdnL8M3l3s199cAXsjwtHO2MGm6R6YbsrriTpwOZuUYQS8G8e4rYE4dXIrhbh73SQ/rHxYciSRBY220ZER9QLzznnh1kmfl+bbw752ii++GMiCkAC8XXqidvdlTsgzaP75FaldsJddy1phBxjRlxdhgQVV+jIMleWUXL1Yd3uXwaDHUFlOpa4UjEaq9KUYqw0127YfN/9gJmniiD/fYOG1FGLWhTLV3w/f8cHMezOaJE396qRwPxbFJBCzPBjfkQHMi0xBk5fIxtBAfH0DmLcxse5balK4H8sOpHFySxgT/UzfYpdtOUxGWZOG5KUQtTqkQZmE5mUaUaIt1DYe/rXqw6SXljPJo33rTgr3Y1F0AjGvzmTUyFD25gFnIvAZs4J4TSRTvQYyamMaoCNj91pmBfjhMzKQRVsSWx/tufwVu5PHMmNybVjXUz8RwrvT+kGTTnZLQ97awyvwfbXBMoOW7CNbmDe5dog9kvgs6a0L0Uwb8kOpMnVy6l6cZc9uCJrhj7qTmm2+ga16jCUxKxjd8MxZgdKg77QmtYVVN1ssLCxxchlAla4U6252GKqat9lg0GNlpaDaUIljzwewsLCkm9K+fRuj7MdQnxwycmqum5alsTV0OUcdAnlrx+cc3rGGGS4pLFvSeKg5+Z+JMDWcuK0hOH2ynFlvnsI7dAtxO0Jw2reand/VF07aHM4eRSD/iPkXcVtCGZG/mdnL48iuDbOyFDYuDOOEa3B9mdwIZq8+TIPvCY14j5/JwANLmbU8kr2nMtG0Eu7tU7eO+Og4tONX81ncGsapAZ8QEvYsZbg6mO2Jieyb4wVp0by4Wcv4tz7ncOwahv64mtcPFLTYLl12JqkDffBuaUqCnQfD/X1wu41n4ehOb2ZdQk+eX/85h3evZ8HANN54YS3xrZ1IIX6pbiM/MuIi2TMgmCCfzntQlfkGtpUj6t6ODXooOpIOxKH18+1Sw7tNb8KyVthy/5CnKLueCxYW2KpccOjhjrXCvkEZOxx6uGPb3RVLq26UFF6ir89kFLbd27l1CpQqKCozBaz2eDRRvUN57QU/PHv3ROXiwfCZYSzoGcueBtdVVb8NIMinD2ovfyaP0qLyDWS0R8+693VfANCR3S+QJTN98XTpidrdh0lLVjDpfCQHz5lKaL6KZqd6Ia/N8asvExbGpO8i2ZPWSrPdA3g7Zj0zXDP5ZEUgvr5jeXZ1NCfzGvYm26tuJW5TZjLnsT6onR1RWgFWSlQqFUqUpm/eStBpLpN/vw/DvXqidvFi+puxvB3Qs8Xm68q0oFI2613/bLrHeH5xIEPce6JWezA8eAUvP5bAzqM57V2TEObtVvNDm0hUpIbpswI6bTgczPoadmPaU+tZGTeQJVE+7f9B2M7snO6j768mUllRTGW5FkNVBd3v8+bqpdMA9OjzCBjBTnUvPXo/glU3GxzvcYd2vwdbj04LTnamM5ZxNpHsuEMEJKxuVEqnLWb4E8VQc2bVzjXXwlGitAKVnU2j91RR937IsIGNh4/svBg6TMPuiwXg1ZPscyl4PhbSpIwPQ4fl1JVpiVLtw6T5PkwKWY7mfApHYzez6I+ZvP3RckY7t2/d9cfbOqVPADO2LmT2wkyC/H0Z/pgv3i6tlLVTgVbXdNT7Z1MO88GzUa/dEe9hPqQmX0ZHny7//4UQneVm+ZEdF8mefjPZ14m9a7hbAjsrjldWnGL4qzsY18qHZFdiYWmFY88HTIFdUYy10p6rl5Ko/Tsshiod6vsfw9ZRTTdbJxQ2jlhYNv9a97P/bIvuPGdS+uA9qz6QvEPWsz2oX7OiSvuWg/O2NL22+3O+sVopUQ/wJeilfthonuKL06GM9r9BwLZn3Q2pfJj/wb8Y9/0pkk4dZmXQZob/YwtLhjZvi9LNA++zKWRoA1A3HRYvy+Hk8QL6+Pm0z6SzKrmGLcQN3Sw/tIlE7cwh6NWxndq7BnMeEq+lTWHjsvXonl/LkpE37wl1JEsLCywsLKisqq5bdrWonJ8KSqg2VHLtp7NkfvMx5dorWCnsqR1At+5mj66kgAtnPqUwO5lqQyVXCkvJv1Z/sbbKUI2lhamO25V9IJq9LoGMdje9dxvgQ36WFtQ9Ude9HKm4VsHtdc90JCWebXwtuiyFM6fVDLq/Z12dGc3KpHHmdJ+6Mo3lsDcsmDcSiputUUKDAL4Tdd9AWQHZWgWeQ/0Jmr+af4Sqidl/tuVedO9RTBl8iA/iMput1xxZz6JPzjc730o7JVzTUtRgWX7O+Ubb6xJTSG00E6+YpNPJeD/YW3rXQrSkDfmR/UUkMX1mMv3XnZ8v5h3Yhhz2rgnj6LDVvB3UfMZtZ+tmbYmymxXFZfUTGRL+m8P7e/9LVZWBbjYOuDw4GqtuNlTpiuseO1qlL8XKWsm9/R+nm40TRqORrXHf8q8T9dO5i8sq6WZtibV1G3+FumK0WtNLk5nCwa1hzI7QMf/l+msy6lHBzMheyytbEki9XIBWk0NS7Fr+9MIWTt7m3x5RJUfyytZEMvKK0WSlEBMezt6HQ5js1aDO3PX1ZS6nsDd8NQcfnllXprE+DB6hZk94OFHHM8nWFKO5nEb8ltW8cTGQoGGOd7DuBhzV9OIsSSkFaHWgObSaqWE7OJlVgOZyCvHH0/C8X93Kv8meTAoNQxW5kL9Gms61Ji+Tk7FrmBeuYcaiANyabKHs58OQ05FsjUsjW5ND6pEtbNjXZFKb81l2hseSlFWAVpPJyajVrDs9lhn+fW5yMEL8ArUlP7SJRG3PJGhm5/euwayHxItJ2hzG69pn2LR0IGiLa25vUaBSdY3otlVa42DbDc318rrngDvadaNMV0ne9UrcXL0wVhuoKC4w3dpVeInqKj0OPdxw7NUPG8deWFpaUaYzYjSCg123un1rrpdib9MNW0VbfoU64l8NxOdVTEPI7j4M9w9g1a4AhvducK7sfJi/PpyYndGsnL2c1AIbvJ8IZMGWYNPs6FumxDskjGnFsbwYuJBsx4GM/30I26Y3uC3Czof561cT9UEkLwYlk283kDG/D+G96a3fOuE2ZQ0f2kezNXIpG05nonX2YPTYQP7xXjBD6oaY70zddVS+zF+eyMqVTxHjv559C5by9pX1rJvuTypejJu2nLeCbnBDuHsAb+9Qs+fDmnNdrGKI30Se3xLKOK8W/v26BPDym5d5I+IFJoarGT4tlAWzfDl5usHZ9g3h5SfS2PDiU8RfUfH/2bv3uCjr/P//j2GA4TgIMogc1AA18BAihYddtFrUisyNPvSJ0l+Y/qTVr2SsbLnaYTUrXLfVj2741cSfbvTJT7Qe6KNFJbKZWgqkIomAB0CQQZBBBgbm8PsDVDymlYyjr/vtNjdl5jq8rouZGE81jAAAIABJREFUeV7v9/W+LgY9GMe8VQmd5/SFEBfdWH5U5GSwsffzfDLC+q1rAIXF8ovPhFpHVRYvPraAzy+/pEczg0/ykom4DY6GLBYLOd+f4GC5lhdih9LDTcWx6kb+v22HiLzXl9hRF88Vt56ro0VXi8ViwlndC+cuN0k5VXeOz74tIzo8kIF9vGgxGFm99Qf6+Xrw2MgglMrbs6MkPy2aFcGZrI3r/haeNdcthLjN3Uh+6AtZGp+KLjWLN6Nvj8C23Ra2fxzvF8ZZu4rrUigUBPi4s7/kNJW1TfRwU9Gnl5pAH3e+OVBFeH8fAjQdbwQnN2+c3K48b6o9qye38CQtbUaC/Tsu66qqa6K5tZ0AH/fbNqyFEOK2dSP54RJOSvYX3VPPDZJv+1usn68alYOSwyfqaDeaUdopGB91DwoFfPZtOUaT+brzl1TUU1V7jt9HD8BeaYfZbOHHE/XYKRQE+f3a12ULIYS4Xdlul7gN+eZAJZ9/d5ypjw3hnt4dF+vUNuj576+KCe3bk9FD/LG3t8NeaQcWMJktNDYb2LanHFdnB34zxB9NDxcUCgVV2nOs/ewgUWG9GfdAPytvmRBCiO5iu13iNuT+e33Ze7iaL747xnPjBuHq7IC7iyNRYX6ca2njoy+Lsbe3494+XtgpFJRWneVU3Tm81E74ebvh5uKIQqGgtc3IjoITKOxg5GA/a2+WEEKIbiQt7G5SUdvEiqx8Igb04onfhuDkaI+h3URpZQPlp85yukGPrtmAi8oBOzsF/ho3BgR60ddXjaO9EqPJzOffHePr/JPMmBjOgEAZ+iuEEHcTCexudPhYHR98dpCBfXvyZHR/LBYL3xVXo1Ao8PZwwl/jzv4fT9PDXUVzazvtRjMPhPbGRWXP1m/L2PfjaRJiQrn/Xhu4nZsQQohflQR2Nzta2cAnuSU0t7Tx8PC+eHs4U6ltoqa+mbB+3hw6psVRqcTd1ZF+vh7o9AZy8yuwU9rx+9+GENbP+9e/pbgQQojbngS2FdQ1trCn6BRf5Z/EDrgvREOfXmoCNO4Y2kw0nGvleI2Og+VaDG1Gxg7rw8jB/vTy/HX/HrYQQgjbIYFtJSaTmUZ9GwfLtPz7h0qOnKznjK4VCxZ6uKq4t29PRg/1JzzEhx5uqo4R5EIIIe5aEthCCCGEDZBmmxBCCGEDJLCFEEIIGyCBLYQQQtgACWwhhBDCBkhgCyGEEDZAAlsIIYSwARLYQgghhA2QwBZCCCFsgAS2EEIIYQMksIUQQggbIIEthBBC2AAJbCGEEMIGSGALIYQQNkACWwghhLABEthCCCGEDZDAFkIIIWyABLYQQghhAySwhRBCCBsggS2EEELYAAlsIYQQwgbYW7uAu5HFYsbY1kpjfTVV5T9QW3WUupoT6M7WYbYosFe54aXxxzewP30HRODdqy+OKmfs7JTWLl0IIYSVSGB3I4vFQqu+kbpTRzlW/C2NZ07h4OiEt/8AjO2tWMztRDz4nzQ11NGqb6S+ppQf87/CzbMXg4fHEBA8FHUPDQqFwtqbIoQQopspLBaLxdpF3A1MxnYaao9x/MddNOvqsFM6oPEPxdjegqPKlcb6Gk78+B2DR8ZiMhqxUzqgUFg4XVVOg7Ya3dk6nNUaho16nL4hQ3BwUFl7k4QQQnQjCexu0N7WysmS7zlVvg+lgz39wsZQfewH2tvNGPRnaWtpor2tjZZmHa5ubrQajNg7uuDs6o7ZbMTvniE4OLlS8M0WWloNDH1gPIMixqJycrX2pgkhhOgmEti3mMnYxtGDuyg9uIPAkPvw1ARQe+okp08W09p8Fk+NHz17B+Hi7o2DyoWWs1XozzViVjhSd6qMc41ncFH3xO+eMBxULuz9+n/Q6/WMePg/CY8aj4OjtLSFEOJuIIF9C1ksFqqOHSJ/50Y0fv3Q+N2DruEMRw98g6t7D4KHRuPbNwzMRtr1jeh1WsxtLTh7+OLhN4BWfROnK37kx31foms8g4vam2ZdPT28/ag8WUrM75MYMOgBFAoZ7C+EEHc6GXR2C53TnaFwz2c4u/fAt88A6qrKqDp2GDd3d/yChtDD25+m2hO06mpx8dCg1tyDQqHg9LFClE5uePYOwa2HBp+AgezcnI62+iSD73+YXgFBnG3QsmfHp/Tyu4ceXr2svalCCCFuMWma3SJms5mTpQeoOXkEV1dXzjXWcq7xNL4BfRkyahLO7p5UlXxHa+s5eof+Bu97huHi2QsnDx98giI4e+oIutrjKACPnr0Z/8xcPL17sS9vKwf2fklI2P2cqa2g/EgBZrPpJ+vRFWezMjWRcaOjCI9J4KWl2RQ1/PLtzE+L5sVNdb98QT9HVRZTh4QRNKDzER7N49MWsHJbMbqf3iVXLmv0EvJNl/3/anR7WZycSenVXr+8ps5H6JTLptdXkrthES8+OY7wyGgeT1rEmrxKDDdZthDi7mHbLWx9OZ9vSGf1JzspJZgJTycxc3I0gbfBad02g55932zBq1cggQNHcqL4W5T29tw74kncevjSbtBTWfIdZrOF6uNFnGusBYsZs9mExQKO9vZUl+XT3FSPm6cvjioXBg8bhb7pLFiMuDg74eXpzXc7NxF632icXdyvWYuhJJOXZucxPDWVD+YG4KSvJH/TMv7wspZ/pCcy6DbYXz+bOoG12clEKAGDgdqTe9j8fjLPFs5n7avRaG7JOqOY97couNZl8V1rOs/eEfX5nw3lbHj5eTZ6JzHvnST+4tlKbXEeG5ZO5SVtOn+PC8KWfyVC2Art/kxWvJ/J9oM6fEbEMSs5ifFBFz992sIsVqdnsnmfFp/Ix5menMTE0Gt/195qNtzCruPzxbNZURvNvDWfkbMulUGHFzFnQ/Ft0UqpqzlBTcURWpt1HDu8m+ZGLf7BkbiqOyLEZGxHf66BZl0d7p4+DB4xkcCA4QwcEsOQUZPw7B1Ca5uB2sojnCorpLq8AKO+iXuH/ZZm3VmOHtyNQd9AxbHDVFeWXbeW0h2Z6J5OZmZMKIEadzR9Qxk/az4pA6ooq+qOvXErqVCr3TseGm9ChseSsjyNCQVprN7VdOtWe9172HSp6fzD5eKXQGnWQta4pPKPNxMYOcAbjSaAQdEJvPne8xiWZZCrvXVlCyE6lWfyp1f2EjgtnezsT3knpo3Vs5eQ29nzaCjO4KW5eXgkLOKTbZ/yXhysn53G51b8fNpuYDcc5tuSMaQkxxLR1xuNfziTpz+DYVPe1bsqu1nxgV042Nujb6zjVPkBHByd8PLrj8JOicViRldfjZ2DEyHhD6PxH4Cd0p6CtWs4npeLvYMKv6D7CBoyFkfXHvTqNwRN4CBUHhqcXdW49+jJubNnMLa3owAKv/v6J6pRoavXoev6lDKAia/OZ2JQx4/5adFMzaq8ZK4rurtrCtnwdjKPR0cR/mAir28s5Ir3bkMhG5cm81RMNFETEnjx7Uzyz0/UkMMro5PY2PUgwVTJhsRxvJ7XGa76cnLXLODZJ6IJHx3L1IVd5r9RLuHETwlm87aCLttsoOLrDF5JjCVq9LiOrvOc8use3GkPZvH6M+MIjxzHs/MzyT9/CqEqi6kPLrt2l/n1mMrJ3aQjfkoMgZeFvirocVIW3aJeASHEJYq+zkL7VBLTRgSg0XgzKDaJ6UO+YPu+ju+i0j15qBKTmRkdSqDGm5CYJKZH7mTbPiudAsSWA9szmjc3zmWsustzSm6brsTyIwU42Nvj4GCPg4MDTi5uKO0dATC1t1N9ooiAkOG4uHthNrZzdPtnHN2azcENGzhVsA8AdU8/fPwHUnOyGGd3L3z6DUWv0+LlE4jJbMZsNqNycqL8SMF1axk0IZGwbXOZOj+DLXvK0ep/xgbpC1k5O5VvveJ4b+Nn5PwzleHH01m8uUsrVl/MmuT57HCL4511n5KzbhFTfAt5JSWDIgPgOYIJDx5mx54uBwaVeWyvjGFCpDvQRO7SJBaXhZOy/FPyNqUzRZ3DnJV5lx5s3ADNgHACD5dR0Rmq2pxFvJBeRcSsdLKzM/nHS1E0rp3N6znX+PA157D+CxVP/DWTvM1pPGHKZE763puu4wq6Mg5VhTEo6GrvVHcGRccQIYktxC0XEreMtc+EXvKcSgmtnf8flJjB2oSgK163JtsN7MvpytmyPhtVXDQht8Ett09XlYMCFApQKu2wdLn06pyuDqW9CvceHd/MDceOsSdtCdtKWtn55X72/HUpJmM7AF6+/TjXWIex3YCzuxcq1x6YTe1YLBYU2KFSqTh96tj1i+kby7sblzOldzkfL4gjKmoczy7MZHfNjZ880O7MZH3v2fxlRjQhvt5o/EOZmJxEvLfjhWl0uzLZ4J/cMY2/N2rfIEYmpjLLO4vNhwyAOxHjxnH460IqOuep2JWDNiaaCBcAd8amZvHJG3FE9PVGrQlg7OMxBOwrvhC8N0ylRt2k62hBm4rZvLqM+DfnEj88AI2nN4GDY0n50+MUZe28UMul84fzdGIsEf7eqP3DiU+MQ7On8MbqaM5kanQ0UaPPP7r2IBgwoEYl97wRwqpUngFoujb4qnbycd4wRoVd7Ry1Ae2eTNYfHMOkSO/uKvEKtj3oDMBUyMonZrCipInA+GV8MCX0tmhlN587i5eHCxYLWCygtFdduF66oaYc7973AB33BK8rLgZXZ6osHtiZwWhqp6mmmh4BfbCzU+LeQ8O5s7X08AnEQeVCW5seZydnFHZwtuksjWfP/GQ9Kk04E2eGMzFpPtqyQnZkpfPS8+W8+9F8xnr+9PZUlBQSEpV0aXetKpSISBWHOn8sPbyXiuwviM1beMm8Bl0TIx9qAlSow2MYuzCTgqpYAv0r2f21lvEvhl/8ndlDbWEOuYcrOVpdRUXBF+Q3xN38uASDDp2nGjVAfRn7SwrJnRzD6q5vDmMTOpcktCYIvHx+ew0BXl1+dlWj1t3gKG7XON7NSrpk0JlK3fkl4KJChQ5DM6C+6txCiO5mKGdjWhraKat4wv/Sl7TZqcS+kYOWcFLWLGesFXvAbD+wlaFMzviMiacL2PL3Jbz+cTDvJ1h/lK0CwALt7e0Yje20t7Wy54t1ePXqx+kTRQx/MAHouLlKbXkZO8z9KLJz5keLH8Nc+zL0hx/oEdAHAEeVM20GPRazmRa9DiwWTGYTBkMbLS2tWMw3ce8bpQrNgCjiXw3GSfsk2/clMzbm6qMeLw8nw1Val5c/NyhpOWvjg6+YTuXaeVSqDmdCzELWf1/HRONettfEMGtw52/LVMmWV5NYYYhh8oRhjBo2hoBHg9D9n5sf5aE9XEhFWBw+SsBER4hmJjPS5YrKLo7e/tWo0Gi80VxtuepgBvunU3TSwNjBl79LmyjNK8AQGs0g6RYXops0kZ8+n5XGZD6YfGWDT/PQArKHJVG6K4PFr6cTsW4uI2+gkXMr3AFd4irUGm8CB8cw86U4tJ/svC0GnTm7etDWZsBkMmI2mXBUuRD+26dw99Dg5tmLlnMdI5jMZjNe/fvT7uSBxWKHnb0DJi8/UNpx/iZ0+qYGXNx6UFddjqG5Cb9+gzFbTBgMrRgMLTg4XZFCXVSyJTWBxXlXjphWwYXRzipXNTpd2yXzaU9cjOzAAeFU7Dl8afexvpj9+5oumab2hA403h2BpfFGo3GntaG1y+ACFREPx1CWs5Pdu3LQPjLm4mVl2kK27RrBvLeTmfxINCMHBxFIE9qb/X3qClmfWcYTE4Z1NGI1wQz2PkxFk3uXurzR2LfSaHLs3oM7ZRBjJ6nZuD7nyu0q38ri+dlUXnVGIcStULFpIXN2DuOdRXGEXO3LwMUdjX8QI+OTmTVwK5v33cKrT36C7QZ2SRaLl+Vcek7R0RGVqe2as3Qn7159aTcaUdDRilY5ueDm7kXQ4N/goHLmzOnjmE0myssq2X1CT925NixYUCrh2CkdP9S0U3GyGmNbK7r6GlqadZQXfUNg/2G0tTahwILRZMRkMtGr9z3XqSSAYaM0bE5LY8Ouciq0TWirisldtZDFx+OIj+xoXQcOGYH243Q2FlairSlnd8Y61ne5WkwzJpEp9ctZvCqP0pqOZWxZls5upXuXaRKYUrGE11blUVRVh05bSX7WEv4wYxW76y8uSzV4DONPZPD6ei0TxnTpDldrCHQvYMfXxWgbmtCW5LHy/ayfOG9sQKdr6nhoKyndk8XiWbPJjVzA9BGdtSlDiU8KZuNrS9i4v/zisl9N4JXs648UvxVCJqUyTZfGiwuz2F1eh1ZbSVFeJq/8cR2qWUlW7XIT4m6i27+KOSth5l9nX9ZqrmP3qiVsKOz67aBC5YhV2W5gawJg2xKWZu6ltKYObfle1qzMQjUp5rYYdHbPwHBaWlswm80ANJw+gaGl48hM0zuEtlY92lNH0emaydlZTPnxOrAYaWlp5WBRJbl7SmhpaeHU8UMolXYcK/oGL5++9OjpR311GXYKcLBXYrFYGDj4/uvWEjhpER8mB1CUMZenYqKJfm4+H9dH8d4/konoPI+qHp3Ee0/DxtlxxE5LY4cmjlkPdTncdAll5vI0RtVmMifud8S8sIxDQ5KZ92iXdHEJZ+byNB48l83rLzxJ1CNTWbxXw6xVqYzvGkKqUB58BCpcYhnbdZCmSxSz/pqAatNcYh98jKnLCgh5+nkirvch0WUyNSqK8Mgooh6Zypx1xfg8s44PU6IuOd+ueWQh/5zlT9H7c4mNiSZ2bia10ct5P9EKYx5cQpn8t3XM6lvM6j8mEBOTwJz15YTMSufv8dY/nSPEXeFENq+98gWDUmczwbvtwoG/wQDgjca9jBXvLufzQ5UdB9Xb0lmxbxwTwq134xSb/uMfhhN5rEnPYPPXh2n0HcaEp5OY9XT41c8ddrMTZQdZ9c7/i3dPL7x7alB79CQsKpZ+g3+LoeUcR/bn4OCowss3GK3OgYMHymltNaBQKHB2dmTYsBA8nPScPVOJxr8/Jfu2M3h0HPU1ZeTv+G8aGs6gravlVI2Wl17LYMCgSGtvshBC2Iz8pdE8teryyzpVjE/L4f1J3mCqIz8rg9X/vZXdJ50IiY5j+qznL7kTWnez6cC+nbXoz7Fm6WzqTpXQy6cXnl4aPL39iJowDRd1Tw7u3oydnT2t+rN49PTDL2gYzq49sADNjVqqj/0AQED/SFzcerB7y3KGjn2W77at5vSpY5w5o6X69Gk8fIJ4+bU1uLjJkGMhhLiT2f4o8duUysmZEQ89xcerX6NZ34yjoxMOjvXkf/0h/sFDUVjM9AsdQcPp4zRUl7J/2yrMZiMOLh6ovfvgHxKBpyYApdKBhtPl9PD2Z3/OOupOn8RgaEXf0oK+pZVJE57ByVku6hVCiDudBPYtYmenpP+9wwkNj6ayLB+1yYS+uZlzTUdoaqxj1GMzcOvhg9qrN31DRwJQX1FEU10F/mHRKB1UWMwmGk+XU1XyPZVlP9DUWIfJ2IbB0EJrayuDI8YQOnQEdsrb4ByAEEKIW0q6xG8hi8VCyaHv2Jz5V9r09fTo4YXSzoH2dhMaX3/uG/Uovn3DcHJRY+/ohEJhh/ZYAfqzp3Fy86Cx9iQVx4upqjiOvb0ddgoLLS166s82onTy4PFnXmbg4KgLN2QRQghx55LAvsXa2w3s27WNLzatobW5HjdXdxwcnOnp44eprQUvTW98+wykZ68AHJ1caTO0Ul26j6azZ2g4U4PBYMDB0QGL2YjJ1E5LawtKlZoRD/0n9z0wDgdHGVMshBB3AwnsbmBo1bPv28/5YvNadPXVhAwcSv/QYRw/eogW/TlMba24ublgZ6eguVmPoa0Ni0KJV08f1B5qfHoHUlV+CN3ZOtw8exE+6gkGDo1Gdd0bpgghhLiTSGB3k/b2NkqL8/nqsw2cKDtEr97+ePbwxtnVHaVSicVkpPxIIe3Gdvz6BOPu0RO1R0/MxlYUtFFfcxLv3v0ZHPUovfuEYu9g5Sv4hRBCdCsJ7G5ksVhoOHOaI4e+Z2fORk6UFeHs5ExAvxCUdgoa60/T1NhA3/5DaW1p5pyuAVO7gf6hQxkxZhJ+fQfhqu6JQqGw9qYIIYToZhLYVmA2m2ht0VN1spSCvV9SUpxPTdUxmhrrsVhMqHt44+t/D/cOimTYAw/j1ycElZMrdnYyuEwIIe5WEthCCCGEDZAmmxBCCGEDJLCFEEIIGyCBLYQQQtgACWwhhBDCBkhgCyGEEDZAAlsIIYSwARLYQgghhA2QwBZCCCFsgAS2EEIIYQMksIUQQggbIIEthBBC2AAJbCGEEMIGSGALIYQQNkACWwghhLABEthCCCGEDZDAFkIIIWyABLYQQghhAySwhRBCCBsggS2EEELYAAlsIYQQwgZIYAshhBA2wN7aBdwNzGYz+/fvp76+nmHDhrF//35cXV1xdXXFwcEBo9GI0Whk4MCBHDhwAD8/P+zs7FAqlTQ1NXHs2DHs7e0JCQnBbDYDEBISgp2dHG8JIcTdQgK7G7S1tfHhhx/y/fffo1ar8fLywt/fn6qqKlQqFU1NTQCMHz+eFStWMHXqVJydnXFxcaGkpITNmzfj5+eHu7s7I0aMwGKx8Ic//AEnJycrb5kQQojuIk20bqBQKFAoFJjNZnx9fdHpdOh0Ovr378/AgQPx9PSkvb2d3bt385vf/IZTp05RW1tLbW0tbW1t9OrVi+DgYHr06EF1dfWF1rcQQoi7h8JisVisXcSdzmQykZubS1VVFUOGDOHAgQOYTCb69u2L2WymuLgYBwcHAIKCgtBqtWi1WhwcHLC3t8fHx4dhw4Zx8uRJqqqq6N+/P5GRkSgUCitvmRBCiO4igW0FLS0tZGZm0r9/fzZt2oSjoyNms5n+/fuzZ88eoqKiqKioQKlU4uTkRM+ePZkyZQoqlcrapQshhLAS6RK3ApPJRFlZGdXV1Rw+fBiLxUJ+fj69e/emuroavV7P/v37OXjwID4+PpSVlWE0Gq1dthBCCCuSwLYCR0dHfH192bZtG8OHD6dfv3706dMHX19f+vfvT3h4ONAxuvyzzz4jICDgQpf5z5GfFkXQgLDLHlG8vstwyXTaQ9msfDWRcdFRhE9I5KVl2RQ13MRyI8fx1MvL2FLS9LNrvVXy06KZmlV5W6wvPy2aFzfV3dBySjOTWbzr1uzPm6lDCGF9d8woccOhVTz7TDrqN7ayNi7A2uVcl6OjI7Nnz77kuRdffBGAyMhIAMaOHfsrrlHF2DfW8ffYS/eLyvViF7s2bxFTX69kwrxUPnhZg1NTJbv/lc4fXijmnQ/mMtLzBpZraKRi7zpemZmGOnMhYzW/4ibcpUISljGvy8/5adGsCM687d/jQtz29OV8npHO6k92UqEKY8KzycxKCEfTZTyvdn8mK97PYntxE4Gj45g183nG9rXeqck7o4VtqmTzei2DYtytXckNMRqNtLe3X3gYjUZuZCiBpfMa7J9F5Y5afelDdf6NqdvLisWHmfDeMmbGhBKo8UYTFM7ElCW8OWwnS7OKb2y5mgAGxSYzK3In2wtvv1a2EEJ0aCJ36WxW1Efz5kefkb0qicB9qfwps/zCFIaSDF76Yx4+iUvI3rSWeVGVLJ6xhNzr9DreandEYGu/XsWO8AQm+Fq7khvz7bff8sEHH1zyOHny5HVDu725mbrCwltSj25fNtvDEogPv/zI0Z2xUxcxPVSF4apz3qCGQjYuTeapmGiiJiTw4tuZ5GsvvpyfFs1LWYXkrkzm8dFRRD2RzNKcykvXWbOXDQuTeDw6iqjYJBZnl7N7ZewlXbrawiwWJycwJiqKMc+ksjKn/Jp1X2/a/LRoXsrMY+MbiYwZncyWmqt3cf8aXco/te0X11HJxpnDeGpNHbmvjiMoPJUt5/fhT+zfjv1XyIa3k3k8OorwBxN5fWMhl08ixF2jYQ/bt4cxKymWQb7eaPpGMS3pGbT/2kmRCaCJ3ZkfoZo+n5mjg9BoAoiIS2XeiDxWb+u+U2uXs/3A1u1lfaaaKbH+2MIY6trv93GmuppvvvmG3Nxctm7dymuvvcYPP/xw3cA+tnkrpR9/cktqqjh6mMAhYVy1B9s/nPGjg25s35qaKM1JZ/XhcUyI7Ozt0BezJnk+O9zieGfdp+SsW8QU30JeScmgqEuaFnyYSdGQZNZmf8aHKUHkz1/AxvMHu/pCVs5ewA6fBN7b2HE0PPjgMhZv011cQHkmL83ORvXEIj7Z/iWf/DmKiqXz2VBylTp/cloDuZnZ6CYs5JPsRYy/xV371932CwJ4Ykkeayd7M3JBFoV5C5mo4cb2r76QlbNT+dYrjvc2fkbOP1MZfjydxZulF0TcpdQjSNm44NLTdkpQmdo6/m8oY/8ufx4c3fXUkzsjH4qmdK/1DnZt/By2gdKsdIoeWUiKWkW+tcu5Ace2ZBPs15t33nkHo9HI8ePHefXVV68Z1uefr8zdiYOz889cq4HchXFE/a1L7A5I4sM1CYQowXBOi7qf4y9erkFXh04dzbxVSxjbec5btyuTDf7JfDIjuvOAwJuRianMOvg8mw8lMGh4x7yqhxOZFt1xYKCJnsr0mMfYdKSOyUHeaHdlsV4zm09mRBPYuYyJLydydFcepedLCUpgbXYcKnXnNnrG8sToZXxcVgcDvC8t+yenVRE4KZFpI7rnPPH1tv2S6VzcUas6/+2s/Ub2r3ZnJut7zya7yzQTk5Oo2FXAoW7ZQiFuM0p3NP5dnzCQvy0bXfQCQpRAfSUV+mCGX3awrvL1J/B4FbUmLjnX3V1sO7Crcli6NYzp62xnAE6bToe+thb7Mb9l9+7dREVFXff66n/9618MHToU8y+6rEvFyORV/D22y7vP3v3CG07lpkGna/vly9VrKdq+jD/NWUbIxvmM9YTSw3upyP6C2LyFl8xp0DUx8qEm6Gy7B/i6d2nFu6NWg6GzhVhRUkDgiMTOsD6/6lCGR7pfDGwAfTm5eYejxcO+AAAgAElEQVQpPVFJRWUxu3OaCB5yjdJ/YlqNZ/eNh7jetv+UG9m/FSWFhEQlXdqDogolIlIlgS0EoNuznNezw0jZEN7xWWwzoEPFFV/NKjVqfeUvO0X4C9hwYDeRuzYdnk1npNratdwks5mamho++eQTAgKufbBx4sQJPvjgA+bOnfuLV6lSu6PReF/1tcD+YVRkH0ZL0JXd4lWFfF6hZuyIq3eLX7pcb8bOmE/KgQS2FyQz9qGO0BuUtJy18cFXzut69XquYGy7OECu6/xdnjMUruLZOXsYNCWOUeFjGBkbx4PqBD6+yuJuZtrrue6HVuV0jdA1YDCA6lf85N3I/jWYrlLJVZ4T4q5zIpvXFuxh5BvrGH9+HJSjCnXnZxWXLtOaDOhcnKx2+tVmz2EbCjNZsS+G6Y/YTuu6K4vFQnt7+4W/vnX5a0ajkdbWVlpbW29oBPkvoY6MZcLhTDYWXp4wTexeO58VP9zM8aQHPhpo7UyrwAHh1J7QgcYbzYWHO60Nrdzouz6wbyil+w5fet7IUE5+wcW6inZmwdQFvJkYy/jR4Qzq64HhGqM5b2ba81Su6st6ISrRnrj2fgkcEE7prr1UXB6KukJ27A1gcPANHqz8hBvZv4EDwqnYc5iKrjPqi9m/T85hi7ucrpCVryzHMH0JKaO79KqpAwh0KaPispPVhupyKvr542OlP+Vgs4Fd9NWH5Jdn8mJMNFGjOx5TN9SR+0YcUdMyKbXh1kNNTQ1ZWVmcPHmye1aojmJWahjb56SyMqeYCm0d2vJCtiybyysFY5gXH3rtbDU0odN1PrSVFOWsZUXOMEYN7QgkzZgEplQs4bVVeRRV1aHTVpKftYQ/zFjF7vobK0/zUAJPlC3nrYy9lNY0oa0q5vMV6WzvkjeagCAq9uxk94nz61jG6mvccORmpj0vcMgItB+ns7GwEm1NObsz1rG+7Ho1JzLLsIw5i7PIL69D11BHRXEeK19dwO6oJJ4IvbFtv5xaE0BZQSGlDQYM3Nj+1YxJZEr9chavyruw/7YsS2e30jYugxTiljBVsmVRKjsiF/Ju/GU9iKpgho8uY8euriPCm8jP20NI1DUG6HYDmw3sQdM/Ze/Xn5G96dPORybvxnkTkbyK7CVxHQMHbJDZbObAgQOsW7eO9vb2bluv5qH5rH0vhtacNF6YFEPMjDS+Nsbw3qpr3TQFwEDuG3GER0Z1PGKm8sqmNuJXLiD+/IAOl3BmLk/jwXPZvP7Ck0Q9MpXFezXMWpV646Ov1VGk/GM+g8vS+UNcNDHPL2P/wCRSYi5+xAJj5/Pu0GKWPv8Y0fGpbDTEMCX26oF0M9NeKGF0Eu89DRtnxxE7LY0dmjhmPXSdLgJVKJP/to7pAcWs+GMC0TFP8sLb2bQ+lMbaedE/+wMfMimVyaZMXohN5fMabmz/uoQyc3kao2ozmRP3O2JeWMahIcnMe1TubCPuVk3kp6fylu4Z5k0Jg/ONDt35XjN3Rj6diCF9ESvzytFqKynatIzFO0cwPSbIalXfUX/8wxbuAvXv5Jcx6vWY//M/ePvtt0lJSeHdd99lzpw5PP7441gsFjZt2sSKFSuYO3cuS5cuZf78+Zg2ZKJyd+e3y/5m7U2wDhNwyUFYE7lvPMamqE/5+yO/TveyEOIuUZXFi48t4HP9Zc9rZvBJXjIRnd812j0ZLP3HR2w/0ErgmDhmJScxPsh6FxDb8KCzK0Wk5rHW2kWIX582j9dnZOLzYjITwwPwoJHSvR+xYucIpkyXsBZC3CT/ON4vjPvJyTQjEnlnRCLvdENJN+KOCuw70R3UAfLzaaKZ9ZqW1esX8tz8Ymrt/YmIfpwpq5KY6P/TswshxJ1AArubKZR2mM0mVCoVFosFs9mMUqmkpaUFi8WCxWKhvr7+wl/nslgsODo60mKxoFDa7JCDX0wTHse88LhL/hCGEELcTSSwu5mrnx+NpeVo1Grs7Oxob28nJCSEt956i927d2MwGPjqq6948sknMRgMKJVK3N3dqa/V0nPwIGuXL4QQwkoksLuZz/2RHPnwI1zbjQQFBfHVV1/x3HPP0bt3bwoLC7G3t2fmzJn85je/YfXq1QwcOBC3tnbOVVXRe+QIa5cvhBDCSu6oUeK2wNjSwvb4Z/B/+CHODg7j7//1X2g0GkaPHk3Pnj0B0Gq15OXl0dDQwB9fegm3gkKq//0tEz7+EOV1bmMqhBDiziWBbQUn/nc7h/7vakKeTaBe05Mv//1vSktLL9z5zN7enpCQEGLGjKWnVkv5Rx8z5A9JBMb8ztqlCyGEsBIJbCswtbZy9OP/4fj/bsNz4AA8I4bR5qGmzU6JBQsqswXHpibO5hdQ/+MR7ol9lJD/eEpa10IIcReTwLYSo16PNr+A4/+7jbofDmBsbcXOvnNkuMmIUqXCe+gQ+j72KD4Rw7B3cfmJJQohhLiTSWBbkcVsxtTWhvHcOc5VVqE/XQsWC84ab9z79MHe3Q2loyMKu7v3ci4hhBAdJLCFEEIIGyBNNyGEEMIGSGALIYQQNkACWwghhLABEthCCCGEDZDAFkIIIWyABLYQQghhAySwhRBCCBsggS2EEELYAAlsIYQQwgZIYAshhBA2QAJbCCGEsAES2EIIIYQNkMAWQgghbIAEthBCCGEDJLCFEEIIGyCBLYQQQtgACWwhhBDCBkhgCyGEEDZAAlsIIYSwARLYQgghhA2wt3YBdzqLxYLRbMJisVzxWrvJSLXuDCfqq2lua8FkNmMBHJX2eLt6EKwJQO3khuLyGRVghwKlUoniyleFEELcgRSWqyWJ+FWYLGZ+qDxKqbaCHs7uAJ0Ba8HOzg4HpT293L0I9OyFi6PThfnMFgsNeh3Hz1Sja23GbDZjtlhA0XEAYKdQ0NjSzGD/YAb49JHIFkKIu4AE9i3UZmrnaG0lKnsHQjQBv+qyNx/IQ2XvyMMDI3FQSkeJEELc6eQcto0yW8yYLR1d6EIIIe580jSzojZjO6V1lajsHenpquajfV9w5lwjvh49mRA6krMt5/Dv4U0PF3c5Vy2EEHc5CWwrOdPcSPq/PyXnx72MDx3JsMABrN61CZPZgrebBw3NTWQf+gYvVzUzfvN7Yu59AKWd0tplCyGEsBIJ7FtM0fm4XG1TA5t+2MnppnqaWptxUDqgQMG6yfM5VF3O4epyerqqOdlwmhP1NZgtFiSuhRDi7iXnsK0kyNuPhY/PYHTQUP71Qy4VDTX09ujJlz9+R5m2kv6aQB4eeD+vPzqN/xj20C8eWKYrzmZlaiLjRkcRHpPAS0uzKWr4lTbmZxW0l8XJmZSabvF69JXkbljEi0+OIzwymseTFrEmrxLD+derspg6egn5N1LHzUz7a6jKYuqDy375+gx15Gct46VnYomKjGLMM6ks3ViI1vDTswohbh+2HdiHVjEmNIygAV0ekYvYrbd2YT/NUemAp7M7amdXBvj0oa9Xb157ZBpldVWMDr4PZ0cnNh/YiZ1CgdrZ7Rety1CSyUuzsyEmlQ82fUnOmgU8Yp/NH17OoKi7vrQvDzt1FPP+lkDIrew2MJSz4eUElh4JYso7meRsy+SdhCBKl07lpaxy7oq8MpSz8dUE5uQ58cif0sne9hn//HMsHnvm89SrWZTeFTtBiGsxUJG3iqmjhzE1q/LSV6r2suaNJMZFRzPmmWQWZxai7a6D9Wuw6S5xXb2W1kfS2PnGGDwuPOuI2sWKRV2m3WSkpd3AmebGK17rpfbi6YgYzjQ3UnSqjKEB/Xn2gQnUNJ6hzdjO3N9NZmhAf4wmE0o75YWudYvFctUbsVxL6Y5MdE8vYWZMaOczoYyfNR9D2jrKqmBQ0C/fzp/lFvfxl2YtZI1LKv98M5bAznVpNAm8GQAvPp9BbvRCxt/aEqyuIjuNpfrn+XBZAiGqzic10Ux7OwBV0vMszo5ibdyve8mhEDbBUEnuigW8vi+YkaGO1HZ9rWEvS2csoOLx+fxjYxgehkp2ZKTx0poFrJ0Riupay7zFbDqwG7WVOPnGEqh2t3Yp13Sy4TRbD+bh7uQKnSFrr1QyvE8YDnZKfjx9nEPV5RRUHCHm3ijOtjRxWneGc20tRATeS1VjHaG+/SioOEKrsQ2LpeMmKsU1xxkXGnWDVajQ1evQAerzTykDmPjq/AtT5KdFs3HIKp44mcHiD3dS6xLGg79PYNrkGEK6HgDVFLJhdTobcwo6p0lk2uToC9Pkp0WzPmARo0oyWJmjJiVrGROrlhH+zCp0QG5oBoHJWeycdJipz1Uy68tkImqymDqjjimLvNnxt1VsPgKDYp4nJSWBCM/zK26idFsmK9ZnsftoK4ExiaQ8q+HjOWVM2Z5MxOXhbyond5OO+HkxF8L6wt4IepyURZorW9hVWUyNL2dW3tyLy6vKulhn51O6kmwWL01nc6EOn8hxxD+fxOQR3l0WZKDi60xWbshiR0kbPqFRTHg6kWkxQdf5oBsozVnHmg1b2XFAh8+YZ0mJv/x9fZPLNZXz+SeVxP8x7mJYX9wJPDErkdKCKnQEdL4vOvfxR1vZfaQNn8gYJk9PJD68y7bpy8nNzGD11p0U1amJmJDArKQEIjTX3DAhbk91hXxLAh98EI1uxRes6PJSxdcZbA6bS/aMaDre2t7Ev7oA7fRMcuMXMt7z6ou81Ww6sHU1lWg06p+e0IrONDeyo2Q/doqLQ8/cVC70dO3BZ4d20Wo04OroTLvJiAUL9/cJo665oTPo/83e44eI7BOK9lwDR2srOlrXgMHYxm+C77uhGgZNSCTs+blM1SUyJXYMI4cGoblKL0R+ehpMSuK9jal4GCrZvX4hL8w38M8lnS1UfSErZ6dyaNx83tu4qGOajIW8sNDAJ2/HdL6xDeRmZjN4/kI+SfZArQY0SeRtVvPitCqmZycT4eIOdYcvXbl2K+u/SGLW25nMopIdK+YzJz2Yra9GoQYqshfywmo1M19by5/7ONFYspUVaRkUGKKZcrWN1pVxqCqMSUFXizJ3BkXHdPy36oZ24UXNO1m6Aqa/lM70Xk40Fmex9NUZ1P41k5ThHevS5izihdUqpv0pnZQgJ1qr9rDhrdm8zjreifG+6mIrNi3ghfVqUl5LJ8W/c/uWplNkiru4i252uboyDp0cxqT+Vz9MUA9P5M3hXWrIXsgLaztq+LN/x7YtnjMb3X9lMG2wCmgid2kSi/UzeGd5MiEureRnLmDOygC2vhHN7f1JFOIy/rHMS+n4b/5lL2mPHyYkfD6XHIeqgogILWDHEQPjR1injW3Dgd2EVqvFoM/i9ZkF5J+AgOg4pk+P69Iqs75Bve9h+X+kEODpc+G5qrNaimuO0Wpso91oJGboA2w7vJu+nr48Pfx3fLT/C0q1VbSbjDTom3BXufBs5Hg8XC62uHaU7MfL5Qa/IvvG8u7GAD7fmMXHC5bzUo2GkfHPM2t6HCN9z7/xDFQEx/FhYtSFI8qJKQs4+sxCPi+JZVooaHdmsl4zm+xpF486J6amcjR+GZuLY5gWCqAicFIi00Z07WZVoVarUVGHWu2O+qpd4WFMSoztbKl5E58Yx8aXC6kwRTGIYrasPczE17KI7wxFjSaRP2sLiV5yjW3WGzCgRuV6Y7voxqmYMH02Ewefr2MGf0k+TOzHeUwZHoPGVMzm1WXEv5lBfGjnvvWMJeVPVTyVvpOKmDgCL1+kqZgtGWVMfDOTieFdtq+hmOi3L05z08vV6258H5iK2bK6Yx9frGEGb846zFMf5hH/dgxq3BmbmkUE7qg7Sxj7eAwBs4upMEUzSC5jEHcItU8AlSeqMBBwsffKVEVpsZba8CawUqe4DQc2aCKnMkEXysgRzzBNWUfBx2m8+LKBD9MTruwCtBJHpQMaN0981T0v3PzkXKuee3v1Y0S/wRw8VUqptpLU302mRneGgoojPDTgfn6oPApAL3cvRgYNxUXlzKDeF082l9SexMHe/oZvp6LShDNxZjgTk+ajLStkR1Y6Lz1fzrsfzWesJ4CKiMiwS48oXUIZHqll0/E6CPWmoqSQkBFJl00TzvDIygvTAGg8f8YpCnsNAV5dfnZVo27uHM1dX8ah0yN4OvTSX6pmaBSDlNqrL89FhQodhmb4VZt+rsOIGHBlHSFryqk1gaa+jP0lheROjmF118mMTehcktCauKKLHm0Zh+qGMeXy5YaFE+HYuX0/Z7ku6iv3gS6P1+Pms/38wEzPZ3l/8wwitGUcqrtyHwcOiyIwo5wKEx2BbA+1hTnkHq7kaHUVFQVfkN8Qd3cM4BN3jZCHEhj23DKWRi5i1kNBqA2V7N6wjA1lbYRZceCZDQe2O4NiZzDows8BBKYsova5JDYWxDHPSl0Wl1Kwv+JHXstedcUrGjdPRt4zmH5evZk68nGGBQ7k0KkyBvsFU1Rdjq+6J1MeeJTyM6fYciCPQ9VlGM3mC/O3thv4U8xVO4OvT6lCMyCK+FeDcdI+yfZ9yYyNuU7AXv7mtEYrqrOGq/1GVdeqRx3MYP90ik4aGDv48jmbKM0rwBAa3eX988tcCCwT4BrHu5nJjLzitIPqGr0Lly2j63Pn9//PWa46mMH+y9h/1MDYzp4J1FGkZH7KLICyLKYuuom2gqmSLa8mscIQw+QJwxg1bAwBjwah+z/XOGgSwlb5x/KX93Qs/sszhL/chkodSvzLqcyKKWC/2nrZYtuXdV1O6c+goa1U1DRZuxKg409gqp1cCNEEMNgv+MLj3l798O+hobW9ja9L9jHjo7f5n/yvcOy81np3+UEKK0v41w+5GE1G7O2UODuo8HR2v/BwdlBhr7RHofipNnYlW1ITWJx35T5RQZcANpC/9zCXfPXqC9m/T8Pgfh0t58AB4ZReMU0x+/cFXJjmlvAMIMS9gPzySyNNe6SQorZrzKMMYuwkNRvX51x5KUb5VhbPz6by8nkcVajRoWu++JShppLKrvM3F/BtyaV1VBTspWJIUEcLVxPMYO/DVDS5o9F4X3zYt9Jocrx6OGqCGey9h/3Fl23fgb0UmbpOc5PLVQYx/qkANq7NpuLColWoNd5oNO40Fu9BFxnape6CK2q4ZNu0hWzbNYJ5bycz+ZFoRg4OIpAmq1/qIsStoA5P4J1P91K8K4/CvEzejPOmsTKYkADrDXK23Ra2qZwtaVnw9Fwmnu8pNmkpLQGf6Ntj1LjSzo77/AfwzqRZhPbqd+H5E/XVfPnj9xyvr6aXuienztaSe3Q/x89UMz6sHRTg5aLG3d+FUN9+GEztvBL+/zDUP+TCMj4p2IGnsxtKxU8dcwUwbJSGt9LSCFQmMnaABqe2Soqy01l8PI73Ii/uK3VBBq+t0ZASG4aHoYwdGWlsGZLEJ51Xg2nGJDAlI/XiNKYydq9eyOdDkvgw9BqrP89dgw/Z5BfWETLY++Z6qVXhPDFVw7NvLSfwz88w0t+JxiNfsOajw6iU/tecLWRSKtPyZvDiQgMpU8YQ4t5KbXEeG/6+DtWsdMZquHTQmVcYw4MXsnp1DAHPhqGq2cPGtTk0EnNxGlfYvXo5W17srONgFouXaZmyvHPQlTKU+KRgnnptCZo/J/BgkAa0BWz823x2RK7iw2lXuSREGUp8UhhPvbWE/q89z8i+TjQe3sqKTysJVAZ1meYmlwsEPpFKyq4kXnhVR8qUGCL6eoCukqKcDBZ/rCFlzcW6J04P5rnzNZwfdLZCx/T/6pxGrSHQvYAdXxczaHRAx/rfz6LC9NjN/DaFuO1pv17Ca0ejeXdGFOrzVyGV57FdF828vtary3YDW+lPsFcBf0hbhfrlOAZ56ij6NI01pkT+EXk7dIeDQqGg3WTku+NFHKwq7TiHrYDapnrKtFUcqi7HYGzDAjToz3GfvysWi4Xn7p+A2WIhp3gv3x47gL2dPX09fS8ZaV7bdIZQ37430MKGwEmL+NA1kzUZc1mxrxydZxBjx8Xx3j8SiLiQnCoGJaXydFMWc+JmU+EexoTfJ/HB5JiL56xdwpm5fCEbVmcwJ/78ZV1J/KPrNNeijmLm/L28/vqTbIxZztanbm5fhsQvYa3jWlb8ZSqvlbQSOC6RecmJ1P7xinbyRS6hTP7bOgI/zmT1H1eRX97acRnWrHQmP3SVS6GUQcS/sYCKxWk8FdtGSMwzpExNoOiPXfoUPMeRkhLEt2lJvLVPh0/4OOLTljM5/OLSNI8s5J+qTNa8P5elheXgH8WEp5fz/tPXvn5T88hCPrBfx4p3p/La0VZCHkok5dUkNs8+/IuWiyqI+LS1BGZ9xPp3p/KnQ42o+oYxMiaWdzbEEuF7cdLA2AV8oMxkxbtTeetoKz5RjzP5vSXEnz+l4BLFrL8msOLvc4mdr8NndByznn6eiMPSJS7uLJoh4Xi8ncbSXouYNloDp/ew4a0sQpJWWXVwpW3/PWxDHbszl7Hi450UNWmImBB3210TWlR9jDf/dw0FlT9eGHTm5ODIwwPuJ6twB2ZLx3npNx6dzoBefbjPvz+txjYWb89g88F/YzQZefb+Cew9foh20/m+RwueLmrmjX+eUUFDf5U689OiWRGcaVs30SjJ4KmX23hz8wwZoSyE+Nmu9v1nKM9hzYoMNuaVQf8xxE+dzbSYAKvdNAVsuYUNoPJmZOJCRiZau5Br8/PoyWODRzE8cCDuTi6AAjuFApW9A8frq/n+xGEUCgUad0/++uU/UTu58cz94zjTrMNoMhLmG8Q9Pf1QKhQYjO0YzSZqdGfo4eKOr7qntTevmxgoykji9bJYUqaOYZC3CkPNYTanZ2F4ZNGtvb2pEOKOF5Gax9rLnlMFxTDzbzHMtEpFV2fbgW0Deri4MyxgAK5BzvTxutj/qGttpsXYhr6thSeGjmH/iWIOnSrHggVXRyd6e/TETeXMwwMjmXTfGHo4uwMWDMZ2Pi3cQZNBT6BnL+ttWLdSMejpBczKzGD1nGXsPmHAJ2gEY3+/gLXx4VY94hVCiO5i213iNuJsSxPldacI1vjj4dTxhzyMJiMn6qv59Idcco/mU3L6JC3tBsb2j+A/Ih5mwdb/y/jQKCZHPcq9vfriaO+ABQvF1cfJ2LOVhPvHMyxgoJW3TAghRHeRwO4mZXWVnDO0EOIdgKvKGYCWdgNl2kq+LtnPZ4e+oV6vA8DbtQe/DQnnsUGj6e8TiIujEwDH66tZvWsTA3z6MvmBCdj95AhxIYQQdwoJ7G70Y81x9O0G/Dy8L5x/bjcZqTqr5VSjllONdVgsFvw8vOnXszcaN08c7R1oNxn5ofIo//phB34eGqaOmoizg3QECyHE3UQCu5udrK/hTPNZHO0d6evVG7fO1rbZYqaxpRmwoHZyQ2lnh8Vi4VSjlq+O7KOsrpLwgAE8EjYKJwdH626EEEKIbieBbQXNhhYqG2s5q2+ih7M79/T0w9He4ZJpzuqb+LpkHwdPleLfw4dRQUMJ9e134dIwIYQQdxcJbCsxmc00GZqp0Z2hsqEWf08fBvr0oc1oZFvRt+wszeeenn78NmQY/X0CcVdd5e9hCiGEuGtIYFuZ2WLGaDZRpq2kuOY4//xuG1H9BvP78LH08fJFpXS4obuZCSGEuLNJYAshhBA2QK4LEkIIIWyABLYQQghhAySwhRBCCBsggS2EEELYAAlsIYQQwgZIYAshhBA2QAJbCCGEsAES2EIIIYQNkMAWQgghbIAEthBCCGEDJLCFEEIIGyCBLYQQQtgACWwhhBDCBkhgCyGEEDZAAlsIIYSwARLYQgghhA2QwBZCCCFsgAS2EEIIYQMksIUQQggbIIEthBBC2AB7axdwNzKZLTQbTJSf1rPth1rKTrfQbDCSc6COB0I8UDs70NJmYkyoFw8N7kmwjysuKiVKO4W1SxdCCGElEtjdyGKBUw2tfHOkgf/+9hS9PBxxVdkzJtQTH7UDANPG+lFU2cRZvYUhfdxJ21qOv6cTE4f3IqiXC717qLBTSHALIcTdRgK7m7S2mcg/ruObIw18+n0Nx2r1THswkFA/N87q2/nfQi37yxsZ1d8DbVM7zQYLRqMZJ3s7ht/jwdb805jM8Nxv/An1c8XJUWntTRJCCNGNFBaLxWLtIu5051qN/O//397dx0VV5o0f/5yZYYYZYHiQ4UFADdRCsvChRbJFs8V0Q23DpY3SO0x/WXpH5R1b/rTa1a0NX66rP93VOxNXV153bLRq7GbRXUhr6K4iWwKpSCpgyIDA8DSP5/z+wAdAUDIRsev9es1L55zrOue6zsyc77kezuFwDXu+NPOjcCNOWeGt3ScJ9tUx/W4TRr0Gl6KgUUn4eWqxOlxUN9pRZIV9x+q5d4QvXxyvJ360P3o3FSZvHTPGBuDpLq63BEEQfijEGb+PWR0y/3ukjn+fbsIlg6e7hlabiztCPHko2sSEET4MMxkY5OmGSiWhVknIskJDm5PKujZGD/Hi0+I6tBoVY4YZKTjewH9/WoHdKfPohMG4a8W8QUEQhB8C0cLuQ7IC+47W86f8CmaMDaSiro3SqmYGeWn5xb2DGWbSo3dTU1Zt5fOjLTRbZWaNNzLUX3dxGw6XwrcNVj7+spa//rOao982o1GriB/tz5NxoYy5zSjGtAVBEH4ARMDuQ1XnrPxlfzXHzzZT12QnItADrUbivxLC8dC1d2602GR27DvHv0+1oSjgZVDz+L2+3DVE32lbdqfMh0U1vPI/x0iaEESQjw6nS+FnPwoixNe9P6onCIIg3ECiP7WPuGSFf59u4mRtK9OjA/Bw12C22DoFa4DGVheWNhlZAQVosbooqbLS9SpKq1Hx0zGBvD57BHanTOmZFrZ9XsWB4w245CtfcxWmxzEvu7LHdc/srO1VncoyU3ljX1Ov0n5XVyuHpTSHDWkpTJ0YQ3R8Ms+vzqG4vk+K0mds1UVkrU5j9rQ4oicm8PiyTXx07NLxtOQuJ2ZZPpZebOu7pBUE4dYwsAO2qxzmyvQAACAASURBVJbCzJXMmxVH9MRE5r2ZTeFNchJvtrrI3FdFfbOD3/z1ONUNNl74aedgDSBJ4KaWuNCrLSvwbb2D07V2bM7OgdhNLRF3hx8Ol4KHVsXTPxlCzuEamqzOG1Kn4clrWTrR6+L7K10IXE+2Y5k8/1wOxKfxzs5PyN28nOmaHJ59MYNiW5/vvl1VNvMmrqLQdY35T+XwyznL+MIvgV+98z652etYPMbM2/OfY/ORG1UJQRA6s1GRv4l5E8dcfi47solJkaMIH9nhNX4lBa39U1IY0JPObBRve4mXi+L41Zr3ifKyUJi5gmdegR0bEhnez3c9nahuob7ZzszxgYT5uxMeYGCIv/6ydAFGDbEjDMiKQvlZO05Z4fhZGzv2nSPxHh9uH9y5uzvAW8v06AD+VniWvx8209TmpKy6lfHh3jeqajdc2WeZWB5dxaL4yPNLInlw8TJs6Vs5UQVR4f1avF6oZffadCxzt/LHOeG0z1Dwx5S4jD/q0kj4fQ4Pbk7k1v0EBeEmZKskb/1yXjsYQWyklpouqy3nzFinp7P39UkdfptajIYbW8yOBm4L25zP9ndDWfp6CrHh/hhN4UxemMYCZw55x/q7cPC/xXX8dEwARr0btRY7dwz2xEPX+SqizS7z9Rkrdc0uokLciR3R/k1QFKhrclF21kabXe6URyVJDA804G/UMiLIwD0R3nz+9bnrUubC9Diezy4ib0MqMybGEDMrldW5ldg6rG/vtq4ka9EYZm+uJe+VqYRHp7HbfD5RfRFZq1OZHR9HzLRknnkzk0Jzlx1VF7H9zVRmxMUQfX8Kr2UV0TVJZzos5yydu3/Vocx8ZRkzwy+V7eUPSynYlMaMuBhipqXw8qZcyrpeDVcXsX3Fwg5p8julKUyP4/nMfLJeT2HSxFR2VwOH1hJ9/3LyzBnMjhzFpA2lgI2ynauYl9Deu/P8pgOYe2p9V+1l5+GpzJ11IVhfYpqykN8/GgFdGtnddXlbcpcT83qHZS4LFZ9u4plZF7rYM8g7JVrrgtArtUV8QTLvvPMSSSO7/jKh0VyJe1AoYUYvjBdfl6e7kQZswLZ8lU/BxHhifTss1EUyf3MG8yN7zHbDFBxvoMXmorHVwVBT963rFptMcaWVz4qbaLbK3BNhQKtu7xu3OmT+eaKVkkorzi5j1ME+OgKMWvy9tAR66zhdZ71u5T68I5Pi0alsyfkbO5aEU7hsOVnlXVOFMmtVPlvm+BO7PJui/BXMNAGtpWxOXcZnnon8duv75G5dydygIl5e0qHrurWIDc+l8YVfImuy/kbun9MYd3Ijb+zqeWw8aloKoz58iXnLMti9vxxzD11ShRvT2aVt327OplTurdnIU8tyqLgQSC/sOzj5Uppv1/LUitwOFww28jJzsExbwXs5K3nQBEQvJH/XS8Saktly4AAfzI+E0kxe2Ghh2m/fJzd7JeOOruA3H3Y/Bm+rKKd4VDRRxm5WGsKJjY8m7BrOA7aDG1md78+Cde+Tu3Mdi0eV8sbTq8i78tWPIAgAIQksXRLPcEP3Pz5LdSUmU3c/2v4zYAN2zakThA4zUvFpBi/PT2TqrBSe35BL2U0yC0dRFEaFeHKm3ookKZi8tJel8TaouWOwOwFGN0YO1nG61nExOMsKmC1Ovv7WSpu9y1i2RoVOo6a2yY5Bq+J6zvPXPZDC/LhwTL7+DI+bx4L4Exw6enkg0hm8MOrO/3v+qtOyL5PtIan8+uk4hof4YwwKJzYljcX+2ew6P05r3pvJtuDn2tME+WMKiWRm6kKS/C8/PhcNTeCtrHXMDS7n3eWJxMRM5fEVmRRUd2xN2qiISGRJSkz7dodGM3PJcmaeyOCj8z0u5r2ZbDM9x6/nx11Kk5bGzK8y2FV6sWaEPZzC/AmhmHy90KkBtQ6j0YgOXftVtg5s5ipqhkUTG+mPKSiSOW9m81aCf7fFt7VawKi7rHX9vdkmsODFRMYO9cdkCic2eTlLJ+Sz7bO+n1cgCLe2JsxmM7bSbF5blMyMhGSeSe//OVIDNmBbzlVS+V46qw+bSEpbyzurFnKveSOPv5JN2bVODLqOCk9a2Lq3CrtDIcxPj87t8kPtppbw0KlwuBQ+PGyh4HgLHRvTkgQ+BjVu3YzHe7prCPbRYvJSc3vw9RtUCQ3y6hBYvDAawdbLXtaykgNU5CwjYWIcMRdfj/BqbhUV37a3oCuOFTE8ZhSmjhl1kYwdf+VwpjNFM3PRCnbs2c+B7BXM0uTy/JOryLv4A9IxdnyX7RoiGTfezJGTtZf2PaFrmmjGja+8mAbA5OvF1eiiE5jbupannlvF5p35FNfTY0DWGYxgsXXt9f7edOOjGd6pAeBF1Phoio9WXfd9CcIPjWn8PKZFxzBrSTp/2JDGdLJ55sVMyvrxxzVwJ51p3Gm8PYVfL4k/fwIOJeyVlVieTCWrKIGl4/p3rCEiUM/9UYM4fLKRs432HtO5u6nQa1Ucr7Z2CtZqFcQM9+C+2z1x7ybYSyqosdixORQKyhp4Jn5oz4XRufcQdG3YbKC7jt+CqIXr2JIUcXkRPC61Pm3dXFB1t6xbah2mkTEkvRKBu/kR9hxMZXL8FQJs1+1er8mIxmgWvf03Hjyyn8L9ubyWtJHYNZtYMu7ysujCwokqKaLMksBlPWytlRTsqyU0Lvr6TDpzilAtCN+fF1EJTxN18X0oYUtWUvPEQrIOJ7J0Qv/ElwHbwjaaQhgbHdmlpRZO1CjrxdZcfzpe3cqrfznGR1/W0mx14nDJ3aYL8XPj0VgfYs6PX2vUEka9mnG3GXjwLiPehu4jTIvVxd8P1/L7PSfZf7zhimUJGxlN2b4Dl8ZyL7AU8dmBUO6M6L4r97sKGxlNzSkLmPwxXXx5Ya23Xmx+ho2MpmJ/CRUdM7aWcuhgT59ZJbvTknkj//L1OugQgG0UHijpPHmttYhDB03cOcz/4r7LLktTyqGDoRfT9FprLRUWLcPHxZO0aAVrUk1k/b2k+5ZtyCQeHvMxb+eUX7be/Ok6nn/3xGXNc51BB/UWGjssq6k80Sm/7UARxZ2GgJooPHiYqNtDrn/3uyD80KlDiLrLSkV1/8WXARuww+6agOVYeeeZw7ZyikvcCQu+epdmXxsd5sXCnwzhN0kjCfLRca7Z0WPaYB83Zoz3IXqYntgRBh65x5ufjfchwNh909clK6hVMP/+UFb8fCT33eHbbboLTFNSWGxbywtvZFNYXoulvpaK0nw2vLKcgpiFzLrGSXpGUygnDhdRVt/e3WualMzcilW8uimf4qpaLOZKCrNX8ezTmyg4P5HdNCmFuefW8camfMqqmzBXlbJ77UYK1D19ZqGMudfErvR0tu8rp8Lcnidv0wreOJlI0vhL+YyHM3h184H27Z4qIis9nd2jL9XPNCmZud+uu5Smqojd6Sv4aHTK1Y+Bl4kASigsqsViA/PHK5idtpWCU7WYq4rI21fK8GGmHgKlPzNT0zBmPMcvM9qPjbm6nILslTyTbmbu8wmEdcmhi4hm7MEMNueUUmGupPjTTaz/oMtcAt8StqVnU3iqFou5nILtK1h9cCpz40OvUhlBEK7IVc7uN1exu+OEW5eZsmMQYOq/+DJgu8R1kQ8xtzWVX2boWDJ9FN62ExRsS+dtjyfZcWf/ty+mRA3ix3f4MSLIwF//VU1FnZVA757LVVVZwd2BGkKDBtFUfxZvQ89d3GaLnaY2J/fd4cfIYI9ux8c70UUy53dbCcjOZP1/baLwtJWAURN4cFY6Wx6O7txL8R0MfziNOenpPJWQy5LstcwMimbRunSytmXy2lPLKK51J2pKIos3JbfPtgYwRLJoXTrbN27khcSXqPAaQ9LiVJb6LePtHvYT9vBKdnhksjnjJdYfLMfiG87kqYms+UMyYy92MeuIWpjGo03ZvJD4HBVeo5j2s4W8Myf+Uv0M0Sxat4Ltb2fwQtJhagyjuP9nC/lDxzQ9McawaNkBXnvtEbLi1/HB4pd46+w6Vs+Jp5hIHnx0Gb9NusIN4UMTeGuriV07zh+bJiNj42awYFMqD0Z2870ISmDpm1W8sfZpZqSbiH00lcXzYig4eCmJLmYhS6eUsv6FR8g7ayTq/kSWbkpm8pWv3wRBuBp1CBF+h3k2fRPGFxOJ8rVQ/H46m10p/OEq82360sB+lnhrOR9lZLDt472UWUIZm5DM4nkJRN0EJ6xD3zTym7+WEeSjY//xehb+ZCj/ERfabXBtam7hzzsyibt/CqGDg/nLzhxix48h6o4Rl6VVFMgrqWNZ1lGGmQz4eGh4+oEh3DXk5rr94EYrTI9jfUQmWxJF61IQhO+m2/OHrZaCzLWsf3cvxU0mxk5LZPHCZMZeawvnOhjYAfsm1tjqYPaaQgrKGrA7ZCbe7svm/zOaiECPy9I2tLTRUFdH+ekzfF1WwY9ix+HhridisD/aLlPE684/6vSPuadRqSQmDPch+8Wx+BjcblTVbkoiYAuCcKsbsGPYNztPdw3zJoficCkotD9IZUteBTbH5ZPPtv9pGzV19ezatYsN/+/3NJyro7TkCOfqO9/055IVPv+6jq17q3DKCk6Xwn/EheDpPmBHNgRBEIReEgG7j6hVEj+OHMSMsQFIUnuwXZ1zkm2fV2J3yl3SwqETVTyd+gLr/7AWP29vTn9TjreX58U0Llnh0DeN/GdGCU1WJ5IE06NN3B/lj0Yl/h722LR80boWBOGWJrrE+5CsKOSVnOOFbSV8faYZWQGNSmJl0kh+PiGYwX7uaFQSbTYH/yqv4dC/9lN1+iRTHnqYscMCCfL1bH+ueLOdz78+x39uLeFsow1JgpHBHqyZM4oH7hyEShIBWxAE4Vanfv3111/v70LcqiRJIthHh1Gv4avKZhpaHdxmMuCSFfYdqwelvSXubXBjmL8nesnJ0EA/Joy+A6OHnm8bbPzrRAM5hTV88lUdB8sbkSQY5q/npYRwHhoTgFYjOkkEQRB+CEQL+wZosjrJPlDN7/7+DT++3RejXkPlOSsOl0Kgt5YAbx1+nm746N2QVO0PRWlsdVDX7MDS6kTnpmJ8uDcpG78kIsjAiz8N5+cxQXjpxdi1IAjCD4UI2DdIm93FF8fqyT1Sx8f/NvPwPYE0tjgoO9uKp07CKcPB8vbHwIwK9WJ8uBEfgwaVJKHXqfnH1/VYHTJP3R/Gfbf7otf28x/8FgRBEG4o0US7QfRaNfdHDWLkYE/GDDWy+9BZvj7TjJ+nG6G+Otx1Gv59WkWAUUttkx1vvRuWNgd1zU40KnjkR0GMu82bYF+dGLMWBEH4ARIt7H7gkhWarE6Onmnhoy/NHD3TzKFvGjlVa0UlSQQYtUwY4cMdgz15aEwAI4M98NCpUYvZ4IIgCD9YImALgiAIwgAgphgLgiAIwgAgArYgCIIgDAAiYAuCIAjCACACtiAIgiAMACJgC4IgCMIAIAK2IAiCIAwAImALgiAIwgAgArYgCIIgDAAiYAuCIAjCACACtiAIgiAMACJgC4IgCMIAIAK2IAiCIAwAImALgiAIwgAgArYgCIIgDAAiYAuCIAjCACACtiAIgiAMACJgC4IgCMIAIAK2IAiCIAwAImALgiAIwgAgArYgCIIgDACa/i7Arc7lcuFyuZBl+eIyRVFQZBlZOf9/lPNpFBwOJzqdFrVKhUotIQGSpEKl6nxtpVKpUKvVqNXqG1wjQRAEoT+IgN2HnE4nTqez80IFmppa+PpoOfX1Fuobmmhrs9HQYEGWXXxbXcugQb4M8vMhLDQIrVZDyOAAhkcMQeN26eOSZRlZllEUBY1GfIyCIAi3OnGm7yMul6tTsFYUhXPnGqmorObfXx3jH/8oxGyuo77WjNPaikpSUAEu2YUkqUClxt3TG1NQEEOGBHPvhLsJjwhj2JAQPD0NF7frdDqRJEm0tAVBEG5xkqIoSn8X4lZkt9uRZZmzZ+uoqjpLXX0jXxQU8c+DxZz8ppIAbQsGqRWDG9idCi4FFEXCKSvotaBCosUOkkaLxelOk+xOVNQIYn40mnvGR+HnY8Rk8sNk8kOlUqHVavu7yoIgCEIfEgG7j1itVhSg8ngp2//0Hh/v/4aqM7W0tVmRFAjzceDnqUWW1LhUOvQeXgSFBCErChWnKrC1tqBCxk1uo7HFRUWTFo2bG3q9O+G3BTNp/G08lvwwoeERgIS7u3t/V1kQBEHoQ6JLvC85WhlUW8Dwuo/YdVZLS6sGd50Wb28Dg28LJvruSO6MGkHwYBNfl37D57m5OFHzi7m/IPy2ME5XfMvRr8v417+O0HjmHA0NTdgdTmrKvyYk+Ah+9aEozlAkjQjWgiAItzoRsPuQYqmGkt08EGSmMGIwH1V6MmZMFHOemMHY6EisVhv/OnSE/8nYTljTIV4OO0ubS8X7OcUc8ruHaTOnsejZJ5Ak+OSzA2T/9ROOHz3JjwfXMjWwBop3ooTHIvkO7e+qCoIgCH1MdIn3kTarFfnbI7RmPokqMJL6u54mv6QBk68HJ8tPcby4lJbKYu72qCJ+aBu+eicOl4Rd1uAmOTG3uZF7Uk9J22C8h93JyFF3EDoklDM1DTwwygPTkf9GsZxB/9gW1EGjrtglXpgew+z8ZN7LTmWsrpsEp7J5PGElxhW5/PFh/6vWrTA9jvURmWxJDP0eR+j66e/yWEpz2b4jmz37SqjRhRIbn8ijv0ggNqS7g339lGWmkjV0JUsnel1T/sL0GGZvbuqy1Is5Gfn8auKlspuP5JC1I5td+0qoMYxi8vREFsxNIMr3exReEITvbMC2sCuyFzL1lXxsl63RMfnND/o9mEgA7kaaBkVTp49iyLC7qf7kLzT//b+509fCdD8X3oEysqJQb1WRe9KTzyt0mFtU+LgrPDCsjeRIC+4aCw2245wq0ZD/v0YGxT/HoMj7qKwqxkd9BIPOs3cFOvY39hycx9huTu7Fn2ZTaIPJ1/UI3Fz6Kqib961i3islxKalsmZxKN4uM8UfZ/DaE/nMfyedpPC+C9rDk9ey9HttQcfk17fy+4TOx0Tn0SFY569k3muVTFuaxjsvmnBvqqTgrxt59qlSfvvOS8SKoC0MaDYq8rfy2isb4cUucePIJib9fC0Vrg7JjcnsyF9GrOGyDd0QAzZghyWs5UC8vfPC+r28mpzBiAhT/xSqC5UxiJY7HmXXe7mMlP+B0+kkLsxKmL693E4Zyhq0vH/Mg32VOlyKBoObjJvGxe4yAxpJZlJYG4PcnQxyd9Ai6zjudPHJp/s5duAsiQ8nEWAM7FVZdMZGdn24n8UT4zF2XGErYk92LQFB17/+tzzLAd5esZ/Ja7ayZNyFCyF/JqekE2FMZXZ6DrEbEgm7me+403lhNPbQQrccYP0bJUxbk8Gi6PNB3OTPzCWrMLY+xursBN6bH3njyioI15Otkrz1y3ntYASxkVpquqy2nDNjnZ7O3tcn4X1xqRZjPwVrGMiPJtXpMBq9Or1q8rMpiE5hZnTfdkX2lqR2wyd8DBpTOLs++JQGSzNWF4CCU4bCGnfWF/rwyUlPXLihVkGAQSbCx8bksDbsLolzVhWyoqAoYHWpaGiwkP3Xj1F8b8M7YjySujd11RGbNJuoz3LIq+68xnIwl91ejzEnvvNJ21yUzRupyUyKiWHSY2lsyC3v3JthqyJvQypTY8YQMyuV1R92Xn+l/IXpcTyfmU/W6ylMmpjK7upe7NNWyUdrU5kxMYbohIWszq3sZXkqyVo0htmba8l7ZSrh0WnsNl9jGbqwHMxh1+0pzB13ecALS0ghqTKbvFPXXufC9Diezy4ib0N7vWNmpXaqd2F6HM/srL200/oislanMjs+jphpyTzzZiaF5h4K3wuWgznsGZVM0mW/Jy8mz1vJgkhdj8dGEG56tUV8QTLvvPMSSSMvP482mitxDwolrFOc6d/YMnADdleWfLZvM5M0L56w/i7LRRK+fj7ceeftuFwuVCo1bU4VIFHTqiHjSyMHv9WjABarAih4usloVQo/GdpKoIeL8gY3Gm3tTbRWZ/u/druDUVG34+P3HfojI+J5NO4w7+ZXdljYREHOB0TMnkRUx+9heSbPP5eDbtZK3tvzCe/93xgqVi9j+7FLSYrfzaZsdCo79uSyY0k4ha+vIOtUb/PbyMvMwTJtBe/lrORB09XzVOxayavHovlV1t/I/V0ClvXLySrvTXlCmbUqny1z/Ildnk1R/gpmmq6tDF1VHC8hLHoU3fbn6CIYF11J8ckLY8TXtr/DOzIpHp3Klpy/tddrWed6X9RayubUZXzmmchvt75P7taVzA0q4uUlGRRfY1StOF5C2Oge6hcSzYMTw7k5Lo0F4RqEJLB0STzDDd1/iy3VlZhMxm7X9ZcB2yXeVVlOBrtGpvDBTdK6vkCt2LlLf5roQCfu/j40l6mRFSir11Js1mJwk7E6JYI8XVidEmdbVEy9zY5RpzDS14HVpeJsixpJgianGv9B3twZIHO3Ty0ayQWoOT9ifhX+xCbM4I21uRQnphClBqr3sjN/Ao++GILuRIek4clsyUlEd+Fq0jeBWRPX8u6JWhjZPinNe2oKc+LaT9imuHksiH+InSVNzBnq1Yv8OsIeTmH+hNBe79NsLidsTCpjQ/yBBJZmxaPr8FFfqTw6gxdGHe3/XrxC/u5l6MrWbMY4rKcH1mjRGaGx1QZ4XfP+dA+kML9rvY7WMie8c3ks+zLZHpLKe0/HnQ+w/sSmpLH4qyfZdSSZqHHd/S5s5K1IJOZ3HdaNXMiOzckMV1+tfoJwK2vCbDZja83mtUWHKTwFoXGJLFiQyNh+nLdxawRsywGyMswkrUi4ucYLFQVXZSF+pX8i/o5xfBsYwLliDU4ZTjRo0Guhvk0iwMNJq0NFm1NChcyRWndsLomE8Ba8cHG8wUCDTaLOqiHmtiDGOBQGlfwJ19Db0Ay5p9fFMY6PJ8m2jD1fJRMVraPs02xKpqXwlklHWdfEreXk5ZdQdqqSispSCnKbiBh9aXVokFeH1pUXRiPYbBeC09Xzm3y7GTe9Qp6o+Ccxzk/l8cpEZsXFEDshulNPylXL043vWoaudJ4mLBZ79yuxY7OAd4er92vZX/f1unwzZSUHqMj5mIT8FZ2W2yxNxE5pgm7bwjpiUzfx+4QObWiNFyZ1b+onCLc20/h5TLNEEjvhMearazn8bjrPvGhjx8ZkhvdTu/CWCNgVezLIGprCB/fcXK1rxd6C6/RBJKedO++PI8BzFJlZehQFtGoFvVrB4OVErYKyeg3h3jZUKomPvvHgZIOGoUYXYd4unE6ZOwOd/KXCwIIxkXgG1uL6tABX5SHUwXciuel7VyBdNA8+bOSpD4tYEGkkb6eZmb+MoWunj61oE4+/sJ+ouYncGz2J2IRE7jcm824v630t+a+WRzcymS05cRQePEBh/lqe+F0Ev8pYxuTrOL/wu5Y7bMQoKnaVYCb88m5j2wkOFYUSNa/nC4bve5y7ilq4ji1JEZct13n0fKuezuiFydT9+rARo6jI6aF+VUV8VGFk8gTRLS7ciryISniaqIvvQwlbspKaJxaSdTiRpRP651s/8AO25QDbt1SStHzqzdW6BhSnFdnRiubep3ALkwngNHXaIdRaz1Bs1uDtLtPsUFHVpMZd7cLXIFHTAq120Gsg9xsdY4PsaNUgqSRcvuF4G46jifDF0ZKC3NqAYm/rfcAGhk9NJOKxHPKi/clyJrKmmyGE4r3ZMG8jv5oTfn5JEx/V977e15L/anls5kosHqGMnRLK2ClTGb7sIXYeXMjk6Ve/b7yvym0cn8Cs9HS2HZrUYZZ4u4qcDLJCE3nvCs+0+b7HuaOwkdHUfGYBk3+H4Gqj4pgZnd+1bdM4PoFp6WvJKoq/NEv8fDkLtixjfcAqJk+4tm0LwoCjDiHqLiuHqnvqsep7A37SWcWeDLKCk0macG0Pj+hLksoNVeAo1IPvwtlsA0slgZHjcCoqHh/dxpkmCYu1/W9eB3rKWKwykiTh7gYWu8TdgU4ifJyM8LXz5Vktd/1oHLKlDFdbC6qwe1AFjERSfcerlJBJPDrhY375Siam2ZPax7K7MIWGU7F/LwWnarGYKynMXsvb+7o+YKNn15L/ynmaKNgwj2fW51NmbsJcupfPvjIRFtz7z9xoCuXE4SLK6m09zmz+zuU2xrBg6QTyXniJ1TlFVJhrMVeVkrd9Oc+uhyVpVx6i+b7HudO2JiUzt2IVr27Kp7jqwvZW8ezTmyg4d02bBGMMi9NGseeFNDbklrbXr7yI3Wtf4uXDk1iaFCla18KtyVXO7jdXsbvjBE+XmbJjEGDqv1gzsAN26wG2bylnVsoMht9krWsAdAbUg+9C0Q+i9UQj1iqFKT+JI/e0N41WCQ83BZUERp2M1aEgIeGU1Qz2dBJksDEuyEaY0Ym/QSb3jB/xUyZiq9LRVt4IHoNQDR4N2u96U2D75DMjE3h0Sni3KcISlvHWXaWsfvIh4pLSyLLFMzeh91/Sa8l/5TxeTF6UzjTLRp6aHkfCy7kYF6xi8XeYYDj84TTmuDJ5KiGNj6q7T3Mt5TbFvcSOPyTgvm8tzyY+RMJTK3j320iW/vnqD035vse5E0M0i9alc39zDq899Qgx0+fxxgETizeltc9Iv0amKcvYsiYea246Tz0cT/zT6XzqjGfNJvHQFOEWpg4hwu8wq9M3kXesFrO5nLzNK9nsSiFpfP9dpg7oR5NWZKcyY1cM72Uk33QB22q1AqC4HDibzVhy16AJjkI3JpHf/HI5Y9ry+PSkO980aqlrUxPk5QRFQVJcTB9u4zajjdgQGxJQck7LTh7h1d/8Eus//4x87jReU5eg1nkhabSIv9b1w1SQHse2ke/36nGygiD0rNsnIdpqKchcy/p391LcZGLstEQWL0xmbD8+l2tAB+yb2YWADSBbG2n7YClKdTGqIeM52UyjsgAAAqxJREFU7Izki79kMDGwnvwKPXVtagIMDgwauC+0jQAPF+4aGa0K7C6JNV+FkTB3Lnc6DiGf+RLV0AnoH/o1kro9WAMiYP/QWIrYnJpGzdMf9NsEGEEQbqyBP+nspqYgW5twHPsEqa6MSnMTO/d+TonrDGPufgBH7XssuLsRRQEZFRpcaDXKhawoQO5JA8bI+/jjOzmMMZxi1ggbJv1RHMc/QxN+HyptL58lLtxSCt9exp7wl1gzRgRrQfihEC3sPtLewlZw1p/GfuAdlJK/g7UZh2EQp5p11NoNnPnmNPeZmtC7KShBESgqCcXTH6qOItfXUdcm8c8GL24b6k+ol5NAgwudrQH0Pkh3PYJ23BNovIMB0cIWBEG41YmA3UcujmED2FuwfrwCuTiHk3UqWu0Kvp4q3PU6NBoNLpcLl8OJLCsgaZAkcHMDN42ESwZrSxv1bdBiUzFmiIIqOgn9lDRQu13cnwjYgiAItzbRJd7HJECWnbQNisIafA69ew2tNef4ptGGe7OCp6YVlezEqUjIioSb2kmrQ8LgBno3GavshqLSoTPq8fXxozVwCJ7Bo1FkJ1KHgC0IgiDc2kQLu4/Y7XZkWT7/TsHS2ETNqWOoW6uRzSfQ2cw4LbWonS2oHc1YrVZqaxvRaxTcvf3QuetBqwedFxj8cHgE4/IOwzcsElNYBEiX7shTqVRoteKZz4IgCLcyEbD7iMvlwuFwXHyvKGC12rDb7TjsdhR7C43mapxtTfh6aPDQqyn+6ihuWg23Rw7HIWuos9hwMxgx+JjATY9ao8HLywONuvM9bG5ubqjVN9l9bYIgCMJ1JQJ2H3I6nTidzm7XybKMw+HA6ZRxc1Oj0ahpbm5DpZLw8NAjywoOhxO1un2dJEF3f5VLo9Gg0YiRDUEQhFvd/weih7JtT0m90AAAAABJRU5ErkJggg==;" vertex="1" parent="1">
          <mxGeometry x="30" y="387.21" width="253.3" height="252.79" as="geometry" />
        </mxCell>
        <mxCell id="v1kjHRz2UVswL3TBr61I-5" value="DATA SORTING &amp;amp; FORMAT TO BE HANDLED IN BACK END" style="text;html=1;align=center;verticalAlign=middle;resizable=0;points=[];autosize=1;strokeColor=none;fillColor=none;" vertex="1" parent="1">
          <mxGeometry x="15" y="658" width="350" height="30" as="geometry" />
        </mxCell>
        <mxCell id="v1kjHRz2UVswL3TBr61I-6" value="FIXTURES&amp;nbsp; LOGIC TO BE UNDERSTOOD" style="text;html=1;align=center;verticalAlign=middle;resizable=0;points=[];autosize=1;strokeColor=none;fillColor=none;" vertex="1" parent="1">
          <mxGeometry x="465" y="398" width="250" height="30" as="geometry" />
        </mxCell>
        <mxCell id="v1kjHRz2UVswL3TBr61I-7" value="" style="shape=image;verticalLabelPosition=bottom;labelBackgroundColor=default;verticalAlign=top;aspect=fixed;imageAspect=0;image=data:image/png,iVBORw0KGgoAAAANSUhEUgAAAgoAAADxCAYAAACqC5+mAAAgAElEQVR4nO3df1xUZd7/8RcMzCgyk+mQCVQK+Rt/JTcKdy62lmwm7lJsWewNm7vc5q3Ultuu3m2x7d2W1cPdWt2va95B64bLFubmuLSQFt6aKDuk5CSKiaMhqAxKMyM2Rwa+fwy/ZRQQmVE+z8fDh8yc67rONeecuc57zjlzxqfmXG0jPaQdNAh/f7+eVhdCCCGEB1y8WI/t/PkulfW9xn0RQgghxHXMi4OChbxfP87i1/6Pak93RQghhOinPH7e4PP/fYj03I7Pjmfp6nns/vte8phC6i++Q9Bl2rCW7eXLag2hkVO4TXMNOyuEEEL0Mx4PCpwt5UvTFOYvmc5tLU8GEaSdzot797IMLborNPHV3x8n6X+/w8r/+xO33XptuyuEEEL0J15y6mEqyU89xbKWf49xl87Ce0umM2XJJqpx8Plr8wgbPY8/lgLOCt776XjCvvc6n3z4PMs3Aexl1aKHiP/f/YDFNf2nm1pOW1RveoKw0U/w3img+HXCRo9n4YrniZ8ynpeLgbpy3vvVQ4wbPZ6w0VOZ/kQmX9a56n790UskTh9PWPO0FR/L6RAhhBD9guePKADgwHrOhrX5oUaLLqDtdA13LXudZZ88xKqnX4J/38Mq43dY+Y9n+Xf28/CMTbz8URjfT/0F94wOBxxdmmvBRweZ/8gipult5P3qIZZ/Mp1lf32Th2/ez5r/+gWJzwTxf69pWPXURqofe5MdT82AkzvY55hx2VMhQgghxI3CS4LCRhZO39j68KcbKf9FaPsiqnEseft/KH7geVb9RcP8N//KwyEAU7grBCCIOyOnE30rdDUoxL30Dm/M04L1Y3621QFTdHy7axMbAEaE4vhkK4W2x7kpAL7+KJNVmoNEjJ7BrPu0vfCahRBCCO/nJUHhMTL2PsVdzQ81WsBy2RrWum+AK+ywFfi26c+vj+4FprebfNvwDvXb5AvduAdYMi6IUO105v/fVu7ZamD3/v2899o6Xl7zODn/fJa75MJJIYQQNzgvuUZBg+5mbeu/gE6K1O3n5Z88T0Hks6z8aQgFK55g1X7Xnl1zUyhQzpfG/RSaLICW2+7QwJ5M/rjx/yjY9Dovb7zMUQbdDO6fp4HjFRAey/dmxzLKT2FUoutaibzMHVgnPcTSFf/DsvtD4WQ11V07aCGEEEJc17wkKFyB00bBa4/zv6e+w8oXH+fhZX/gxSnl/HH5H/i8DiZ8/1keHlfNX555jKTnDHyFhuiFr/HwuJO89+snWPjaQe787rjLzEBL3EubWPkD+MszjxH/4GP88m9HOVNtg1MH2b0nk18+OIcp0+ew+CM9//Hmk8Rd6asYQgghxA3AR27hLIQQQvQvcgtnIYQQQvQKCQpCCCGEcEuCghBCCCHckqAghBBCCLckKAghhBDCLQkKQgghhHBLgoIQQggh3JKgIIQQQgi3JCgIIYQQwi0JCkIIIYRwS4KCEEIIIdySoCCEEEIItyQoCCGEEMItCQpCCCGEcEuCghBCCCHckqAghBBCCLckKAghhBDCLQkKQgghhHBLgoIQQggh3JKgIIQQQgi3JCgIIYQQwi0JCkIIIYRwy8/THejI6XTS0NBAY2Ojp7sihBBCeJSPjw++vr6oVCqP9cFrgsLFixdRFIWGhgZPd0UIIYTwKr6+vqjVavz9/ft83l4RFBwOB4qieLobQgghhFdqaGjg22+/paGhAY1G06fz9vg1CoqiSEgQQgghusAT+0yPBoXGxkYcDocnuyCE93Aq2O2XDgDKN3YUpwf60zRv+zedDEqKHfs3dtp116lg79DXdvWb6zT9u+Q1ddZm8/OdLBch+iuHw9Gn1/F59NTDxYsXPTl7IbzLwbeJz7qDTSvnMqTlyS95+wd/4Y73VjI3qC87c5adr6Tw2qHhDKeK46N+waZfzSQQUA6/xzO//BvKrUOpOaGQ8Id3+NFN23kh9Q1O3DqUmhO3sjjjF2gz29f/37v38D/ZR+BCFUdOTOBXm1Yyu+mFdtrmncCFL1n7xOton296LIQAXPtPtVrdJ/PyaFBwOj30MUmI65hy+D2WP/837AO1qGc/y++SA8l98hn+8g0oF6bysz/8itls56UnX2OvMpzhQQpHIp/j0wePs/zh4/zHp4uZcGAt92TdwabfTuXLN9J54wvQcjv/8eqvmH0rwBBm/sLATBVw7D1+vKSM48xkAqAe8zBrNj0MKoW9r8WxufwsR6rf5qsHf8fG5FEcf/8/+c+PqsjrUN/6q2d5a2YVuS+kc+S/ftESEnDTJncGsnfdco4veIuVEhKEaKcv958eP/UghOjA/iV/z3ybtzN3UnXJxLNsy1xL4IO/YHHaD7jjwzfJPXEHc3/9O36T9gv+Y+x2Pt53mr3ZL3FqwVsY/v4Oz80JdD+vg3/npS8n8F9pi/nJrLO8lL2XloP8KuDCEd79/V+4NW0uE9rWU0FVwZus/fJh/mPmEBR7FbcHDQVAGzjEdbqks/qHd/L3GoVtr7zB9mo7X374Nm9nvs3Ok5e2WfXRC7xUvZinpu5j+T1r+bIXFq0QN4q+3H96/GJGIUQH6iGMmngXd028Ha2bIq7z+8P5zrKfMLVhOy+kvscR1K6dO/4EDlRz9tQpzn5TxYmTdlcllQawY78Ais3erj2HEwLHPMLKObe3PnnhS95+cjll895i5f3D25Wvyn+BpVlDePZPi5kwEIbcOoF9h4+goHD82AmGBw1B3bH+N2c5O+Zh3vrTKywO28nH+84zZNRd3DXxLm4P7Njml/z9tb3Yd7/OY4++zl7eY+nyXM72zhIWQnSDT8252h7HEu2gQfj79/zsxbfffivXKQjRrPl0QIdrFNbes5T3mh9Of5bsx+28+su/cPYmqBn7C/68bAi5S15gm2o4Q1RnUc9bw8pZNnLXvcnfTw5h6k0neC/oKT5dNJztL6bwUoGdwDtHoR36A9Y0nXp4ba+CWgnkkVd/x8Nj1MBZtj/3EC/tbpkxzzZfJ3HwbeKWvNt65GHBGj5NVvPeC8+w1mhHfeeP+N0fEjj1Uvv6//V0INl/2s7ZCzSV+QkTBjZN7qzNRU3HMKpzW0+Z9P5SF+K65O/vz4ABA3pc/+LFemznz3eprEeDgtPppK6ursf1hRBufPV33jRq+c7tNratWws/3cSzMy9zCkIIcV0JCAi4qrs1XjdBAeDChQvU19dfVRtCiA6cdo4fPMIpm0Jg6AQm3C4hQYgbhZ+fHwMHDrxywcu4roJCY2MjdXV1cutmIYQQ4gp8fX0JCAjAx8fnqtrpTlDw+MWMPj4+BAQE4OfnFXeTFkIIIbySn59fr4SEbs+3T+fmho+PDwMHDqS+vp76+nq5v4IQQgjRRKVS4efn57EP1F4RFJp5ckEIIYQQ4lIeP/UghBBCCO8lQUEIIYQQbklQEEIIIYRbEhSEEEII4ZYEBSGEEEK4JUFBCCGEEG5JUBBCCCGEWxIUhBBCCOGWBAUhhBBCuOV1t0FsbGzk4sWL8iNRQggh+j1fX1/8/f37/Pcd2vKaoFBfX4/VagVgwIAB+Pn5eXTBCCGEEJ7U2NhIfX09drsdAJ1O55GfOfCKoPDtt99y/vx5tFqthAMhhBAC1w8m+vv74+/vT2NjI9988w2DBg1iwIABfdoPj1+joCgK58+fR6fTSUgQQgghOuHj44NOp+P8+fMoitKn8/Z4ULDZbOh0Ok93QwghhPB6Op0Om83Wp/P0aFBwOBz4+/t7sgtCCCHEdcXf3x+Hw9Fn8/NoUFAUhYEDB3qyC0IIIcR1ZeDAgX16+sGjQUG+AimEEEJ0X1/uPz1+jYIQQgghvJcEBSGEEEK4JUFBCCGEEG5JUBBCCCGEWxIUhBBCCOGWBIWeUioxmSpROv7dVk0B6fevxqiAUnvlr7KYslLYaGp9bD9uxJC1EUORGbuzm/27YEe5Qp2a0nxy1ueQX1oDmNi4cCOmTsp17Je4EZhYHR1NdHQ00Wu6tnKV0o2k3R9NdPR9pL5eQGV3t0nR9+xmjFs3snGrEbO9m3WdCna7a9wq2zCP1A8qu1m/hrKPc1j3QT5lZ4CaAl5eWUDNJQXdjz32ciPGItc/0/HuvgB33M9PdE6CQk/VFpOZUYyt7d9KJaYjZswlRoxHamBoJI+/GE9YjYH0+9PZWGTGDtiPmzAWmVreuK7HZVSeLqOmefCtySf9xUK0d0Uy8hsLFuyYTWWUlRgxljSFEmcNZUVGjCWuIKFUmSg7bqbsxHEML91H+vtGzLXAmTLXm6209S1auXUZz3xgJXhyMNbtBox2qCmtAeyYm/qpVJlc9c+VUfV1Wbs+i+tdBIs++jPLpnWxuGJk9ZJ1qJ/4Kx9/+CKTClew+hPZGLxbDfkvplOojSTytrNYasBebqLsiGv8qbzgKuUaf4yunXnzGHakkrP717HkyXXkmyoJvm8lT0XrW8YYU5GRspq29csoK20abwCclRiWP0OOLZhpt1jJ+6cRu9NGzRlbuw9W9nITlQrUlFZRWdo6ljUz56axqRygiryn08mvoWU8KzsDYMdsMmMubTsu2l1jcGkZZUVm7E7F1Xab8aumtKbTftjLTZiPl2Gu7WQc7MckKPSm2mIyF62mwFbFjueXk1NhxvCUgeNtyxx5hyVrDjFAW8mmn79D2ZGNpL5pROEwB3a1KacNZmJ9Hlnv53FoYDDBKjOG1HQMX0PV9mUs+eAIBS8uxVAFSvFqUrPKsBVnkvpKHpZ2nSrjnSfWYdbqwdl8J69Kdn+okLgwkZioGBKX/pjIwObyrj6bAVtxJoamzhtLD8OZPFY8nUM3P1cIL6UePBSNuouFy4rZcmE+D90/gsBbYrjnu1Bw8NA17Z+4WlqCx0Heu1nkHQ0k+BYw56aSbjgGZ/JY9mQOlUfeaRp/qjA8mU7BiWIyF/2WvPaDCPbiTDKLba4xZk0B1jM7SF/uqr9kjWv8MryY1jJeULWbLRcS+fGDMUTenUhaciQtQ0ybD1nm3EyKawGMHDgKVdtX8PSH7UcYS1kxxYVGvgiOZrRPAek/N6BoB7D79XQKas0YUlew6aiC6d0UVhcplGUtYXWJAkcNpD9lwKyycbZCcYXdn27EfJl+mHNTWfHuFyhuxsH+SoJCT6k0UGvD5gQuOLCoNK7np8wi/u544u42UdWUuP2HjySYYCZFjcDx1QFqlON8tusYgdMCqT1yGHX0LGKi4oiObtO+OoIfZ27lj0/EoXzwKJkmgBhi748kPjYGU+VBDu+KJPr+SGJmR6M+YOYcEDkvkZjb72DkcAgeF8mIwaOJfy6amq2rWfVmQdObRId+eCXmyqbTIXb7padNgJozLW8pYmLjibw/lhhTFWd7d0kKL2Na08kpCafS6TYivJmaiJQ/s/UPTxKnbOLRd13rs+17+dhXB1rHn2kFHK4CpswnMTqYIbeNQD94BNMigml7o/3I2Hhi5sURY6qi4utj2EdHuupPbFNosJ7gSnPrUQt7Z1uPncqq5r/bjm3tR5ix300iKeVJHh++mk3bDlKAlQO7PsMxOhjsrrpx82KIj51E5ZlTVH5lZ/RdMUTOjmYiQO0BtrxnoLD0GNbjNVx6HKxtPyBmXiKjB7c+bjsO9lde8TPT16Whs3g8OpWlSXloL8Cs36xnKHluCo9g2vfzWJ6sZuXqRTz2yW/JKwSin+Xxe8YSs2gpjxqGo1Ygck5TlYp8lv08E0uAGkX1GM+Fw6dsYVWqEep0LHs1jZjxL5OenMJq1MSt+CM3f906/xFT4sl7IQX1b37F0CwDu2tBHapHC0AgsxansfuXD/Ko31BQTSJtZVxLXyfO28LTC4yMUMOkaQDBGNenkFKroHv2FdKuzRIVXiLiJx/z8Y8ATWDrk+ETiR+YTmHhIiKnHeLTTyBm4UiP9VF0RSX5y5eRWaNGXafmsRWjYSdseT0FI03v5VkKx5ev4FEDMOI5Vt3pYFVz9VsmMs2ylKUvaHg+qvM5BMQuIq34FVIWDiF4MAQ3TwicxaKlu1mx4FG4CdQT01iZ0jRt6BimWZaQkpzPcEXNfIDhRtalprCqaWxr659rlvBFACh1s3h84Q+YVp5OZqEZhicRHwoH2pUexKzFaRSvTCFlaDD61h6BzU4V+tbHnfWjRWfjYP/lU3OutrGnlbWDBuHv3/Os8c033xAQENDj+v2LidXRn3JPYRoRnu6KuEHUYHhmHi+Hradw6ZW3qprC1Tzz3EbKLqgZ/f0XeeXZWQSr+qCboteY1kTz6cxC0ib3UoO1Baz+wwHUw20Yt2pZ9H4akV09nXWN2Hes5vX9aoIvGDEMXMQHT0Xi4S5dE3V1ddx00009rn/xYj228+e7VFaCwnVEqVVQD74RN3lxPVEUUMtmeH26YEdRB6LuzYB3wY7dAWptL7d7FZRaOwpqAm/g8bIvg4KceriOSEgQvcnHfrjd48bAMV2qJyHhOjYwsPc/XQ8MJNDLfgRYPfgavM5+TIKCEP2UX+F9LX/XR33owZ4IIbyZBAUh+qmL953wdBeEENcB+XqkEEIIIdySoCCEEEIIt+TUgxCix/bu9eHbb9s/Fxvb4y9SCSG8kAQFIUS31Na6AsKaNSry8nwumf788w08/7z8YpQQNwoJCkL0A4cP+3DqVO+09dOfqjh+3BUQ7rijkeTk9kcQkpMbemdGQgiv4JVBobFRDl0K0VsOH/Zh0qTefatPn97Iffc18J//2cCwYZe+X+UtLETv8fG59MhdX/LKoNDQ0IDTKYcuhegNwcHwox/5tBwFuFrDhjXy6qtKS0C4eLFXmhVCdEKlUqFSefaWl14ZFLxhwQhxo1CrISOjEejNj/n+Vy4ihLghyNcjhRBCCOGWBAUhhBBCuCVBQQghhBBuSVAQQgghhFsSFIQQQgjhlgQFIYQQQrglQUEIIYQQbklQEEIIIYRbql8uX/7rnlbWqNWoVD3PGg6HA39/uXGLABzl5G/IYYexkH2OW9DsfZ8c45cYy2HMuFvRtJsexm1VW8je/jl7SqyMnHwHAW7bCmPqLSfIWPxnHHExhPbkFmNt2zvzLUff/xN7htzL1Fs6lDuSi+HsKMYMbfukhfzsQm6KCGvfx97WzeV3VcvEUUSWASaN07U+92U2WdURTOq4THqdg4NbMsn57HM+O+zH+Ihb0XS5bvO6CKEqN5NPiGD80DYv3lFCTq6T8WN07pu4pDuHyC90EH5HUx1HOfk5eewpKuRAYzDn/rWfIWPucN/HpmUZbPkX5qAwgmQ4FF108eJFBgwY0OP6DQ0NKF28raoEBeEdLpyDkfcy+9917Ht/G+YRD/FEQjRjLAXsGRBBuG+b6R+dYsyMaUT+ezShJwsx3xpBqMZNWx+d4iZ7KVWDghg+eRzDexIU2rT3r3+c5f44HWbfpp2irQTD3wr4rKic6spP+PsXNzP130LQtbwt6jhqOs3wiBDMWzZi2FeKddAoRpzO4dXNRzj+rxKcYyJw5m3m6IhxOHNd/w/6PJusAhNH7Tcz/pZjZPyPgaOaWxk/8F9k7dYx6Y5T5Lx3gvCIW123V+3m8ruqZeI8yYEjuvZBodrEAdoEBVsJOVn57NtXyrngCEb4l5O/wcCegyfxGzmKIOchDH/NxWgq4bMPS/C7uZzPzo1jvGUzOZZxjNd0qB/YPKNarL7jmHNvFHy6HUfkZIK6PAS51kVAXTF7Ah5kwaQAOLmTjJxCDpqdBI8C89EAxg9tv4xvqSsgu+26eC2fo8eKOBoQwZizhewbFMV4fdMsTpuoGP4A8d+NILh2F1lvf8K5sdMZUb65dX3epqNiZzY5u0zs2/c5x9V3EnD+W8ZoPsdgaV0Gup1ryDpyEuOnuzj+9Ql2/MtyaSgW/VZfBgU59SC8gzaM8GFQsW0nmoihDBnuGnl1QzRYrR2mz5yMfpiWim1rWFsWwp1aBwfzssnIymXfuQ5lp1zkc7+ZzBjWO30bNOc76NvuWOusWNVhxCbEMWf6TOZ8L4rQTu8+riF85t3MCNNQcdTiehyTQNIsDUc7+VVH3eR7iY0Iw3GiHCugmTKXxJgQ0EcRWltCxZESmDi29ZNqd5ZfbywTgNNF5GRtIKugHEeHSZbd29jnVIPGRsVxG2jCmBEXxXi9haOnwFpUimZuMklJycTecWnTl9RvoSd8lB7HkVz23XE34d290/vxzbyxBaZO1roe3xrF/JnjCD1XztfNPy/TYRnrO66LcbNJfGQyjlLLpe2HRBFevR3Dll18rZvBnAfmEj9W2359Og+x5/QUFiYtYOH8KILcvQaVnqlxCcQH6wmdm0D8YEtrH4XoQxIUhNewfp5NviaBpKlDcFS7dg7Wagc6XYfpE8BqUQi/dykvxJyk4JiG8XELWJg0l6k3ty8bd/EoRw/lkrF5M4bCk1fftwkdDiLro0i8V49129/Ir2k7wYHV0ryDU6N2lrOnSEEXooO6pqebdxDO5hrgUByAg4OFJTj0epo/s2tadiZapg6rJqsAxt/Zvi9dXX69tUwYFkViUjJJs8IuPbSuCmPOggUkJS4gbpwWThax57SWIK0ahxOUekfra2q7HJwOV+joWL+t0zvJKgojaX4n872SoLn8Mi2EPbmHcADWkl185adHF+BoWQ/tlzFu1oWbOZ+zQMRs4uffDeVHcH1eu3R9utV2GaBpmUvL3Oq7+4KFuHpe+aNQoh86vZ1XVx8idKZCRt0ExtRlszYD0EWRNKzj9ChiVDvJOKFBg57YJPdtbbk1isVPjMUarKc6OqQX+hZFYttPwOeKyNp8Eo1Ky/gQPRWGnVSMmkmoCqp3/5mM06AZlcAclQZd3TZ2FJykImDsJbMIGg05mdloqhVmxGvQqazs2LmLo9UhxHYoq4sIQnMshPFt91XdWH69skwuoXBw6wYyitWEzkxgzrQwqrM3kOGE8IRkYgN0OMp2suPUMfge6KePozp7A1laNdZymPFAGI6315M1yAKzQN+xfnNWcJaT9ZsNVEyZSc4GC7GPzCa8O2khQMOAYTNJHLaBnC9HkqiFo3t3Yi1VmPFAa7HWZayh4jLr4lIWdrydi2OQBt2Ue5mq+gBDyRRi27ahGssM/QbWbtiPTmXBEXCbq2pIGI63WpeBEN7Cp+ZcbY9/Uk47aBD+/j3PGt988w0BAXLGTYguc55kT/Z2HLOSie2tfbwn2MrJzyvBCjhUYcQnTL7yp+2+cqMsY3FDq6ur46abbupx/YsX67GdP9+lshIUhBBCiOtMXwYFj16j4Osrl0gIIYQQ3dWX+0+P7qk1Gg0XLlzwZBeEEEKI68qFCxfQaLp9KW+PeTQoqNVq6uvlMl4hhBCiq+rr61Gr1X02P48f+9fpdFitVk93QwghhPB6VqsVna5vL/31eFDw8/NDq9VitVpxOuVuIkIIIURHTqcTq9WKVqvFz69v72zgFfdRUKvVDBkyhNraWhoaGtBoNPj5+eHj4+PprgkhhBAe0djYSH19PQ6HA19fX4YMGeKR/aJXBAUAHx8fbr75ZhobG3E4HFy8eJHGxh5/c1MIIYS4rvn4+ODv78+gQYM8+sHZa4JCMx8fHwYMGHBVP3YhhBBCiN7h8WsUhBBCCOG9JCgIIYQQwi0JCkIIIYRwS4KCEEIIIdySoCCEEEIItyQoCCGEEMItr/t6ZGNjY8s/IYQQoj/z8fFp+ecpXhMUGhsbaWhooKGhwdNdEUIIIbyKr68vvr6+/ffOjA0NDfI7D0IIIYQbzR+kVSoVvr59e9WAx69RaGxslJAghBBCdIHT6ezzU/MeDwoSEoQQQoiu6+v9pkeDgly0KIQQQnRPX+87PR4UhBBCCNE9EhSEEEII4Va/CQpCCCGE8G4SFIQQQgjhlgQFIYQQQrglQUEIIYQQbklQEEIIIYRbEhQ6UVOaT876HPJLa7pdV6lVXH+UvsO8J3Ko7GZ9+3EjhqyNGIrM2J1gykpho6mTPn7yMi9/cmn/lCoTxiKj618P+u+Ou36I61hVAatS7yM6Opro+1N5p0S5YhXTmmhX+ejVyOZwnVEqMZVU0rKWnTWUmdo8blZTwMsrC7jq0aOzdi7YUbpxr6Ca0t0Ysno2Ftd8tIz7MtxvpfZyY+tYWW5vml/Px/4bmQSFjkzrePBdC5PunkRgTQ12pRLTkTLKiowYjzRtPGfKMBYZMR13bVz2chPm42UcOWwg/f50NhaZsYfPYeXSGPRKJaYjZswlbeo7aygrMmIqLcPU5o2qlKxmySvFaEaNRmMy8GmVAufKqHHaMReZseMKAuZaoK6GqqrDmIqMlJ1p7b6tOJPVhWcBBdP6B1lnApx21/xLXOFDqTJRdtzsqtv8fjhThrHIRFmpCVOVArWu6S1h41wZNU7Xm8tci2vQKbe3tFVWpVwyTXg5VSB3fP/3bP3oY9b/SGHdn/OuuHOI+MnH/PmZyD7pnuhltcVkPrGMjUdcD80fLCcloxhb8/hQ5HqP47RRU1HJ4eYxy6lQWWrEWGTCbAewYzaZMZeasXccJ+xNj0vM2JUO7SiVGF66j/T3jZhrL9NGk8qty3jmg0qGjgrG+sEzpH1gbh1vKuxu+mTE2BSGtFMe5/f3j24Zbzu2b85NY1N5x/lZCZ4cjHW7AaMMYS0kKHR0y0hiTBtZt9VIzeChBNYWk7loHbsVBdNbC1j16TbSnzRQhYLxzVTeOQLm3FRWvPtF+2ReW0xmRjG22mIyF62mwFbFjueXk1Nhp+DFZzCcAeu/1rEkoxgbAApfbN9IZOoi5kRFMmdhGvGh6qbGzBieMmDGFQQMx13PfrG/DKtiYl3KKoxtZm6vOEBxSSHFlfOZOALKspawumwAujObeDqrDFtxJqlrCrCe2UH68hwqawtI/7mBKqzszlhCZrENpbqSSqBq61Je3tH6jjHnprnmX1tMZq7Z1dYreVg6mSa83C2RJM6LYOhgNd9a7KiHatFcqc7AQIYOVF+plFgjfHQAAB7vSURBVPBWwyHvzRzMVfmsM9gJBnBWUnkGqDKwdGUBdoCDxZQ1j1lVNs5WKKAYWf3TjZgxY0hdwcZSpcM4cYqC11bwqaJD5wBUHdo52bYj7tpoHmsq2f2hQuLCRGKiYkhMTUT9bgElzeONyt5pnzYdVTC9m8LqIgVbcSaZxadc462iY0Dhy6R/0vnef8DAmvbzW/pjIgOv0Tq4DklQ6GjoHF754ANefDSYshdeJv8cMH4Wc+6OYc7dY6ksM1EwLZq4qBhmRas58JUrpcbMS2TCmJEEE8ykqBG028amzCL+7nji7jZRVVOJ2RTMxOhIYu6exoiWQmp0+mDMFU0nKy7YsXdyiK7mTOsOeNLdc4i5ew6zwiupqm0tExwVT9IPF7Eo/gsy8w9iPlCDYv6MT82BRAYqnAciY+OJmRdHjKmKs9VmTLdNJGZaDLOmuXpkLsrE8EkxZWcUamyOTjpSQ3NPIuclEjNc3ek04eWcdozrU1lWOIs/PjOr3XbbcpphjZxkuGGMeIznvldISpKBaYsfc40/x41kbs2n+GglSo0NB7Qfs44fYMt7BgpLj2E9XuMKEsQw/8HRWNqNE/7E/PhxhhZn8frvNvLF+Q7tWIMZORyCx0UyYrC7NprHGh364ZWYK5s+AZ2pxDxiKDfTNN4MPNRpn+LmxRAfO4nKM7amdr7m8C6wHviUz5yjCVZZ3SwYbfv52e2XnpLpx7ziZ6a9ibJ/HSmv70YdoKCMe5xHdQ7yDq5jxcIcFFUkaSsfIn59OinJq0ETx3N/GApHm2uPYNr381ierGblK8Fu5jCax347kfRnUzCE6oFZrVN++ArTlv8n8zYNRavoeOjlVYxtanfivC08vcDICDVMmuYqb9n6CimbLKinpfH7W1rn8MW7v2XJR6DUqYn71Z3MGvcYea/ksRuIWfY4g77u0KVRj/HK+HSeSTUwYigQ2zrJWmtpV3TExHi2LH8U4x1qiIjs8jThhZw17H5zKcuKIln1+8cZ4bCjqANRq1yTI37yMR//CNDIR6sbyfD7l/HKYIWY8AMUtp1gt2JxVwnAZqcKfaeTXOPEeYyGLPJKgMH3oOvkwNOIKfHkvZCC+jc/c9NGs0BmLU5j9y8f5FE/Lbb6ifz81UXcXFzQ5T65jCX+V2NIf2c3ZoJJmtd+XA4eF0nk5KYHLfMbCqpJpK1cRszQyzTdj/jUnKvt8X0gtYMG4e/f86zhdDppaGjocf0+ccbAspXw37+Lp7e2mbLsdAy2YNRHd1MW/Qqrv+8uVPQRZxkbf2vANlyNeWcZMS+vJj7Us10SfaBkNdFPbGzzRAz//eEq4m9xWwOAmq3LmPfbEawvTCPimnZQiJ5RjuSz+q1MHPPW89+xN2bQ9fX1RaVS9bj+xYv12M6f71JZCQpX4lSwX4DAwF48L+tUsNsU8FP3brtXQ7FjrwMCAvGWLgkhRI9csGN3qAkcfOMOZn0ZFOTUw5Wo1AT2diBVeeEGrJaA0N/4nNvT6fONN8/o454I0csGBhI40NOduHFIUBCin1KVLLrkuYaxv0F+01UI0ZYEBSH6qfpZJZ7ughDiOiBfjxRCCCGEWxIUhBBCCOGWBAUhhBBCuCVBQQghhBBuSVAQQgghhFte+a2Hxkb5gpYQQggB4OPj49H5e2VQaGhowOnsxo+WCyGEEDcglUp1VXdg7A1eGRS8YcEIIYQQQq5REEIIIcRlSFAQQgghhFteeepBCHHtlZT4UFvbe+3FxspFyELciCQoCNEP7djhw3339e7b//nnG3j+ebkIWYgbjQQFIfqh6dMbeeklJw5H733tKjm5odfaEkJ4D5+ac7U9Pl6oHTQIf/+eZw2n00lDgwwuQgghRHf4+vpe1bcDL16sx3b+fNfm1eO5CCGEEOKGJ0FBCCGEEG6pfrl8+a97WlmjVqNS9TxrNDY2yu2ar2eOcvI35LDDWMg+xy1o9r5PjvFLjOUwZtytaNpND+O2qi1kb/+cPSVWRk6+gwC3bYUx9ZYTZCz+M464GEJ7cnarXXuDcXz8Vwz7ivjECGOnWNj+TydjRvmwI6eIIePvQNNJExWbszkYFtGz+feon1dehlNvc7LnjWXkD57LVH1351VElgEmjdNd/rlrwsHBLZnkfPY5nx32Y3zErZ0u885ZyF/1GvmHjmCsuZV/C7vKvh7aTI5lHON7sPzWPr+ZA5WHOHhOy5gRN1/+Ii9nCYYubGdgc033/RxD2345ysnPyWNPUSEHGoM596/9DBnjrg1a1mWw5V+Yg8II8u/m6xPXFR8fH3x9e77/bWhoQLl4sUtl5WJG0XMKhD+Qyhz9ITJ+/092TUlkcaIe685s9pyezJyANtPXl0PCvSRF6anOzeYrG+i1btpaX055XTmaqLBu7Ewu07f/t4dd/jNJeyKMPS+/xRdGHYZ/QGjUAhyWInI2lOAYlsDiuJBOm7IWZZNzBHQjZ5I4zULGqhJ0oQ400clMLc2lOi6BoLzNVMclEF7SoezLReji5pI4+hBZ+yeTdI+VnPdtxC+Y7Hpt3VyG1iALFUFRXLPduq2EnPdLcKAm9IEFxA4uJz9rF9UaPVPnz2W86hCGnCKsKrCWw4zvazmqTiCRzeSQQGJIh/rDWhpGMy6BxaO07Fn9NyqckxnfndOrITP54Q8nU7i5HCsh6E7uJCPvJJqbxxGXEMbnf3qLar0O6+C5LL43BMvubLZ8BahOYg1YwMKQna3rZUhzlw5heL8Iqx8wcjZJQTv5zccQ+70EZrCdrEIrEETsI7MJb9oQdVEJJCWEdF5/poY92Zs56NTgUI3l/nElLdsZll1kbTiJrl4h6J5HmKMuatf/TllOopm+gKSRDiylH/P7zZ9RMXoK8dZ/tL6WmBAqdmaTfwJwHKNC9xBfnlYz9UTT+mhaLzNK12BQhUClhaBheqpten6YPJPuZiXRP8mpB9Fz2jDCh0HFtp1oIoYyZLhr2NEN0WC1dpg+czL6YVoqtq1hbVkId2odHMzLJiMrl33nOpSdcpHP/WYyY9hl5971vn33Xv7t2828+sYaDJooJk2JYk6c6xO5ZvAU5ictINxWjtVNU7rJ9xIbEYbjhKuMZtxsEh+ZjKPUcuWyU+aSGBMC+ihCa0uoOFICE8e2BqDuLMOYIPaY9Myapr1kvt3iPMmOrA1kZRfR8RVYdm9jn1MNGhsVx22gCWNGXBTj9RaOngJrUSmauckkJSUTe8elTV9Sv4We8FF6HEdy2XfH3YR39xqskzt5P2Mz1WoN1jrg1ijmzxxH6Llyvna61mNcQgLhteVYnYcoqJzCwuQFLJw7BR2XrhcAy979aOYnk5SczNSTRRx0ahj/3QXEjoJ9H+RSrQZN/Ukq2txrwlq0mYwN2RhKbJfWP1bE0bBkFiYlszCsnAODWrcz1GOJT15AUspsHHtLcHTof6dCogiv3o5hyy6+1s1gzgNziR+rbf9anIfYc3oKC5MWsHB+FEHulqtKz9S4BOKD9YTOTSB+sMX9fIXoQI4oiKti/TybfE0CC8eVkFVqA7RYqx3oxnWYPgGsFoXwe5fygi4bwzENiXELGN9JW/Mv5vL2oYPs27sTjS6KqbM6/6Tf5b4F7CQrZgUvRGlwFGVjMLf5PO6nRq3StDty4bBYQK/H4QQNDg4WlsCokeg4CYBGBbSp4QAcigPclgXQMnVYNWsLNMQ/3v44SZeX4eAS3jheztH9Rey5OYRZY6N69olQFUJsUnJT54s6TAtjzoIEYtU2LIoWThax53QI47VqjjpBqXe0vqbm/52upeBQdVK/rdM7ySoKIympB0eKQmbywwWz0TtPYthcxIAwG1/dPBZdQCnU0+l6dFGDSuFg4aF266VZy2tpHgmbH4+eS1LCXEJtFqxtzpG1PaJg2dZJ/StpKm8r2dW+/505Z4GI2cRHOdi383NcB4kv3cbcarteaF02LcuovrU/QlyOBAXRc6e38+rqQ4TOVMiom8CYumzWZgC6KJKGdZweRYxqJxknNGjQE5vkvq0tt0ax+ImxWIP1VEf3LCS0m7c1hKGWDWQc0uCoD2FOkp6jn25nz+mETqs6Tm4jI8cGAZNZqNFgVVnZsXMXR6tDiO1QNmg05GRmo6lWmBGvQXeZsrqIIDTHQhjfdm/WzWW48Gez0R3SE0QPQ0InrEWbybDp0Nw5m6RpYVRnbyDDCeEJycQG6HCU7WTHqWPwPdBPH0d19gaytGrXqYcHwnC8vZ6sQRaYBfqO9ZuzgrOcrN9soGLKTHI2WNodzu+Skzt5f0M1Omw4Riag1ZZwdO9OrKUKMzquRtVYZug3sHbDfnRqC9aAsE7Xi376FNdr0Thw3D6XhaoiDgKgYeo4yMjYAIQQnzK701M9l9QfqcG6dwMZR1ynHn4YpefzbU3bmbOc/KxsqFMIuvcRtPW73Pe/hYUdb+fiGKRBN+Vepqo+wFAyhdi2r6Xta1VZcATc5qoaEobjrdb1IsTVkPsoCNEXnCfZk70dx6xkYnuYfbyCrZz8vBKsgEMVRnzC5Gt3vcRVqCjKZc8JB9Q7CIpJIPb2Hl/tIoRX6sv7KEhQEEIIIa4z/eaGSz4+vXf7WCGEEKK/6Mv9pwQFIYQQ4jrTr4LC1dwwQgghhOhvfH19+09QAFCpVHJkQQghhOgCHx+fq7o2oSc8HhRAwoIQQghxJZ4ICeAl91Hw8fHBz8+PhoYGnE65XZgQQgjRlkql8tipeq8ICs18fX3x9fWVH4sSQgghcH2Q9vQRd68KCs28YcEIIYQQwkuuURBCCCGEd5KgIIQQQgi3JCgIIYQQwi0JCkIIIYRwS4KCEEIIIdySoCCEEEIIt7zu65HN91CQ+ygIIYTo75pvF+DJWwZ4TVBobGzE6XRKQBBCCCE6aL59sycCg1ecemhoaKC+vl5CghBCCNGJxsZG6uvraWho6PN5ezwoNB9JEEIIIcTleeLIu8eDgoQEIYQQouv6er/p0aAgFy0KIYQQ3dPX+06PBwUhhBBCdI8EBSGEEEK41W+CghBCCCG8mwQFIYQQQrglQUEIIYQQbklQEEIIIYRbEhSEEEII4ZYEhZ5QKjEVGTEWGTGWmLFfw3tf2I8bMWRtxFDUg/koduzK5YvUlOaTsz6H/NIawMTGhRsxdVLOlJXCxs4miOuUidXR0URHRxO9pmsrVindSNr90URH30fq6wVUyr3SvJ/djHHrRjZuNWK2d7OuU8HeNICUbZhH6geV3axfQ9nHOaz7IJ+yM0BNAS+vLKDmkoLuxx17edM4W2TEdLy7L8Ad9/MTnZOg0BO1xWT+qZCzgHJ0I6lJ6zApwJkyjEVG15sCO2aTGXOpEWNpDcqZMoxFJiovgFJlouxIU9nmd01T3XZvhpp80l8sRHtXJCO/sWDBjtlURlmJEWNJJQqA0465xIixqIwaZ1Pbx82UVZ3FuHYJS9bmY6pSWto3lra+TSu3LuOZD6wETw7Gut2A0Q41pTWuvheZseNqz1wLnCuj6mvXa+j2gCO8UASLPvozy6Z1sbhiZPWSdaif+Csff/gikwpXsPoT2RC8Ww35L6ZTqI0k8razWGrAXm6i7IipZSwCsB83tY5bSiWmI2bMRyo5u38dS55cR76pkuD7VvJUtL5lfDG1Gbtc9csoKzW6xgoAZyWG5c+QYwtm2i1W8v5pxO60UXPG5pqHyTV+2ctNVCpQU1pFZemlH7zMuWlsKgeoIu/pdPJrcD/OdhwTS8soKzJjdyquttuMXTWlNZ32w15uwny8DHNtJ2NgPyZBoacGj2BaVCQxD/6ctGnv8Om/Ckj/uQFFO4Ddr6dTUGvGkLqCTUcVTOvnkfLuYRRTJo++a8JWnEnqW7tRFBPrfrQKY3UB6U8aqELB+GYq7xxpmoc2mIn1eWS9n8ehgcEEq8wYUtMxfA1V25ex5INKyrJSWV2sQJWBpS8WcKo4k9RX8rC06+wR3nliHWatHpyOpucq2f2hQuLCRGKiYkhc+mMiA5vLmzE8ZcAM2IozMRx3PWssPQxn8ljxdA7d/GwhvJB68FA06i4WLitmy4X5PHT/CAJvieGe70LBwUPXtH/iamkJHgd572aRdzSQ4FvAnJtKuuEYnMlj2ZM5VB55h9Q3jShUYXgynYITxWQu+i157QcQ7MWZZBbbXGPXmgKsZ3aQvtxVf8kaIwqHMbyY1jJWULWbLRcS+fGDMUTenUhaciQtw0ttMZkZxdgAc24mxbUARg4chartK3j6w/aji6WsmOJCI18ERzPa5zLj7LsprC5SKMtawuoSBY4aSH/KgFll42yF4gq7P92I+TL9MOemsuLdL1DcjIH9lQSFq+WspLIsguGOwxRg5cCuz3CMDgY7QAxx82KIDIOY2fHETBuBUnqMc8Cku+cQc/ccZoVXUnXoMAXToomLimFWtJoDXzVFdXUEP87cyh+fiEP54FEyTa42Y++PJD42BlPlMcwH1ETPjiHy/mgidx3mayByXiIxw4cwMlyPPnwaEcMnEP9cNDVbV7PqzYKmN4oO/fBKzJVN5ybsdjo7S1FzpuVtRUxsPJH3xxJjquLsNVugwtNMazo5JeFUOt0+hDdTE5HyZ7b+4UnilE08+q5rfbZ9Hx/76gDq6FnERMURPa2Aw1XAlPkkRgcz5LYR6AePYFpEMP5tWo2MjSdmXhwxpioqvj6GfXSkq/7ENoUG6wmuNLcetej0HKidyqrmv9uOa+1Hl7HfTSIp5UkeH76aTdsOuh1n42MnUXnmFJVf2Rl9VwyRs6OZCFB7gC3vGSgsPYb1eA2XHgdr2w+ImZfI6MGtj9uOgf2Vn6c7cN3av45nFuag1KmJ/NFzpMWq0Relk1lohuFJxIfCgctU/yJjBSmbFNTT0vh9zAi0n6WTkrwaNHE894ehrkIV+Sz7eSaWADWK6jGeC4dP2cKqVCPU6Vj2ahqz6o6z7JePYgBGPLuKsc5VLfMYOn4alqeXkq56mokfG9hdC+pQPVoAApm1OI3dv3yQR/2GgmoSaSvjmmqOYOK8LTy9wMgINUyaBhCMcX0KKbUKumdfIe0aLFLhHSJ+8jEf/wjQBLY+GT6R+IHpFBYuInLaIT79BGIWjvRYH0VXVJK/fBmZNWrUdWoeWzEadsKW11Mw0vQ+nqVwfPkKHjUAI55j1Z0OWkaQWyYyzbKUpS9oeD6q8zkExC4irfgVUhYOIXgwBDdPCJzFoqW7WbHgUbgJ1BPTWJnSNG3oGKZZlpCSnM9wRc18gOFG1qWmsKppXGvrn2uW8EUAKHWzeHzhD5hWfrlxdhCzFqdRvDKFlKHB6Ft7BDY7VehbH3fWjxadjYH9l0/Nudoe3wdSO2gQ/v49zxpOp9Mjv63taTVbl/Ey/82qeUO7WdPE6uhPuacwjYhr0jPRv9RgeGYeL4etp3DplbeomsLVPPPcRsouqBn9/Rd55dlZBKv6oJui15jWRPPpzELSJvdSg7UFrP7DAdTDbRi3aln0fhqRXT2ddY3Yd6zm9f1qgi8YMQxcxAdPReLhLl0Tvr6+qFQ9fwNevFiP7fz5LpWVoOAJih07gQT2YOtVahXUg2/EzV5cLxQF1LIJXp8u2FHUgah7M+BdsGN3gFrby+1eBaXWjoKawBt4rOzLoCCnHjxBHUjglUt1XvUG3vDF9UFCwnVsYGDvf7oeGEjgwN5u9OqoB1+D19mPSVAQop/y2/3dlr+dE1bReNNUD/ZGCOGtJCgI0U81hC/zdBeEENcBCQpC9FMNwx7wdBeEENcBuY+CEEIIIdySoCCEEEIItyQoCCGEEMItCQpCCCGEcMsrL2bslzdhEkIIITrh6+vZz/ReGRQaGxslLAghhOj3PB0SwEuDgkqluqpbUwohhBCid3g+qgghhBDCa0lQEEIIIYRbEhSEEEII4ZYEBSGEEEK4JUFBCCGEEG5JUBBCCCGEWxIUhBBCCOGWBAUhhBBCuOWVN1wSoj0HB7dsYIcFHAER/LufCWOdBrSTSUqYjM5RTn7WdiqcDpiwgPl+29hySMHBSH6YPBN9u6bal10Yo2HPGys4+L01LBzb3W6dZEfOevI1qfw2MaT9NGcJhjw98XObnv9yA89thfDhakKjHmDOWG274hVbNlMdl8BUTXeXTRec3knGlmNw3kHo92fj2Ladag1oxiaQFKVvP/2HqcxxbibtbR2/fXE2uu7O68tsslhA0oTWpyo2Z1MxdwEzrsVra+uSdau/cp2WukWs/XURmnE6NMF3kxhagoF7CTLtZ2rizM6Xw7kScv5WRLUKuDmKpMTJ3V9enfQjKzeEpISQK5cVoo9IUBDXARuacQksHqVlz8qX2HbXU6xI1GPdmc2e05OZEwDhD6QyR3+IjPXlkHAvSVF6qnOz+coG+rb7ZKV9WWuQhYqgqJ4N8E4dE+bOpaKg+QkLe3JyOWqFwFAH//gHhEalMlUPoGb8vNYdqONILlmFViCI2Edmo3GWk/+3DRwEHCNnszBoJ7/5GGK/dy+UlDI1cQr7cvYzNTGKii1/Y0+dmvDpCcQ6NjeVS2DGuc3kBy0gXp1LVvlMkma6XrjDEcKc5JmEVm7mja2fEvr9VBbe7mBfdi5HpyUQ2mb6WlMZO2wOpo5T92xVdUHH1x5u2UlG3kk0N48jLmEy2hPbydpWjcZP4ahjJA8Ps3AhLoGgPFeYGn+iQ/3mANJh3Tpi9HQnm+iiElp30IdK2nS4nPysXVRr9EydP5fxTdvTwe2lhCenkhgAjmOHqK4tIef3Reji5pI40Ybh/SKsfsDI2SQFFZFDAolsJocEZpSuIYcQNDY9P0yeybc7s8k/ATiOUaFLvtpFLESvklMP4jqgJ3yUHseRXPYNvY0RIa5PirohGqxWQBtG+DCo2LYTzczJ6Idpqdi2hrVlIdypdXAwL5uMrFz2netQNiaIPSY9s6ZpLzt3twK06APaPHZaqbZqGX9PAt+LjWJO3NymkACgcHDrBjKyNrPntIN9H+RSrQZN/UkqagGCmBqfTFJyMjNOF3HQqWH8dxcQO6rjrk5D+My7mRGmoeKoBWgtp4kYh+NAORUlVsKntL4mze1hhGos7PnURvitgwjVu9oJ0oC1w/SIQV/hmHYv4Vf7EeJ0ETlZG8gqKEdpN6GT135rFPNnjiP0XDlfOx3sK3IwJ2UBScmzGX/Jndw7W3ZNOmwH3T2AYS3aTMaGbHKKLO0naMKYERfFeL2Fo6ean7RRXR/EbQFgLcklK28nB8+BZspcEmNCsOzdj2a+a31OPVnEQWeHman0zJibQLzWwtfKIfacnsLCpAUsnB9FkNy9XngZOaIgrg+nd5JVFEbSfB2GUhugxVrtQDfONdn6eTb5mgQWTgCrRSH83qW8oMvGcExDYtwCxrdpqqXs4BLeOF7O0f1F7Lk5hFljo+jGwepLqcKY80MdFQc2k3NiVIcdVdsjCg72jJ5LUsJcQm0WrAGuHfal7TX/oaA4HTjqAWc5e4oUwiN0cKpDuYCxhCvryamLYnG77OPg4OZcqu95hNiqzeywALc7qK6j6UhK8/QEQne/RXFpCQf/UU3F5CiSLgkqXTQsisSkKAAqNhe1n9bxtZfs4qubx6ILKIV6XP+aaPyaXwE4FEen9dtq3Q663+/2RxTaTDhZxJ7TIYzXqjnassPXEuR3kq/rYOrkucw/tYHPNaBps5Nv+bt5lHW6XolDBaBxbR+q9q9XCG8kQUF4P2c5Wb/ZQMWUmeTkDeEW/2zWZgC6KJKGAae38+rqQ4TOVMioiyJGtZOMExo06IlN6tBWh7ILfzYb3SE9QVxlSABwnmTH+9up9gNd9K1oSrez53QyM4Z1LKhh6jjIyNgAhBCfMhuwcjAvm2rFhuP2uSxUFXEQAC3hAaW8m3USR10IM1Q6dHXb2FFwkoqAjhdVaBh/u4Y9tP80bd29hld3a4i1/Y38MRFo8tazFgeaCQtYqGo7fTOOiBR+dpeGHTfvZ2pPQ8Ily+UY+VkbOKjRM2P+3Etee5AWju7dibVUYUaChqnTXNN1WqhwjCR6NPwzMxtNtcKM+EuXXctpow7rNnHu2G6dUrIWbSbDpkMzLIrEO9pMCNDhKNvJjlPH4HutT4+fPZmst9awYwBogu9l4VAHhqZp+ulTqM7eQJbG4Vqft1vY99Z6sgZZYFaHGavGMkO/gbUb9qNTWXBcsl6F8CyfmnO1jT2trB00CH//nmcNp9MpPyctRG+xlJCTe5Kpj8xtPW9/HXIc24mh2AI4IPheErtzUaIQ/YSvr+9V/cryxYv12M6f71JZCQpCCCHEdaYvg4JHL2b08fHx5OyFEEKI61Jf7j8lKAghhBDXmX4VFHx95RuaQgghRFf5+vr2n6AAoFKp5MiCEEII0QU+Pj5XdW1CT3g8KICEBSGEEOJKPBESwEvuo+Dj44Ofnx8NDQ00NDTQ2NjjL2IIIYQQN5Tm0/SeOlXvFUGhWfOCaA4KEhiEEEL0V81H2j19xN2rgkIzb1k4QgghRH/nFdcoCCGEEMI7SVAQQgghhFsSFIQQQgjhlgQFIYQQQrglQUEIIYQQbklQEEIIIYRbPt/Y7HKzAiGEEEJ0So4oCCGEEMKt/w9kF6Vx0Xi3awAAAABJRU5ErkJggg==;" vertex="1" parent="1">
          <mxGeometry x="414" y="440" width="352" height="162.51" as="geometry" />
        </mxCell>
        <mxCell id="v1kjHRz2UVswL3TBr61I-8" value="TASKS&lt;div&gt;&amp;nbsp; UI/UX&amp;nbsp; Tech confirmed angular&lt;/div&gt;&lt;div&gt;Data Base design --&amp;gt; MySQL&lt;/div&gt;&lt;div&gt;RES T API&amp;nbsp; Development&amp;nbsp;&lt;/div&gt;&lt;div&gt;&lt;br&gt;&lt;/div&gt;" style="text;html=1;align=center;verticalAlign=middle;resizable=0;points=[];autosize=1;strokeColor=none;fillColor=none;" vertex="1" parent="1">
          <mxGeometry x="180" y="730" width="190" height="90" as="geometry" />
        </mxCell>
      </root>
    </mxGraphModel>
  </diagram>
</mxfile>
